<?xml version="1.0" encoding="UTF-8" standalone="no"?>
<!DOCTYPE svg PUBLIC "-//W3C//DTD SVG 1.1//EN"
 "http://www.w3.org/Graphics/SVG/1.1/DTD/svg11.dtd">
<!-- Generated by graphviz version 2.36.0 (20140111.2315)
 -->
<!-- Title: new_subscribe Pages: 1 -->
<svg width="704pt" height="162pt"
 viewBox="0.00 0.00 704.00 162.00" xmlns="http://www.w3.org/2000/svg" xmlns:xlink="http://www.w3.org/1999/xlink">
<g id="graph0" class="graph" transform="scale(1 1) rotate(0) translate(4 158)">
<title>new_subscribe</title>
<polygon fill="white" stroke="none" points="-4,4 -4,-158 700,-158 700,4 -4,4"/>
<!-- pubsub -->
<g id="node1" class="node"><title>pubsub</title>
<polygon fill="#a8e270" stroke="black" points="0,-0 0,-138 134,-138 134,-0 0,-0"/>
<text text-anchor="middle" x="67" y="-122.8" font-family="'/usr/share/fonts/truetype/wqy/wqy-microhei.ttc'" font-size="14.00">pubsub_channels</text>
<polyline fill="none" stroke="black" points="0,-115 134,-115 "/>
<text text-anchor="middle" x="67" y="-99.8" font-family="'/usr/share/fonts/truetype/wqy/wqy-microhei.ttc'" font-size="14.00">channel1</text>
<polyline fill="none" stroke="black" points="0,-92 134,-92 "/>
<text text-anchor="middle" x="67" y="-76.8" font-family="'/usr/share/fonts/truetype/wqy/wqy-microhei.ttc'" font-size="14.00">channel2</text>
<polyline fill="none" stroke="black" points="0,-69 134,-69 "/>
<text text-anchor="middle" x="67" y="-53.8" font-family="'/usr/share/fonts/truetype/wqy/wqy-microhei.ttc'" font-size="14.00">channel3</text>
<polyline fill="none" stroke="black" points="0,-46 134,-46 "/>
<text text-anchor="middle" x="67" y="-30.8" font-family="'/usr/share/fonts/truetype/wqy/wqy-microhei.ttc'" font-size="14.00">...</text>
<polyline fill="none" stroke="black" points="0,-23 134,-23 "/>
<text text-anchor="middle" x="67" y="-7.8" font-family="'/usr/share/fonts/truetype/wqy/wqy-microhei.ttc'" font-size="14.00">channelN</text>
</g>
<!-- client2 -->
<g id="node4" class="node"><title>client2</title>
<polygon fill="#95bbe3" stroke="black" points="170.5,-118 170.5,-154 233.5,-154 233.5,-118 170.5,-118"/>
<text text-anchor="middle" x="202" y="-132.3" font-family="'/usr/share/fonts/truetype/wqy/wqy-microhei.ttc'" font-size="14.00">client2</text>
</g>
<!-- pubsub&#45;&gt;client2 -->
<g id="edge1" class="edge"><title>pubsub:channel1&#45;&gt;client2</title>
<path fill="none" stroke="black" stroke-width="2" d="M134,-104C145.547,-104 157.217,-107.918 167.509,-113.012"/>
<polygon fill="black" stroke="black" stroke-width="2" points="166.078,-116.218 176.531,-117.943 169.435,-110.076 166.078,-116.218"/>
</g>
<!-- client7 -->
<g id="node11" class="node"><title>client7</title>
<polygon fill="#95bbe3" stroke="black" points="170.5,-63 170.5,-99 233.5,-99 233.5,-63 170.5,-63"/>
<text text-anchor="middle" x="202" y="-77.3" font-family="'/usr/share/fonts/truetype/wqy/wqy-microhei.ttc'" font-size="14.00">client7</text>
</g>
<!-- pubsub&#45;&gt;client7 -->
<g id="edge6" class="edge"><title>pubsub:channel2&#45;&gt;client7</title>
<path fill="none" stroke="black" stroke-width="2" d="M134,-81C142.435,-81 151.467,-81 160.082,-81"/>
<polygon fill="black" stroke="black" stroke-width="2" points="160.314,-84.5001 170.314,-81 160.314,-77.5001 160.314,-84.5001"/>
</g>
<!-- client3 -->
<g id="node12" class="node"><title>client3</title>
<polygon fill="#95bbe3" stroke="black" points="170.5,-8 170.5,-44 233.5,-44 233.5,-8 170.5,-8"/>
<text text-anchor="middle" x="202" y="-22.3" font-family="'/usr/share/fonts/truetype/wqy/wqy-microhei.ttc'" font-size="14.00">client3</text>
</g>
<!-- pubsub&#45;&gt;client3 -->
<g id="edge9" class="edge"><title>pubsub:channel3&#45;&gt;client3</title>
<path fill="none" stroke="black" stroke-width="2" d="M134,-57C145.187,-57 156.533,-53.3965 166.631,-48.6467"/>
<polygon fill="black" stroke="black" stroke-width="2" points="168.252,-51.7488 175.512,-44.0328 165.025,-45.537 168.252,-51.7488"/>
</g>
<!-- client1 -->
<g id="node2" class="node"><title>client1</title>
<polygon fill="#95bbe3" stroke="black" points="406.5,-118 406.5,-154 469.5,-154 469.5,-118 406.5,-118"/>
<text text-anchor="middle" x="438" y="-132.3" font-family="'/usr/share/fonts/truetype/wqy/wqy-microhei.ttc'" font-size="14.00">client1</text>
</g>
<!-- client10086 -->
<g id="node5" class="node"><title>client10086</title>
<polygon fill="#ffc1c1" stroke="black" points="506.5,-118 506.5,-154 605.5,-154 605.5,-118 506.5,-118"/>
<text text-anchor="middle" x="556" y="-132.3" font-family="'/usr/share/fonts/truetype/wqy/wqy-microhei.ttc'" font-size="14.00">client10086</text>
</g>
<!-- client1&#45;&gt;client10086 -->
<g id="edge4" class="edge"><title>client1&#45;&gt;client10086</title>
<path fill="none" stroke="black" stroke-width="2" d="M469.781,-136C477.877,-136 486.887,-136 495.932,-136"/>
<polygon fill="black" stroke="black" stroke-width="2" points="496.112,-139.5 506.112,-136 496.112,-132.5 496.112,-139.5"/>
</g>
<!-- client5 -->
<g id="node3" class="node"><title>client5</title>
<polygon fill="#95bbe3" stroke="black" points="288.5,-118 288.5,-154 351.5,-154 351.5,-118 288.5,-118"/>
<text text-anchor="middle" x="320" y="-132.3" font-family="'/usr/share/fonts/truetype/wqy/wqy-microhei.ttc'" font-size="14.00">client5</text>
</g>
<!-- client5&#45;&gt;client1 -->
<g id="edge3" class="edge"><title>client5&#45;&gt;client1</title>
<path fill="none" stroke="black" stroke-width="2" d="M351.781,-136C365.392,-136 381.589,-136 396.189,-136"/>
<polygon fill="black" stroke="black" stroke-width="2" points="396.477,-139.5 406.477,-136 396.477,-132.5 396.477,-139.5"/>
</g>
<!-- client2&#45;&gt;client5 -->
<g id="edge2" class="edge"><title>client2&#45;&gt;client5</title>
<path fill="none" stroke="black" stroke-width="2" d="M233.781,-136C247.392,-136 263.589,-136 278.189,-136"/>
<polygon fill="black" stroke="black" stroke-width="2" points="278.477,-139.5 288.477,-136 278.477,-132.5 278.477,-139.5"/>
</g>
<!-- null_1 -->
<g id="node8" class="node"><title>null_1</title>
<polygon fill="lightgrey" stroke="none" points="696,-154 642,-154 642,-118 696,-118 696,-154"/>
<text text-anchor="middle" x="669" y="-132.3" font-family="'/usr/share/fonts/truetype/wqy/wqy-microhei.ttc'" font-size="14.00">NULL</text>
</g>
<!-- client10086&#45;&gt;null_1 -->
<g id="edge5" class="edge"><title>client10086&#45;&gt;null_1</title>
<path fill="none" stroke="black" stroke-width="2" d="M605.686,-136C614.451,-136 623.446,-136 631.779,-136"/>
<polygon fill="black" stroke="black" stroke-width="2" points="631.913,-139.5 641.913,-136 631.913,-132.5 631.913,-139.5"/>
</g>
<!-- client10086_1 -->
<g id="node6" class="node"><title>client10086_1</title>
<polygon fill="#ffc1c1" stroke="black" points="270.5,-63 270.5,-99 369.5,-99 369.5,-63 270.5,-63"/>
<text text-anchor="middle" x="320" y="-77.3" font-family="'/usr/share/fonts/truetype/wqy/wqy-microhei.ttc'" font-size="14.00">client10086</text>
</g>
<!-- null_2 -->
<g id="node9" class="node"><title>null_2</title>
<polygon fill="lightgrey" stroke="none" points="465,-99 411,-99 411,-63 465,-63 465,-99"/>
<text text-anchor="middle" x="438" y="-77.3" font-family="'/usr/share/fonts/truetype/wqy/wqy-microhei.ttc'" font-size="14.00">NULL</text>
</g>
<!-- client10086_1&#45;&gt;null_2 -->
<g id="edge8" class="edge"><title>client10086_1&#45;&gt;null_2</title>
<path fill="none" stroke="black" stroke-width="2" d="M369.522,-81C379.918,-81 390.73,-81 400.576,-81"/>
<polygon fill="black" stroke="black" stroke-width="2" points="400.814,-84.5001 410.814,-81 400.814,-77.5001 400.814,-84.5001"/>
</g>
<!-- client10086_2 -->
<g id="node7" class="node"><title>client10086_2</title>
<polygon fill="#ffc1c1" stroke="black" points="506.5,-8 506.5,-44 605.5,-44 605.5,-8 506.5,-8"/>
<text text-anchor="middle" x="556" y="-22.3" font-family="'/usr/share/fonts/truetype/wqy/wqy-microhei.ttc'" font-size="14.00">client10086</text>
</g>
<!-- null_3 -->
<g id="node10" class="node"><title>null_3</title>
<polygon fill="lightgrey" stroke="none" points="696,-44 642,-44 642,-8 696,-8 696,-44"/>
<text text-anchor="middle" x="669" y="-22.3" font-family="'/usr/share/fonts/truetype/wqy/wqy-microhei.ttc'" font-size="14.00">NULL</text>
</g>
<!-- client10086_2&#45;&gt;null_3 -->
<g id="edge13" class="edge"><title>client10086_2&#45;&gt;null_3</title>
<path fill="none" stroke="black" stroke-width="2" d="M605.686,-26C614.451,-26 623.446,-26 631.779,-26"/>
<polygon fill="black" stroke="black" stroke-width="2" points="631.913,-29.5001 641.913,-26 631.913,-22.5001 631.913,-29.5001"/>
</g>
<!-- client7&#45;&gt;client10086_1 -->
<g id="edge7" class="edge"><title>client7&#45;&gt;client10086_1</title>
<path fill="none" stroke="black" stroke-width="2" d="M233.781,-81C241.877,-81 250.887,-81 259.932,-81"/>
<polygon fill="black" stroke="black" stroke-width="2" points="260.112,-84.5001 270.112,-81 260.112,-77.5001 260.112,-84.5001"/>
</g>
<!-- client4 -->
<g id="node13" class="node"><title>client4</title>
<polygon fill="#95bbe3" stroke="black" points="288.5,-8 288.5,-44 351.5,-44 351.5,-8 288.5,-8"/>
<text text-anchor="middle" x="320" y="-22.3" font-family="'/usr/share/fonts/truetype/wqy/wqy-microhei.ttc'" font-size="14.00">client4</text>
</g>
<!-- client3&#45;&gt;client4 -->
<g id="edge10" class="edge"><title>client3&#45;&gt;client4</title>
<path fill="none" stroke="black" stroke-width="2" d="M233.781,-26C247.392,-26 263.589,-26 278.189,-26"/>
<polygon fill="black" stroke="black" stroke-width="2" points="278.477,-29.5001 288.477,-26 278.477,-22.5001 278.477,-29.5001"/>
</g>
<!-- client6 -->
<g id="node14" class="node"><title>client6</title>
<polygon fill="#95bbe3" stroke="black" points="406.5,-8 406.5,-44 469.5,-44 469.5,-8 406.5,-8"/>
<text text-anchor="middle" x="438" y="-22.3" font-family="'/usr/share/fonts/truetype/wqy/wqy-microhei.ttc'" font-size="14.00">client6</text>
</g>
<!-- client4&#45;&gt;client6 -->
<g id="edge11" class="edge"><title>client4&#45;&gt;client6</title>
<path fill="none" stroke="black" stroke-width="2" d="M351.781,-26C365.392,-26 381.589,-26 396.189,-26"/>
<polygon fill="black" stroke="black" stroke-width="2" points="396.477,-29.5001 406.477,-26 396.477,-22.5001 396.477,-29.5001"/>
</g>
<!-- client6&#45;&gt;client10086_2 -->
<g id="edge12" class="edge"><title>client6&#45;&gt;client10086_2</title>
<path fill="none" stroke="black" stroke-width="2" d="M469.781,-26C477.877,-26 486.887,-26 495.932,-26"/>
<polygon fill="black" stroke="black" stroke-width="2" points="496.112,-29.5001 506.112,-26 496.112,-22.5001 496.112,-29.5001"/>
</g>
</g>
</svg>
