<?xml version="1.0" encoding="UTF-8" standalone="no"?>
<!DOCTYPE svg PUBLIC "-//W3C//DTD SVG 1.1//EN"
 "http://www.w3.org/Graphics/SVG/1.1/DTD/svg11.dtd">
<!-- Generated by graphviz version 2.36.0 (20140111.2315)
 -->
<!-- Title: g Pages: 1 -->
<svg width="536pt" height="146pt"
 viewBox="0.00 0.00 536.00 146.00" xmlns="http://www.w3.org/2000/svg" xmlns:xlink="http://www.w3.org/1999/xlink">
<g id="graph0" class="graph" transform="scale(1 1) rotate(0) translate(4 142)">
<title>g</title>
<polygon fill="white" stroke="none" points="-4,4 -4,-142 532,-142 532,4 -4,4"/>
<!-- redisServer -->
<g id="node1" class="node"><title>redisServer</title>
<polygon fill="#a8e270" stroke="black" points="0.5,-35 0.5,-127 95.5,-127 95.5,-35 0.5,-35"/>
<text text-anchor="middle" x="48" y="-111.8" font-family="'/usr/share/fonts/truetype/wqy/wqy-microhei.ttc'" font-size="14.00">redisServer</text>
<polyline fill="none" stroke="black" points="0.5,-104 95.5,-104 "/>
<text text-anchor="middle" x="48" y="-88.8" font-family="'/usr/share/fonts/truetype/wqy/wqy-microhei.ttc'" font-size="14.00">...</text>
<polyline fill="none" stroke="black" points="0.5,-81 95.5,-81 "/>
<text text-anchor="middle" x="48" y="-65.8" font-family="'/usr/share/fonts/truetype/wqy/wqy-microhei.ttc'" font-size="14.00">slowlog</text>
<polyline fill="none" stroke="black" points="0.5,-58 95.5,-58 "/>
<text text-anchor="middle" x="48" y="-42.8" font-family="'/usr/share/fonts/truetype/wqy/wqy-microhei.ttc'" font-size="14.00">...</text>
</g>
<!-- slowlog_1 -->
<g id="node2" class="node"><title>slowlog_1</title>
<polygon fill="#95bbe3" stroke="black" points="132.5,-0 132.5,-138 239.5,-138 239.5,-0 132.5,-0"/>
<text text-anchor="middle" x="186" y="-122.8" font-family="'/usr/share/fonts/truetype/wqy/wqy-microhei.ttc'" font-size="14.00">slowlogEntry</text>
<polyline fill="none" stroke="black" points="132.5,-115 239.5,-115 "/>
<text text-anchor="middle" x="186" y="-99.8" font-family="'/usr/share/fonts/truetype/wqy/wqy-microhei.ttc'" font-size="14.00">argv</text>
<polyline fill="none" stroke="black" points="132.5,-92 239.5,-92 "/>
<text text-anchor="middle" x="186" y="-76.8" font-family="'/usr/share/fonts/truetype/wqy/wqy-microhei.ttc'" font-size="14.00">argc</text>
<polyline fill="none" stroke="black" points="132.5,-69 239.5,-69 "/>
<text text-anchor="middle" x="186" y="-53.8" font-family="'/usr/share/fonts/truetype/wqy/wqy-microhei.ttc'" font-size="14.00">id</text>
<polyline fill="none" stroke="black" points="132.5,-46 239.5,-46 "/>
<text text-anchor="middle" x="186" y="-30.8" font-family="'/usr/share/fonts/truetype/wqy/wqy-microhei.ttc'" font-size="14.00">duration</text>
<polyline fill="none" stroke="black" points="132.5,-23 239.5,-23 "/>
<text text-anchor="middle" x="186" y="-7.8" font-family="'/usr/share/fonts/truetype/wqy/wqy-microhei.ttc'" font-size="14.00">time</text>
</g>
<!-- redisServer&#45;&gt;slowlog_1 -->
<g id="edge1" class="edge"><title>redisServer:slowlog&#45;&gt;slowlog_1</title>
<path fill="none" stroke="black" stroke-width="2" d="M96,-69C104.44,-69 113.331,-69 122.095,-69"/>
<polygon fill="black" stroke="black" stroke-width="2" points="122.291,-72.5001 132.291,-69 122.291,-65.5001 122.291,-72.5001"/>
</g>
<!-- slowlog_2 -->
<g id="node3" class="node"><title>slowlog_2</title>
<polygon fill="#95bbe3" stroke="black" points="276.5,-0 276.5,-138 383.5,-138 383.5,-0 276.5,-0"/>
<text text-anchor="middle" x="330" y="-122.8" font-family="'/usr/share/fonts/truetype/wqy/wqy-microhei.ttc'" font-size="14.00">slowlogEntry</text>
<polyline fill="none" stroke="black" points="276.5,-115 383.5,-115 "/>
<text text-anchor="middle" x="330" y="-99.8" font-family="'/usr/share/fonts/truetype/wqy/wqy-microhei.ttc'" font-size="14.00">argv</text>
<polyline fill="none" stroke="black" points="276.5,-92 383.5,-92 "/>
<text text-anchor="middle" x="330" y="-76.8" font-family="'/usr/share/fonts/truetype/wqy/wqy-microhei.ttc'" font-size="14.00">argc</text>
<polyline fill="none" stroke="black" points="276.5,-69 383.5,-69 "/>
<text text-anchor="middle" x="330" y="-53.8" font-family="'/usr/share/fonts/truetype/wqy/wqy-microhei.ttc'" font-size="14.00">id</text>
<polyline fill="none" stroke="black" points="276.5,-46 383.5,-46 "/>
<text text-anchor="middle" x="330" y="-30.8" font-family="'/usr/share/fonts/truetype/wqy/wqy-microhei.ttc'" font-size="14.00">duration</text>
<polyline fill="none" stroke="black" points="276.5,-23 383.5,-23 "/>
<text text-anchor="middle" x="330" y="-7.8" font-family="'/usr/share/fonts/truetype/wqy/wqy-microhei.ttc'" font-size="14.00">time</text>
</g>
<!-- slowlog_1&#45;&gt;slowlog_2 -->
<g id="edge2" class="edge"><title>slowlog_1&#45;&gt;slowlog_2</title>
<path fill="none" stroke="black" stroke-width="2" d="M239.876,-69C248.377,-69 257.25,-69 265.961,-69"/>
<polygon fill="black" stroke="black" stroke-width="2" points="266.08,-72.5001 276.08,-69 266.08,-65.5001 266.08,-72.5001"/>
</g>
<!-- slowlog_3 -->
<g id="node4" class="node"><title>slowlog_3</title>
<polygon fill="#95bbe3" stroke="black" points="420.5,-0 420.5,-138 527.5,-138 527.5,-0 420.5,-0"/>
<text text-anchor="middle" x="474" y="-122.8" font-family="'/usr/share/fonts/truetype/wqy/wqy-microhei.ttc'" font-size="14.00">slowlogEntry</text>
<polyline fill="none" stroke="black" points="420.5,-115 527.5,-115 "/>
<text text-anchor="middle" x="474" y="-99.8" font-family="'/usr/share/fonts/truetype/wqy/wqy-microhei.ttc'" font-size="14.00">argv</text>
<polyline fill="none" stroke="black" points="420.5,-92 527.5,-92 "/>
<text text-anchor="middle" x="474" y="-76.8" font-family="'/usr/share/fonts/truetype/wqy/wqy-microhei.ttc'" font-size="14.00">argc</text>
<polyline fill="none" stroke="black" points="420.5,-69 527.5,-69 "/>
<text text-anchor="middle" x="474" y="-53.8" font-family="'/usr/share/fonts/truetype/wqy/wqy-microhei.ttc'" font-size="14.00">id</text>
<polyline fill="none" stroke="black" points="420.5,-46 527.5,-46 "/>
<text text-anchor="middle" x="474" y="-30.8" font-family="'/usr/share/fonts/truetype/wqy/wqy-microhei.ttc'" font-size="14.00">duration</text>
<polyline fill="none" stroke="black" points="420.5,-23 527.5,-23 "/>
<text text-anchor="middle" x="474" y="-7.8" font-family="'/usr/share/fonts/truetype/wqy/wqy-microhei.ttc'" font-size="14.00">time</text>
</g>
<!-- slowlog_2&#45;&gt;slowlog_3 -->
<g id="edge3" class="edge"><title>slowlog_2&#45;&gt;slowlog_3</title>
<path fill="none" stroke="black" stroke-width="2" d="M383.876,-69C392.377,-69 401.25,-69 409.961,-69"/>
<polygon fill="black" stroke="black" stroke-width="2" points="410.08,-72.5001 420.08,-69 410.08,-65.5001 410.08,-72.5001"/>
</g>
</g>
</svg>
