<?xml version="1.0" encoding="UTF-8" standalone="no"?>
<!DOCTYPE svg PUBLIC "-//W3C//DTD SVG 1.1//EN"
 "http://www.w3.org/Graphics/SVG/1.1/DTD/svg11.dtd">
<!-- Generated by graphviz version 2.36.0 (20140111.2315)
 -->
<!-- Title: g Pages: 1 -->
<svg width="284pt" height="206pt"
 viewBox="0.00 0.00 284.00 206.00" xmlns="http://www.w3.org/2000/svg" xmlns:xlink="http://www.w3.org/1999/xlink">
<g id="graph0" class="graph" transform="scale(1 1) rotate(0) translate(4 202)">
<title>g</title>
<polygon fill="white" stroke="none" points="-4,4 -4,-202 280,-202 280,4 -4,4"/>
<!-- add -->
<g id="node1" class="node"><title>add</title>
<polygon fill="#a8e270" stroke="none" points="194,-198 48,-198 48,-162 194,-162 194,-198"/>
<text text-anchor="middle" x="121" y="-176.3" font-family="'/usr/share/fonts/truetype/wqy/wqy-microhei.ttc'" font-size="14.00">添加新元素到 intset</text>
</g>
<!-- upgrade_or_not -->
<g id="node2" class="node"><title>upgrade_or_not</title>
<polygon fill="#95bbe3" stroke="black" points="121,-124 0.00638986,-106 121,-88 241.994,-106 121,-124"/>
<text text-anchor="middle" x="121" y="-102.3" font-family="'/usr/share/fonts/truetype/wqy/wqy-microhei.ttc'" font-size="14.00">intset 需要升级？</text>
</g>
<!-- add&#45;&gt;upgrade_or_not -->
<g id="edge1" class="edge"><title>add&#45;&gt;upgrade_or_not</title>
<path fill="none" stroke="black" stroke-width="2" d="M121,-161.937C121,-153.807 121,-143.876 121,-134.705"/>
<polygon fill="black" stroke="black" stroke-width="2" points="124.5,-134.441 121,-124.441 117.5,-134.441 124.5,-134.441"/>
</g>
<!-- intsetAdd -->
<g id="node3" class="node"><title>intsetAdd</title>
<polygon fill="lightgrey" stroke="none" points="91.25,-36 8.75,-36 8.75,-0 91.25,-0 91.25,-36"/>
<text text-anchor="middle" x="50" y="-14.3" font-family="'/usr/share/fonts/truetype/wqy/wqy-microhei.ttc'" font-size="14.00">intsetAdd</text>
</g>
<!-- upgrade_or_not&#45;&gt;intsetAdd -->
<g id="edge2" class="edge"><title>upgrade_or_not&#45;&gt;intsetAdd</title>
<path fill="none" stroke="black" stroke-width="2" d="M108.307,-89.6249C97.8064,-76.9063 82.6898,-58.5961 70.4798,-43.8065"/>
<polygon fill="black" stroke="black" stroke-width="2" points="73.1088,-41.4934 64.0432,-36.0101 67.7107,-45.9499 73.1088,-41.4934"/>
<text text-anchor="middle" x="113.5" y="-58.3" font-family="Times,serif" font-size="14.00">不需要</text>
</g>
<!-- intsetUpgradeAndAdd -->
<g id="node4" class="node"><title>intsetUpgradeAndAdd</title>
<polygon fill="lightgrey" stroke="none" points="276.25,-36 109.75,-36 109.75,-0 276.25,-0 276.25,-36"/>
<text text-anchor="middle" x="193" y="-14.3" font-family="'/usr/share/fonts/truetype/wqy/wqy-microhei.ttc'" font-size="14.00">intsetUpgradeAndAdd</text>
</g>
<!-- upgrade_or_not&#45;&gt;intsetUpgradeAndAdd -->
<g id="edge3" class="edge"><title>upgrade_or_not&#45;&gt;intsetUpgradeAndAdd</title>
<path fill="none" stroke="black" stroke-width="2" d="M133.872,-89.6249C144.52,-76.9063 159.85,-58.5961 172.232,-43.8065"/>
<polygon fill="black" stroke="black" stroke-width="2" points="175.023,-45.9245 178.759,-36.0101 169.656,-41.4309 175.023,-45.9245"/>
<text text-anchor="middle" x="177.5" y="-58.3" font-family="Times,serif" font-size="14.00">需要</text>
</g>
</g>
</svg>
