<?xml version="1.0" encoding="UTF-8" standalone="no"?>
<!DOCTYPE svg PUBLIC "-//W3C//DTD SVG 1.1//EN"
 "http://www.w3.org/Graphics/SVG/1.1/DTD/svg11.dtd">
<!-- Generated by graphviz version 2.36.0 (20140111.2315)
 -->
<!-- Title: intsetAdd Pages: 1 -->
<svg width="669pt" height="476pt"
 viewBox="0.00 0.00 669.00 476.00" xmlns="http://www.w3.org/2000/svg" xmlns:xlink="http://www.w3.org/1999/xlink">
<g id="graph0" class="graph" transform="scale(1 1) rotate(0) translate(4 472)">
<title>intsetAdd</title>
<polygon fill="white" stroke="none" points="-4,4 -4,-472 665,-472 665,4 -4,4"/>
<!-- start -->
<g id="node1" class="node"><title>start</title>
<polygon fill="#a8e270" stroke="none" points="206.25,-468 123.75,-468 123.75,-432 206.25,-432 206.25,-468"/>
<text text-anchor="middle" x="165" y="-446.3" font-family="'/usr/share/fonts/truetype/wqy/wqy-microhei.ttc'" font-size="14.00">intsetAdd</text>
</g>
<!-- check_encoding -->
<g id="node2" class="node"><title>check_encoding</title>
<polygon fill="#95bbe3" stroke="black" points="165,-394 20,-356 165,-318 310,-356 165,-394"/>
<text text-anchor="middle" x="165" y="-359.8" font-family="'/usr/share/fonts/truetype/wqy/wqy-microhei.ttc'" font-size="14.00">集合当前的编码类型</text>
<text text-anchor="middle" x="165" y="-344.8" font-family="'/usr/share/fonts/truetype/wqy/wqy-microhei.ttc'" font-size="14.00">是否适用于新元素？</text>
</g>
<!-- start&#45;&gt;check_encoding -->
<g id="edge1" class="edge"><title>start&#45;&gt;check_encoding</title>
<path fill="none" stroke="black" stroke-width="2" d="M165,-431.696C165,-423.815 165,-414.063 165,-404.236"/>
<polygon fill="black" stroke="black" stroke-width="2" points="168.5,-404.043 165,-394.043 161.5,-404.043 168.5,-404.043"/>
</g>
<!-- upgrade -->
<g id="node3" class="node"><title>upgrade</title>
<polygon fill="lightgrey" stroke="none" points="172,-265.5 0,-265.5 0,-182.5 172,-182.5 172,-265.5"/>
<text text-anchor="middle" x="86" y="-250.3" font-family="'/usr/share/fonts/truetype/wqy/wqy-microhei.ttc'" font-size="14.00">调用</text>
<text text-anchor="middle" x="86" y="-235.3" font-family="'/usr/share/fonts/truetype/wqy/wqy-microhei.ttc'" font-size="14.00"> intsetUpgradeAndAdd</text>
<text text-anchor="middle" x="86" y="-220.3" font-family="'/usr/share/fonts/truetype/wqy/wqy-microhei.ttc'" font-size="14.00">升级集合</text>
<text text-anchor="middle" x="86" y="-205.3" font-family="'/usr/share/fonts/truetype/wqy/wqy-microhei.ttc'" font-size="14.00">并将新元素</text>
<text text-anchor="middle" x="86" y="-190.3" font-family="'/usr/share/fonts/truetype/wqy/wqy-microhei.ttc'" font-size="14.00">添加到升级后的集合中</text>
</g>
<!-- check_encoding&#45;&gt;upgrade -->
<g id="edge2" class="edge"><title>check_encoding&#45;&gt;upgrade</title>
<path fill="none" stroke="black" stroke-width="2" d="M145.472,-322.865C136.605,-308.274 125.916,-290.684 116.059,-274.465"/>
<polygon fill="black" stroke="black" stroke-width="2" points="118.871,-272.351 110.686,-265.623 112.889,-275.987 118.871,-272.351"/>
<text text-anchor="middle" x="151.5" y="-288.3" font-family="Times,serif" font-size="14.00">不适用</text>
</g>
<!-- value_exists -->
<g id="node4" class="node"><title>value_exists</title>
<polygon fill="#95bbe3" stroke="black" points="336,-242 189.781,-224 336,-206 482.219,-224 336,-242"/>
<text text-anchor="middle" x="336" y="-220.3" font-family="'/usr/share/fonts/truetype/wqy/wqy-microhei.ttc'" font-size="14.00">元素已经存在于集合？</text>
</g>
<!-- check_encoding&#45;&gt;value_exists -->
<g id="edge3" class="edge"><title>check_encoding&#45;&gt;value_exists</title>
<path fill="none" stroke="black" stroke-width="2" d="M201.265,-327.43C233.209,-303.145 279.063,-268.286 308.185,-246.146"/>
<polygon fill="black" stroke="black" stroke-width="2" points="310.448,-248.822 316.29,-239.984 306.211,-243.25 310.448,-248.822"/>
<text text-anchor="middle" x="269.5" y="-288.3" font-family="Times,serif" font-size="14.00">适用</text>
</g>
<!-- insert_fail -->
<g id="node5" class="node"><title>insert_fail</title>
<polygon fill="lightgrey" stroke="none" points="344.25,-121 185.75,-121 185.75,-85 344.25,-85 344.25,-121"/>
<text text-anchor="middle" x="265" y="-99.3" font-family="'/usr/share/fonts/truetype/wqy/wqy-microhei.ttc'" font-size="14.00">添加失败，元素已存在</text>
</g>
<!-- value_exists&#45;&gt;insert_fail -->
<g id="edge4" class="edge"><title>value_exists&#45;&gt;insert_fail</title>
<path fill="none" stroke="black" stroke-width="2" d="M326.425,-206.951C314.662,-187.237 294.551,-153.529 280.558,-130.076"/>
<polygon fill="black" stroke="black" stroke-width="2" points="283.472,-128.13 275.343,-121.335 277.461,-131.716 283.472,-128.13"/>
<text text-anchor="middle" x="307.5" y="-152.3" font-family="Times,serif" font-size="14.00">是</text>
</g>
<!-- realloc_and_move -->
<g id="node6" class="node"><title>realloc_and_move</title>
<polygon fill="lightgrey" stroke="none" points="661.25,-129.5 362.75,-129.5 362.75,-76.5 661.25,-76.5 661.25,-129.5"/>
<text text-anchor="middle" x="512" y="-114.3" font-family="'/usr/share/fonts/truetype/wqy/wqy-microhei.ttc'" font-size="14.00">为新元素分配内存</text>
<text text-anchor="middle" x="512" y="-99.3" font-family="'/usr/share/fonts/truetype/wqy/wqy-microhei.ttc'" font-size="14.00">并对 contents 数组中现有的元素进行移动，</text>
<text text-anchor="middle" x="512" y="-84.3" font-family="'/usr/share/fonts/truetype/wqy/wqy-microhei.ttc'" font-size="14.00">确保新元素会被放到有序数组正确的位置上</text>
</g>
<!-- value_exists&#45;&gt;realloc_and_move -->
<g id="edge5" class="edge"><title>value_exists&#45;&gt;realloc_and_move</title>
<path fill="none" stroke="black" stroke-width="2" d="M357.581,-208.408C384.321,-190.328 430.622,-159.023 465.568,-135.394"/>
<polygon fill="black" stroke="black" stroke-width="2" points="467.866,-138.066 474.19,-129.565 463.945,-132.267 467.866,-138.066"/>
<text text-anchor="middle" x="451.5" y="-152.3" font-family="Times,serif" font-size="14.00">否</text>
</g>
<!-- done -->
<g id="node7" class="node"><title>done</title>
<polygon fill="lightgrey" stroke="none" points="640.25,-38 383.75,-38 383.75,-0 640.25,-0 640.25,-38"/>
<text text-anchor="middle" x="512" y="-22.8" font-family="'/usr/share/fonts/truetype/wqy/wqy-microhei.ttc'" font-size="14.00">将新元素的值保存到 contents 数组中</text>
<text text-anchor="middle" x="512" y="-7.8" font-family="'/usr/share/fonts/truetype/wqy/wqy-microhei.ttc'" font-size="14.00">更新 length 计数器</text>
</g>
<!-- realloc_and_move&#45;&gt;done -->
<g id="edge6" class="edge"><title>realloc_and_move&#45;&gt;done</title>
<path fill="none" stroke="black" stroke-width="2" d="M512,-76.0547C512,-67.2189 512,-57.2999 512,-48.2897"/>
<polygon fill="black" stroke="black" stroke-width="2" points="515.5,-48.2493 512,-38.2494 508.5,-48.2494 515.5,-48.2493"/>
</g>
</g>
</svg>
