<?xml version="1.0" encoding="UTF-8" standalone="no"?>
<!DOCTYPE svg PUBLIC "-//W3C//DTD SVG 1.1//EN"
 "http://www.w3.org/Graphics/SVG/1.1/DTD/svg11.dtd">
<!-- Generated by graphviz version 2.36.0 (20140111.2315)
 -->
<!-- Title: send_message_to_pattern Pages: 1 -->
<svg width="668pt" height="294pt"
 viewBox="0.00 0.00 668.00 294.00" xmlns="http://www.w3.org/2000/svg" xmlns:xlink="http://www.w3.org/1999/xlink">
<g id="graph0" class="graph" transform="scale(1 1) rotate(0) translate(4 290)">
<title>send_message_to_pattern</title>
<polygon fill="white" stroke="none" points="-4,4 -4,-290 664,-290 664,4 -4,4"/>
<!-- ipad -->
<g id="node1" class="node"><title>ipad</title>
<ellipse fill="#a8e270" stroke="black" cx="207" cy="-194" rx="83.2892" ry="18"/>
<text text-anchor="middle" x="207" y="-190.3" font-family="'/usr/share/fonts/truetype/wqy/wqy-microhei.ttc'" font-size="14.00">tweet.shop.ipad</text>
</g>
<!-- pattern -->
<g id="node2" class="node"><title>pattern</title>
<polygon fill="lightgrey" stroke="black" points="473.912,-98.5442 473.912,-113.456 430.029,-124 367.971,-124 324.088,-113.456 324.088,-98.5442 367.971,-88 430.029,-88 473.912,-98.5442"/>
<text text-anchor="middle" x="399" y="-102.3" font-family="'/usr/share/fonts/truetype/wqy/wqy-microhei.ttc'" font-size="14.00">tweet.shop.*</text>
</g>
<!-- ipad&#45;&gt;pattern -->
<g id="edge1" class="edge"><title>ipad&#45;&gt;pattern</title>
<path fill="none" stroke="black" stroke-width="2" d="M260.67,-175.218C274.92,-170.069 290.184,-164.162 304,-158 326.567,-147.936 351.12,-134.691 369.61,-124.221"/>
<polygon fill="black" stroke="black" stroke-width="2" points="259.247,-172.009 250.996,-178.656 261.591,-178.605 259.247,-172.009"/>
<text text-anchor="middle" x="353" y="-146.3" font-family="Times,serif" font-size="14.00">match</text>
</g>
<!-- client3333 -->
<g id="node3" class="node"><title>client3333</title>
<polygon fill="#95bbe3" stroke="black" points="198,-124 108,-124 108,-88 198,-88 198,-124"/>
<text text-anchor="middle" x="153" y="-102.3" font-family="'/usr/share/fonts/truetype/wqy/wqy-microhei.ttc'" font-size="14.00">client3333</text>
</g>
<!-- ipad&#45;&gt;client3333 -->
<g id="edge2" class="edge"><title>ipad&#45;&gt;client3333</title>
<path fill="none" stroke="black" stroke-width="2" d="M190.9,-167.359C182.159,-153.438 171.586,-136.601 163.831,-124.25"/>
<polygon fill="black" stroke="black" stroke-width="2" points="188.049,-169.401 196.331,-176.009 193.978,-165.679 188.049,-169.401"/>
<text text-anchor="middle" x="211" y="-146.3" font-family="Times,serif" font-size="14.00">subscribe</text>
</g>
<!-- client4444 -->
<g id="node4" class="node"><title>client4444</title>
<polygon fill="#95bbe3" stroke="black" points="306,-124 216,-124 216,-88 306,-88 306,-124"/>
<text text-anchor="middle" x="261" y="-102.3" font-family="'/usr/share/fonts/truetype/wqy/wqy-microhei.ttc'" font-size="14.00">client4444</text>
</g>
<!-- ipad&#45;&gt;client4444 -->
<g id="edge3" class="edge"><title>ipad&#45;&gt;client4444</title>
<path fill="none" stroke="black" stroke-width="2" d="M231.188,-168.545C234.001,-165.14 236.687,-161.578 239,-158 245.806,-147.473 251.373,-134.486 255.204,-124.252"/>
<polygon fill="black" stroke="black" stroke-width="2" points="228.482,-166.322 224.508,-176.143 233.74,-170.944 228.482,-166.322"/>
<text text-anchor="middle" x="274" y="-146.3" font-family="Times,serif" font-size="14.00">subscribe</text>
</g>
<!-- client5555 -->
<g id="node5" class="node"><title>client5555</title>
<polygon fill="#95bbe3" stroke="black" points="90,-124 0,-124 0,-88 90,-88 90,-124"/>
<text text-anchor="middle" x="45" y="-102.3" font-family="'/usr/share/fonts/truetype/wqy/wqy-microhei.ttc'" font-size="14.00">client5555</text>
</g>
<!-- ipad&#45;&gt;client5555 -->
<g id="edge4" class="edge"><title>ipad&#45;&gt;client5555</title>
<path fill="none" stroke="black" stroke-width="2" d="M155.975,-174.603C143.949,-169.687 131.336,-164.044 120,-158 101.52,-148.147 81.9987,-134.766 67.5057,-124.183"/>
<polygon fill="black" stroke="black" stroke-width="2" points="154.873,-177.931 165.458,-178.382 157.465,-171.429 154.873,-177.931"/>
<text text-anchor="middle" x="146" y="-146.3" font-family="Times,serif" font-size="14.00">subscribe</text>
</g>
<!-- client123 -->
<g id="node10" class="node"><title>client123</title>
<polygon fill="#95bbe3" stroke="black" points="390.25,-36 309.75,-36 309.75,-0 390.25,-0 390.25,-36"/>
<text text-anchor="middle" x="350" y="-14.3" font-family="'/usr/share/fonts/truetype/wqy/wqy-microhei.ttc'" font-size="14.00">client123</text>
</g>
<!-- pattern&#45;&gt;client123 -->
<g id="edge9" class="edge"><title>pattern&#45;&gt;client123</title>
<path fill="none" stroke="#b22222" stroke-width="2" stroke-dasharray="5,2" d="M389.084,-87.5966C382.131,-75.3939 372.715,-58.867 364.867,-45.093"/>
<polygon fill="#b22222" stroke="#b22222" stroke-width="2" points="367.725,-43.04 359.734,-36.084 361.643,-46.5054 367.725,-43.04"/>
<text text-anchor="middle" x="402.5" y="-58.3" font-family="Times,serif" font-size="14.00">message</text>
</g>
<!-- client256 -->
<g id="node11" class="node"><title>client256</title>
<polygon fill="#95bbe3" stroke="black" points="489.25,-36 408.75,-36 408.75,-0 489.25,-0 489.25,-36"/>
<text text-anchor="middle" x="449" y="-14.3" font-family="'/usr/share/fonts/truetype/wqy/wqy-microhei.ttc'" font-size="14.00">client256</text>
</g>
<!-- pattern&#45;&gt;client256 -->
<g id="edge10" class="edge"><title>pattern&#45;&gt;client256</title>
<path fill="none" stroke="#b22222" stroke-width="2" stroke-dasharray="5,2" d="M414.211,-87.8674C418.66,-82.3829 423.313,-76.1367 427,-70 431.59,-62.3606 435.733,-53.59 439.154,-45.5006"/>
<polygon fill="#b22222" stroke="#b22222" stroke-width="2" points="442.453,-46.6763 442.95,-36.0931 435.962,-44.057 442.453,-46.6763"/>
<text text-anchor="middle" x="458.5" y="-58.3" font-family="Times,serif" font-size="14.00">message</text>
</g>
<!-- message -->
<g id="node6" class="node"><title>message</title>
<polygon fill="#fadcad" stroke="none" points="660,-286 390,-286 390,-250 660,-250 660,-286"/>
<text text-anchor="middle" x="525" y="-264.3" font-family="'/usr/share/fonts/truetype/wqy/wqy-microhei.ttc'" font-size="14.00">PUBLISH tweet.shop.kindle message</text>
</g>
<!-- kindle -->
<g id="node7" class="node"><title>kindle</title>
<ellipse fill="#a8e270" stroke="black" cx="525" cy="-194" rx="90.4879" ry="18"/>
<text text-anchor="middle" x="525" y="-190.3" font-family="'/usr/share/fonts/truetype/wqy/wqy-microhei.ttc'" font-size="14.00">tweet.shop.kindle</text>
</g>
<!-- message&#45;&gt;kindle -->
<g id="edge5" class="edge"><title>message&#45;&gt;kindle</title>
<path fill="none" stroke="#b22222" stroke-width="2" stroke-dasharray="5,2" d="M525,-249.937C525,-241.807 525,-231.876 525,-222.705"/>
<polygon fill="#b22222" stroke="#b22222" stroke-width="2" points="528.5,-222.441 525,-212.441 521.5,-222.441 528.5,-222.441"/>
</g>
<!-- kindle&#45;&gt;pattern -->
<g id="edge6" class="edge"><title>kindle&#45;&gt;pattern</title>
<path fill="none" stroke="#b22222" stroke-width="2" stroke-dasharray="5,2" d="M501.004,-176.622C481.675,-163.429 454.271,-144.725 432.734,-130.025"/>
<polygon fill="#b22222" stroke="#b22222" stroke-width="2" points="434.435,-126.948 424.202,-124.202 430.489,-132.73 434.435,-126.948"/>
</g>
<!-- clientX -->
<g id="node8" class="node"><title>clientX</title>
<polygon fill="#95bbe3" stroke="black" points="557.25,-124 492.75,-124 492.75,-88 557.25,-88 557.25,-124"/>
<text text-anchor="middle" x="525" y="-102.3" font-family="'/usr/share/fonts/truetype/wqy/wqy-microhei.ttc'" font-size="14.00">clientX</text>
</g>
<!-- kindle&#45;&gt;clientX -->
<g id="edge7" class="edge"><title>kindle&#45;&gt;clientX</title>
<path fill="none" stroke="#b22222" stroke-width="2" stroke-dasharray="5,2" d="M525,-175.597C525,-163.746 525,-147.817 525,-134.292"/>
<polygon fill="#b22222" stroke="#b22222" stroke-width="2" points="528.5,-134.084 525,-124.084 521.5,-134.084 528.5,-134.084"/>
<text text-anchor="middle" x="548.5" y="-146.3" font-family="Times,serif" font-size="14.00">message</text>
</g>
<!-- clientY -->
<g id="node9" class="node"><title>clientY</title>
<polygon fill="#95bbe3" stroke="black" points="638.25,-124 575.75,-124 575.75,-88 638.25,-88 638.25,-124"/>
<text text-anchor="middle" x="607" y="-102.3" font-family="'/usr/share/fonts/truetype/wqy/wqy-microhei.ttc'" font-size="14.00">clientY</text>
</g>
<!-- kindle&#45;&gt;clientY -->
<g id="edge8" class="edge"><title>kindle&#45;&gt;clientY</title>
<path fill="none" stroke="#b22222" stroke-width="2" stroke-dasharray="5,2" d="M553.143,-176.792C561.082,-171.43 569.357,-165.02 576,-158 582.903,-150.704 589.024,-141.621 593.964,-133.15"/>
<polygon fill="#b22222" stroke="#b22222" stroke-width="2" points="597.074,-134.758 598.843,-124.312 590.946,-131.375 597.074,-134.758"/>
<text text-anchor="middle" x="611.5" y="-146.3" font-family="Times,serif" font-size="14.00">message</text>
</g>
</g>
</svg>
