<?xml version="1.0" encoding="UTF-8" standalone="no"?>
<!DOCTYPE svg PUBLIC "-//W3C//DTD SVG 1.1//EN"
 "http://www.w3.org/Graphics/SVG/1.1/DTD/svg11.dtd">
<!-- Generated by graphviz version 2.36.0 (20140111.2315)
 -->
<!-- Title: propagate Pages: 1 -->
<svg width="339pt" height="540pt"
 viewBox="0.00 0.00 339.00 540.00" xmlns="http://www.w3.org/2000/svg" xmlns:xlink="http://www.w3.org/1999/xlink">
<g id="graph0" class="graph" transform="scale(1 1) rotate(0) translate(4 536)">
<title>propagate</title>
<polygon fill="white" stroke="none" points="-4,4 -4,-536 335,-536 335,4 -4,4"/>
<!-- exec -->
<g id="node1" class="node"><title>exec</title>
<polygon fill="#fadcad" stroke="none" points="275.5,-532 174.5,-532 174.5,-496 275.5,-496 275.5,-532"/>
<text text-anchor="middle" x="225" y="-510.3" font-family="'/usr/share/fonts/truetype/wqy/wqy-microhei.ttc'" font-size="14.00">命令执行成功</text>
</g>
<!-- aof_choice -->
<g id="node2" class="node"><title>aof_choice</title>
<polygon fill="#95bbe3" stroke="black" points="225,-458 118.5,-420 225,-382 331.5,-420 225,-458"/>
<text text-anchor="middle" x="225" y="-423.8" font-family="'/usr/share/fonts/truetype/wqy/wqy-microhei.ttc'" font-size="14.00">AOF</text>
<text text-anchor="middle" x="225" y="-408.8" font-family="'/usr/share/fonts/truetype/wqy/wqy-microhei.ttc'" font-size="14.00"> 功能已打开？</text>
</g>
<!-- exec&#45;&gt;aof_choice -->
<g id="edge1" class="edge"><title>exec&#45;&gt;aof_choice</title>
<path fill="none" stroke="black" stroke-width="2" d="M225,-495.696C225,-487.815 225,-478.063 225,-468.236"/>
<polygon fill="black" stroke="black" stroke-width="2" points="228.5,-468.043 225,-458.043 221.5,-468.043 228.5,-468.043"/>
</g>
<!-- propagate_aof -->
<g id="node3" class="node"><title>propagate_aof</title>
<polygon fill="#a8e270" stroke="none" points="217.25,-330 62.75,-330 62.75,-294 217.25,-294 217.25,-330"/>
<text text-anchor="middle" x="140" y="-308.3" font-family="'/usr/share/fonts/truetype/wqy/wqy-microhei.ttc'" font-size="14.00">传播命令到 AOF 程序</text>
</g>
<!-- aof_choice&#45;&gt;propagate_aof -->
<g id="edge2" class="edge"><title>aof_choice&#45;&gt;propagate_aof</title>
<path fill="none" stroke="black" stroke-width="2" d="M201.773,-390.035C188.751,-373.795 172.665,-353.735 160.173,-338.157"/>
<polygon fill="black" stroke="black" stroke-width="2" points="162.631,-335.628 153.645,-330.016 157.17,-340.007 162.631,-335.628"/>
<text text-anchor="middle" x="187.5" y="-352.3" font-family="Times,serif" font-size="14.00">是</text>
</g>
<!-- replication_choice -->
<g id="node4" class="node"><title>replication_choice</title>
<polygon fill="#95bbe3" stroke="black" points="219,-256 108.5,-218 219,-180 329.5,-218 219,-256"/>
<text text-anchor="middle" x="219" y="-221.8" font-family="'/usr/share/fonts/truetype/wqy/wqy-microhei.ttc'" font-size="14.00">REPLICATION</text>
<text text-anchor="middle" x="219" y="-206.8" font-family="'/usr/share/fonts/truetype/wqy/wqy-microhei.ttc'" font-size="14.00"> 功能已打开？</text>
</g>
<!-- aof_choice&#45;&gt;replication_choice -->
<g id="edge4" class="edge"><title>aof_choice&#45;&gt;replication_choice</title>
<path fill="none" stroke="black" stroke-width="2" d="M226.344,-382.333C226.999,-357.41 227.383,-323.7 226,-294 225.562,-284.599 224.817,-274.556 223.973,-264.975"/>
<polygon fill="black" stroke="black" stroke-width="2" points="227.439,-264.445 223.027,-254.813 220.469,-265.094 227.439,-264.445"/>
<text text-anchor="middle" x="234.5" y="-308.3" font-family="Times,serif" font-size="14.00">否</text>
</g>
<!-- propagate_aof&#45;&gt;replication_choice -->
<g id="edge3" class="edge"><title>propagate_aof&#45;&gt;replication_choice</title>
<path fill="none" stroke="black" stroke-width="2" d="M154.859,-293.696C164.125,-282.905 176.403,-268.606 187.735,-255.41"/>
<polygon fill="black" stroke="black" stroke-width="2" points="190.409,-257.669 194.268,-247.802 185.098,-253.108 190.409,-257.669"/>
</g>
<!-- propagate_replication -->
<g id="node5" class="node"><title>propagate_replication</title>
<polygon fill="#a8e270" stroke="none" points="220,-128 0,-128 0,-92 220,-92 220,-128"/>
<text text-anchor="middle" x="110" y="-106.3" font-family="'/usr/share/fonts/truetype/wqy/wqy-microhei.ttc'" font-size="14.00">传播命令到 REPLICATION 程序</text>
</g>
<!-- replication_choice&#45;&gt;propagate_replication -->
<g id="edge6" class="edge"><title>replication_choice&#45;&gt;propagate_replication</title>
<path fill="none" stroke="black" stroke-width="2" d="M190.646,-189.426C173.361,-172.617 151.476,-151.335 134.868,-135.183"/>
<polygon fill="black" stroke="black" stroke-width="2" points="137.253,-132.62 127.643,-128.158 132.372,-137.639 137.253,-132.62"/>
<text text-anchor="middle" x="169.5" y="-150.3" font-family="Times,serif" font-size="14.00">是</text>
</g>
<!-- remaind_jobs -->
<g id="node6" class="node"><title>remaind_jobs</title>
<polygon fill="#fadcad" stroke="none" points="270.5,-53.5 155.5,-53.5 155.5,-0.5 270.5,-0.5 270.5,-53.5"/>
<text text-anchor="middle" x="213" y="-38.3" font-family="'/usr/share/fonts/truetype/wqy/wqy-microhei.ttc'" font-size="14.00">处理后续步骤：</text>
<text text-anchor="middle" x="213" y="-23.3" font-family="'/usr/share/fonts/truetype/wqy/wqy-microhei.ttc'" font-size="14.00">清理资源、</text>
<text text-anchor="middle" x="213" y="-8.3" font-family="'/usr/share/fonts/truetype/wqy/wqy-microhei.ttc'" font-size="14.00">等等</text>
</g>
<!-- replication_choice&#45;&gt;remaind_jobs -->
<g id="edge5" class="edge"><title>replication_choice&#45;&gt;remaind_jobs</title>
<path fill="none" stroke="black" stroke-width="2" d="M225.552,-182.165C229.36,-157.046 232.737,-122.359 229,-92 227.839,-82.567 225.749,-72.5245 223.455,-63.2589"/>
<polygon fill="black" stroke="black" stroke-width="2" points="226.838,-62.3627 220.92,-53.5753 220.067,-64.1357 226.838,-62.3627"/>
<text text-anchor="middle" x="238.5" y="-106.3" font-family="Times,serif" font-size="14.00">否</text>
</g>
<!-- propagate_replication&#45;&gt;remaind_jobs -->
<g id="edge7" class="edge"><title>propagate_replication&#45;&gt;remaind_jobs</title>
<path fill="none" stroke="black" stroke-width="2" d="M131.844,-91.822C143.592,-82.5828 158.464,-70.8871 172.259,-60.0392"/>
<polygon fill="black" stroke="black" stroke-width="2" points="174.527,-62.7078 180.224,-53.775 170.2,-57.2054 174.527,-62.7078"/>
</g>
</g>
</svg>
