<?xml version="1.0" encoding="UTF-8" standalone="no"?>
<!DOCTYPE svg PUBLIC "-//W3C//DTD SVG 1.1//EN"
 "http://www.w3.org/Graphics/SVG/1.1/DTD/svg11.dtd">
<!-- Generated by graphviz version 2.36.0 (20140111.2315)
 -->
<!-- Title: rehash_step_one Pages: 1 -->
<svg width="698pt" height="682pt"
 viewBox="0.00 0.00 698.00 682.00" xmlns="http://www.w3.org/2000/svg" xmlns:xlink="http://www.w3.org/1999/xlink">
<g id="graph0" class="graph" transform="scale(1 1) rotate(0) translate(4 678)">
<title>rehash_step_one</title>
<polygon fill="white" stroke="none" points="-4,4 -4,-678 694,-678 694,4 -4,4"/>
<!-- dict -->
<g id="node1" class="node"><title>dict</title>
<polygon fill="#a8e270" stroke="black" points="0,-473 0,-611 102,-611 102,-473 0,-473"/>
<text text-anchor="middle" x="51" y="-595.8" font-family="'/usr/share/fonts/truetype/wqy/wqy-microhei.ttc'" font-size="14.00">dict</text>
<polyline fill="none" stroke="black" points="0,-588 102,-588 "/>
<text text-anchor="middle" x="51" y="-572.8" font-family="'/usr/share/fonts/truetype/wqy/wqy-microhei.ttc'" font-size="14.00">type</text>
<polyline fill="none" stroke="black" points="0,-565 102,-565 "/>
<text text-anchor="middle" x="51" y="-549.8" font-family="'/usr/share/fonts/truetype/wqy/wqy-microhei.ttc'" font-size="14.00">privdata</text>
<polyline fill="none" stroke="black" points="0,-542 102,-542 "/>
<text text-anchor="middle" x="51" y="-526.8" font-family="'/usr/share/fonts/truetype/wqy/wqy-microhei.ttc'" font-size="14.00">ht[2]</text>
<polyline fill="none" stroke="black" points="0,-519 102,-519 "/>
<text text-anchor="middle" x="51" y="-503.8" font-family="'/usr/share/fonts/truetype/wqy/wqy-microhei.ttc'" font-size="14.00">rehashidx: 0</text>
<polyline fill="none" stroke="black" points="0,-496 102,-496 "/>
<text text-anchor="middle" x="51" y="-480.8" font-family="'/usr/share/fonts/truetype/wqy/wqy-microhei.ttc'" font-size="14.00">iterators</text>
</g>
<!-- ht0 -->
<g id="node2" class="node"><title>ht0</title>
<polygon fill="#95bbe3" stroke="black" points="166,-485.5 166,-600.5 264,-600.5 264,-485.5 166,-485.5"/>
<text text-anchor="middle" x="215" y="-585.3" font-family="'/usr/share/fonts/truetype/wqy/wqy-microhei.ttc'" font-size="14.00">dictht</text>
<polyline fill="none" stroke="black" points="166,-577.5 264,-577.5 "/>
<text text-anchor="middle" x="215" y="-562.3" font-family="'/usr/share/fonts/truetype/wqy/wqy-microhei.ttc'" font-size="14.00">table</text>
<polyline fill="none" stroke="black" points="166,-554.5 264,-554.5 "/>
<text text-anchor="middle" x="215" y="-539.3" font-family="'/usr/share/fonts/truetype/wqy/wqy-microhei.ttc'" font-size="14.00">size: 4</text>
<polyline fill="none" stroke="black" points="166,-531.5 264,-531.5 "/>
<text text-anchor="middle" x="215" y="-516.3" font-family="'/usr/share/fonts/truetype/wqy/wqy-microhei.ttc'" font-size="14.00">sizemask: 3</text>
<polyline fill="none" stroke="black" points="166,-508.5 264,-508.5 "/>
<text text-anchor="middle" x="215" y="-493.3" font-family="'/usr/share/fonts/truetype/wqy/wqy-microhei.ttc'" font-size="14.00">used: 4</text>
</g>
<!-- dict&#45;&gt;ht0 -->
<g id="edge1" class="edge"><title>dict:ht&#45;&gt;ht0:dictht</title>
<path fill="none" stroke="black" stroke-width="2" d="M102,-530C136.909,-530 129.429,-578.039 156.058,-587.422"/>
<polygon fill="black" stroke="black" stroke-width="2" points="155.575,-590.889 166,-589 156.672,-583.975 155.575,-590.889"/>
<text text-anchor="middle" x="134" y="-584.8" font-family="Times,serif" font-size="14.00">ht[0]</text>
</g>
<!-- ht1 -->
<g id="node3" class="node"><title>ht1</title>
<polygon fill="#95bbe3" stroke="black" points="166,-342.5 166,-457.5 264,-457.5 264,-342.5 166,-342.5"/>
<text text-anchor="middle" x="215" y="-442.3" font-family="'/usr/share/fonts/truetype/wqy/wqy-microhei.ttc'" font-size="14.00">dictht</text>
<polyline fill="none" stroke="black" points="166,-434.5 264,-434.5 "/>
<text text-anchor="middle" x="215" y="-419.3" font-family="'/usr/share/fonts/truetype/wqy/wqy-microhei.ttc'" font-size="14.00">table</text>
<polyline fill="none" stroke="black" points="166,-411.5 264,-411.5 "/>
<text text-anchor="middle" x="215" y="-396.3" font-family="'/usr/share/fonts/truetype/wqy/wqy-microhei.ttc'" font-size="14.00">size: 8</text>
<polyline fill="none" stroke="black" points="166,-388.5 264,-388.5 "/>
<text text-anchor="middle" x="215" y="-373.3" font-family="'/usr/share/fonts/truetype/wqy/wqy-microhei.ttc'" font-size="14.00">sizemask: 7</text>
<polyline fill="none" stroke="black" points="166,-365.5 264,-365.5 "/>
<text text-anchor="middle" x="215" y="-350.3" font-family="'/usr/share/fonts/truetype/wqy/wqy-microhei.ttc'" font-size="14.00">used: 0</text>
</g>
<!-- dict&#45;&gt;ht1 -->
<g id="edge2" class="edge"><title>dict:ht&#45;&gt;ht1:dictht</title>
<path fill="none" stroke="black" stroke-width="2" d="M102,-530C122.259,-530 137.747,-467.399 156.701,-450.281"/>
<polygon fill="black" stroke="black" stroke-width="2" points="158.38,-453.361 166,-446 155.453,-447.003 158.38,-453.361"/>
<text text-anchor="middle" x="134" y="-517.8" font-family="Times,serif" font-size="14.00">ht[1]</text>
</g>
<!-- bucket -->
<g id="node4" class="node"><title>bucket</title>
<polygon fill="#f2f2f2" stroke="black" points="302.5,-499 302.5,-629 397.5,-629 397.5,-499 302.5,-499"/>
<text text-anchor="middle" x="350" y="-613.8" font-family="'/usr/share/fonts/truetype/wqy/wqy-microhei.ttc'" font-size="14.00">dictEntry**</text>
<text text-anchor="middle" x="350" y="-598.8" font-family="'/usr/share/fonts/truetype/wqy/wqy-microhei.ttc'" font-size="14.00">(bucket)</text>
<polyline fill="none" stroke="black" points="302.5,-591 397.5,-591 "/>
<text text-anchor="middle" x="350" y="-575.8" font-family="'/usr/share/fonts/truetype/wqy/wqy-microhei.ttc'" font-size="14.00">0</text>
<polyline fill="none" stroke="black" points="302.5,-568 397.5,-568 "/>
<text text-anchor="middle" x="350" y="-552.8" font-family="'/usr/share/fonts/truetype/wqy/wqy-microhei.ttc'" font-size="14.00">1</text>
<polyline fill="none" stroke="black" points="302.5,-545 397.5,-545 "/>
<text text-anchor="middle" x="350" y="-529.8" font-family="'/usr/share/fonts/truetype/wqy/wqy-microhei.ttc'" font-size="14.00">2</text>
<polyline fill="none" stroke="black" points="302.5,-522 397.5,-522 "/>
<text text-anchor="middle" x="350" y="-506.8" font-family="'/usr/share/fonts/truetype/wqy/wqy-microhei.ttc'" font-size="14.00">3</text>
</g>
<!-- ht0&#45;&gt;bucket -->
<g id="edge3" class="edge"><title>ht0:table&#45;&gt;bucket:head</title>
<path fill="none" stroke="black" stroke-width="2" d="M264,-566C285.6,-566 279.585,-596.747 292.124,-606.836"/>
<polygon fill="black" stroke="black" stroke-width="2" points="291.409,-610.282 302,-610 293.545,-603.615 291.409,-610.282"/>
</g>
<!-- bucket1 -->
<g id="node5" class="node"><title>bucket1</title>
<polygon fill="#f2f2f2" stroke="black" points="302.5,-131 302.5,-353 397.5,-353 397.5,-131 302.5,-131"/>
<text text-anchor="middle" x="350" y="-337.8" font-family="'/usr/share/fonts/truetype/wqy/wqy-microhei.ttc'" font-size="14.00">dictEntry**</text>
<text text-anchor="middle" x="350" y="-322.8" font-family="'/usr/share/fonts/truetype/wqy/wqy-microhei.ttc'" font-size="14.00">(bucket)</text>
<polyline fill="none" stroke="black" points="302.5,-315 397.5,-315 "/>
<text text-anchor="middle" x="350" y="-299.8" font-family="'/usr/share/fonts/truetype/wqy/wqy-microhei.ttc'" font-size="14.00">0</text>
<polyline fill="none" stroke="black" points="302.5,-292 397.5,-292 "/>
<text text-anchor="middle" x="350" y="-276.8" font-family="'/usr/share/fonts/truetype/wqy/wqy-microhei.ttc'" font-size="14.00">1</text>
<polyline fill="none" stroke="black" points="302.5,-269 397.5,-269 "/>
<text text-anchor="middle" x="350" y="-253.8" font-family="'/usr/share/fonts/truetype/wqy/wqy-microhei.ttc'" font-size="14.00">2</text>
<polyline fill="none" stroke="black" points="302.5,-246 397.5,-246 "/>
<text text-anchor="middle" x="350" y="-230.8" font-family="'/usr/share/fonts/truetype/wqy/wqy-microhei.ttc'" font-size="14.00">3</text>
<polyline fill="none" stroke="black" points="302.5,-223 397.5,-223 "/>
<text text-anchor="middle" x="350" y="-207.8" font-family="'/usr/share/fonts/truetype/wqy/wqy-microhei.ttc'" font-size="14.00">4</text>
<polyline fill="none" stroke="black" points="302.5,-200 397.5,-200 "/>
<text text-anchor="middle" x="350" y="-184.8" font-family="'/usr/share/fonts/truetype/wqy/wqy-microhei.ttc'" font-size="14.00">5</text>
<polyline fill="none" stroke="black" points="302.5,-177 397.5,-177 "/>
<text text-anchor="middle" x="350" y="-161.8" font-family="'/usr/share/fonts/truetype/wqy/wqy-microhei.ttc'" font-size="14.00">6</text>
<polyline fill="none" stroke="black" points="302.5,-154 397.5,-154 "/>
<text text-anchor="middle" x="350" y="-138.8" font-family="'/usr/share/fonts/truetype/wqy/wqy-microhei.ttc'" font-size="14.00">7</text>
</g>
<!-- ht1&#45;&gt;bucket1 -->
<g id="edge4" class="edge"><title>ht1:table&#45;&gt;bucket1:head</title>
<path fill="none" stroke="black" stroke-width="2" d="M264,-423C302.978,-423 267.194,-349.905 292.154,-336.2"/>
<polygon fill="black" stroke="black" stroke-width="2" points="293.004,-339.596 302,-334 291.477,-332.765 293.004,-339.596"/>
</g>
<!-- pair_1 -->
<g id="node6" class="node"><title>pair_1</title>
<polygon fill="#fadcad" stroke="black" points="436.5,-628 436.5,-674 597.5,-674 597.5,-628 436.5,-628"/>
<text text-anchor="middle" x="517" y="-658.8" font-family="'/usr/share/fonts/truetype/wqy/wqy-microhei.ttc'" font-size="14.00">dictEntry</text>
<polyline fill="none" stroke="black" points="436.5,-651 597.5,-651 "/>
<text text-anchor="middle" x="461.5" y="-635.8" font-family="'/usr/share/fonts/truetype/wqy/wqy-microhei.ttc'" font-size="14.00">key1</text>
<polyline fill="none" stroke="black" points="486.5,-628 486.5,-651 "/>
<text text-anchor="middle" x="518" y="-635.8" font-family="'/usr/share/fonts/truetype/wqy/wqy-microhei.ttc'" font-size="14.00">value1</text>
<polyline fill="none" stroke="black" points="549.5,-628 549.5,-651 "/>
<text text-anchor="middle" x="573.5" y="-635.8" font-family="'/usr/share/fonts/truetype/wqy/wqy-microhei.ttc'" font-size="14.00">next</text>
</g>
<!-- bucket&#45;&gt;pair_1 -->
<g id="edge5" class="edge"><title>bucket:table0&#45;&gt;pair_1:head</title>
<path fill="none" stroke="black" stroke-width="2" d="M398,-580C434.451,-580 403.329,-646.997 426.054,-660.605"/>
<polygon fill="black" stroke="black" stroke-width="2" points="425.459,-664.062 436,-663 427.097,-657.257 425.459,-664.062"/>
</g>
<!-- pair_2 -->
<g id="node7" class="node"><title>pair_2</title>
<polygon fill="#fadcad" stroke="black" points="436.5,-498 436.5,-544 597.5,-544 597.5,-498 436.5,-498"/>
<text text-anchor="middle" x="517" y="-528.8" font-family="'/usr/share/fonts/truetype/wqy/wqy-microhei.ttc'" font-size="14.00">dictEntry</text>
<polyline fill="none" stroke="black" points="436.5,-521 597.5,-521 "/>
<text text-anchor="middle" x="461.5" y="-505.8" font-family="'/usr/share/fonts/truetype/wqy/wqy-microhei.ttc'" font-size="14.00">key2</text>
<polyline fill="none" stroke="black" points="486.5,-498 486.5,-521 "/>
<text text-anchor="middle" x="518" y="-505.8" font-family="'/usr/share/fonts/truetype/wqy/wqy-microhei.ttc'" font-size="14.00">value2</text>
<polyline fill="none" stroke="black" points="549.5,-498 549.5,-521 "/>
<text text-anchor="middle" x="573.5" y="-505.8" font-family="'/usr/share/fonts/truetype/wqy/wqy-microhei.ttc'" font-size="14.00">next</text>
</g>
<!-- bucket&#45;&gt;pair_2 -->
<g id="edge9" class="edge"><title>bucket:table2&#45;&gt;pair_2:head</title>
<path fill="none" stroke="black" stroke-width="2" d="M398,-533C410.931,-533 416.436,-533 425.886,-533"/>
<polygon fill="black" stroke="black" stroke-width="2" points="426,-536.5 436,-533 426,-529.5 426,-536.5"/>
</g>
<!-- pair_3 -->
<g id="node8" class="node"><title>pair_3</title>
<polygon fill="#fadcad" stroke="black" points="436.5,-433 436.5,-479 597.5,-479 597.5,-433 436.5,-433"/>
<text text-anchor="middle" x="517" y="-463.8" font-family="'/usr/share/fonts/truetype/wqy/wqy-microhei.ttc'" font-size="14.00">dictEntry</text>
<polyline fill="none" stroke="black" points="436.5,-456 597.5,-456 "/>
<text text-anchor="middle" x="461.5" y="-440.8" font-family="'/usr/share/fonts/truetype/wqy/wqy-microhei.ttc'" font-size="14.00">key3</text>
<polyline fill="none" stroke="black" points="486.5,-433 486.5,-456 "/>
<text text-anchor="middle" x="518" y="-440.8" font-family="'/usr/share/fonts/truetype/wqy/wqy-microhei.ttc'" font-size="14.00">value3</text>
<polyline fill="none" stroke="black" points="549.5,-433 549.5,-456 "/>
<text text-anchor="middle" x="573.5" y="-440.8" font-family="'/usr/share/fonts/truetype/wqy/wqy-microhei.ttc'" font-size="14.00">next</text>
</g>
<!-- bucket&#45;&gt;pair_3 -->
<g id="edge11" class="edge"><title>bucket:table3&#45;&gt;pair_3:head</title>
<path fill="none" stroke="black" stroke-width="2" d="M398,-510C419.043,-510 413.868,-480.651 426.308,-471.021"/>
<polygon fill="black" stroke="black" stroke-width="2" points="427.494,-474.317 436,-468 425.411,-467.634 427.494,-474.317"/>
</g>
<!-- pair_4 -->
<g id="node9" class="node"><title>pair_4</title>
<polygon fill="#fadcad" stroke="black" points="436.5,-563 436.5,-609 597.5,-609 597.5,-563 436.5,-563"/>
<text text-anchor="middle" x="517" y="-593.8" font-family="'/usr/share/fonts/truetype/wqy/wqy-microhei.ttc'" font-size="14.00">dictEntry</text>
<polyline fill="none" stroke="black" points="436.5,-586 597.5,-586 "/>
<text text-anchor="middle" x="461.5" y="-570.8" font-family="'/usr/share/fonts/truetype/wqy/wqy-microhei.ttc'" font-size="14.00">key4</text>
<polyline fill="none" stroke="black" points="486.5,-563 486.5,-586 "/>
<text text-anchor="middle" x="518" y="-570.8" font-family="'/usr/share/fonts/truetype/wqy/wqy-microhei.ttc'" font-size="14.00">value4</text>
<polyline fill="none" stroke="black" points="549.5,-563 549.5,-586 "/>
<text text-anchor="middle" x="573.5" y="-570.8" font-family="'/usr/share/fonts/truetype/wqy/wqy-microhei.ttc'" font-size="14.00">next</text>
</g>
<!-- bucket&#45;&gt;pair_4 -->
<g id="edge7" class="edge"><title>bucket:table1&#45;&gt;pair_4:head</title>
<path fill="none" stroke="black" stroke-width="2" d="M398,-556C419.043,-556 413.868,-585.349 426.308,-594.979"/>
<polygon fill="black" stroke="black" stroke-width="2" points="425.411,-598.366 436,-598 427.494,-591.683 425.411,-598.366"/>
</g>
<!-- null10 -->
<g id="node14" class="node"><title>null10</title>
<polygon fill="lightgrey" stroke="none" points="544,-414 490,-414 490,-378 544,-378 544,-414"/>
<text text-anchor="middle" x="517" y="-392.3" font-family="'/usr/share/fonts/truetype/wqy/wqy-microhei.ttc'" font-size="14.00">NULL</text>
</g>
<!-- bucket1&#45;&gt;null10 -->
<g id="edge13" class="edge"><title>bucket1:table0&#45;&gt;null10</title>
<path fill="none" stroke="black" stroke-width="2" d="M398,-304C431.463,-304 410.056,-347.864 436,-369 448.558,-379.231 465.18,-385.66 480.018,-389.663"/>
<polygon fill="black" stroke="black" stroke-width="2" points="479.39,-393.112 489.933,-392.064 481.038,-386.309 479.39,-393.112"/>
</g>
<!-- null11 -->
<g id="node15" class="node"><title>null11</title>
<polygon fill="lightgrey" stroke="none" points="544,-360 490,-360 490,-324 544,-324 544,-360"/>
<text text-anchor="middle" x="517" y="-338.3" font-family="'/usr/share/fonts/truetype/wqy/wqy-microhei.ttc'" font-size="14.00">NULL</text>
</g>
<!-- bucket1&#45;&gt;null11 -->
<g id="edge14" class="edge"><title>bucket1:table1&#45;&gt;null11</title>
<path fill="none" stroke="black" stroke-width="2" d="M398,-281C420.662,-281 416.42,-303.588 436,-315 449.452,-322.84 465.514,-328.823 479.703,-333.139"/>
<polygon fill="black" stroke="black" stroke-width="2" points="479.063,-336.597 489.641,-335.99 480.994,-329.868 479.063,-336.597"/>
</g>
<!-- null12 -->
<g id="node16" class="node"><title>null12</title>
<polygon fill="lightgrey" stroke="none" points="544,-306 490,-306 490,-270 544,-270 544,-306"/>
<text text-anchor="middle" x="517" y="-284.3" font-family="'/usr/share/fonts/truetype/wqy/wqy-microhei.ttc'" font-size="14.00">NULL</text>
</g>
<!-- bucket1&#45;&gt;null12 -->
<g id="edge15" class="edge"><title>bucket1:table2&#45;&gt;null12</title>
<path fill="none" stroke="black" stroke-width="2" d="M398,-258C426.172,-258 456.993,-266.131 480.069,-273.927"/>
<polygon fill="black" stroke="black" stroke-width="2" points="479.177,-277.323 489.771,-277.339 481.499,-270.72 479.177,-277.323"/>
</g>
<!-- null13 -->
<g id="node17" class="node"><title>null13</title>
<polygon fill="lightgrey" stroke="none" points="544,-252 490,-252 490,-216 544,-216 544,-252"/>
<text text-anchor="middle" x="517" y="-230.3" font-family="'/usr/share/fonts/truetype/wqy/wqy-microhei.ttc'" font-size="14.00">NULL</text>
</g>
<!-- bucket1&#45;&gt;null13 -->
<g id="edge16" class="edge"><title>bucket1:table3&#45;&gt;null13</title>
<path fill="none" stroke="black" stroke-width="2" d="M398,-234C425.359,-234 456.285,-234 479.612,-234"/>
<polygon fill="black" stroke="black" stroke-width="2" points="479.755,-237.5 489.755,-234 479.755,-230.5 479.755,-237.5"/>
</g>
<!-- null14 -->
<g id="node18" class="node"><title>null14</title>
<polygon fill="lightgrey" stroke="none" points="544,-198 490,-198 490,-162 544,-162 544,-198"/>
<text text-anchor="middle" x="517" y="-176.3" font-family="'/usr/share/fonts/truetype/wqy/wqy-microhei.ttc'" font-size="14.00">NULL</text>
</g>
<!-- bucket1&#45;&gt;null14 -->
<g id="edge17" class="edge"><title>bucket1:table4&#45;&gt;null14</title>
<path fill="none" stroke="black" stroke-width="2" d="M398,-211C426.23,-211 457.049,-202.598 480.109,-194.542"/>
<polygon fill="black" stroke="black" stroke-width="2" points="481.602,-197.723 489.804,-191.017 479.21,-191.145 481.602,-197.723"/>
</g>
<!-- null15 -->
<g id="node19" class="node"><title>null15</title>
<polygon fill="lightgrey" stroke="none" points="544,-144 490,-144 490,-108 544,-108 544,-144"/>
<text text-anchor="middle" x="517" y="-122.3" font-family="'/usr/share/fonts/truetype/wqy/wqy-microhei.ttc'" font-size="14.00">NULL</text>
</g>
<!-- bucket1&#45;&gt;null15 -->
<g id="edge18" class="edge"><title>bucket1:table5&#45;&gt;null15</title>
<path fill="none" stroke="black" stroke-width="2" d="M398,-188C420.961,-188 416.246,-164.705 436,-153 449.497,-145.003 465.69,-138.973 479.967,-134.664"/>
<polygon fill="black" stroke="black" stroke-width="2" points="481.295,-137.925 489.958,-131.827 479.383,-131.192 481.295,-137.925"/>
</g>
<!-- null16 -->
<g id="node20" class="node"><title>null16</title>
<polygon fill="lightgrey" stroke="none" points="544,-90 490,-90 490,-54 544,-54 544,-90"/>
<text text-anchor="middle" x="517" y="-68.3" font-family="'/usr/share/fonts/truetype/wqy/wqy-microhei.ttc'" font-size="14.00">NULL</text>
</g>
<!-- bucket1&#45;&gt;null16 -->
<g id="edge19" class="edge"><title>bucket1:table6&#45;&gt;null16</title>
<path fill="none" stroke="black" stroke-width="2" d="M398,-165C431.848,-165 409.829,-120.466 436,-99 448.524,-88.7278 465.141,-82.2929 479.985,-78.2965"/>
<polygon fill="black" stroke="black" stroke-width="2" points="481.006,-81.6506 489.906,-75.9022 479.364,-74.846 481.006,-81.6506"/>
</g>
<!-- null17 -->
<g id="node21" class="node"><title>null17</title>
<polygon fill="lightgrey" stroke="none" points="544,-36 490,-36 490,-0 544,-0 544,-36"/>
<text text-anchor="middle" x="517" y="-14.3" font-family="'/usr/share/fonts/truetype/wqy/wqy-microhei.ttc'" font-size="14.00">NULL</text>
</g>
<!-- bucket1&#45;&gt;null17 -->
<g id="edge20" class="edge"><title>bucket1:table7&#45;&gt;null17</title>
<path fill="none" stroke="black" stroke-width="2" d="M398,-142C444.301,-142 402.486,-76.9468 436,-45 447.811,-33.7418 464.475,-27.1693 479.54,-23.3362"/>
<polygon fill="black" stroke="black" stroke-width="2" points="480.63,-26.6795 489.635,-21.0963 479.114,-19.8458 480.63,-26.6795"/>
</g>
<!-- null0 -->
<g id="node10" class="node"><title>null0</title>
<polygon fill="lightgrey" stroke="none" points="690,-657 636,-657 636,-621 690,-621 690,-657"/>
<text text-anchor="middle" x="663" y="-635.3" font-family="'/usr/share/fonts/truetype/wqy/wqy-microhei.ttc'" font-size="14.00">NULL</text>
</g>
<!-- pair_1&#45;&gt;null0 -->
<g id="edge6" class="edge"><title>pair_1:next&#45;&gt;null0</title>
<path fill="none" stroke="black" stroke-width="2" d="M598,-639C606.944,-639 616.592,-639 625.616,-639"/>
<polygon fill="black" stroke="black" stroke-width="2" points="625.844,-642.5 635.844,-639 625.844,-635.5 625.844,-642.5"/>
</g>
<!-- null2 -->
<g id="node12" class="node"><title>null2</title>
<polygon fill="lightgrey" stroke="none" points="690,-527 636,-527 636,-491 690,-491 690,-527"/>
<text text-anchor="middle" x="663" y="-505.3" font-family="'/usr/share/fonts/truetype/wqy/wqy-microhei.ttc'" font-size="14.00">NULL</text>
</g>
<!-- pair_2&#45;&gt;null2 -->
<g id="edge10" class="edge"><title>pair_2:next&#45;&gt;null2</title>
<path fill="none" stroke="black" stroke-width="2" d="M598,-509C606.944,-509 616.592,-509 625.616,-509"/>
<polygon fill="black" stroke="black" stroke-width="2" points="625.844,-512.5 635.844,-509 625.844,-505.5 625.844,-512.5"/>
</g>
<!-- null3 -->
<g id="node13" class="node"><title>null3</title>
<polygon fill="lightgrey" stroke="none" points="690,-462 636,-462 636,-426 690,-426 690,-462"/>
<text text-anchor="middle" x="663" y="-440.3" font-family="'/usr/share/fonts/truetype/wqy/wqy-microhei.ttc'" font-size="14.00">NULL</text>
</g>
<!-- pair_3&#45;&gt;null3 -->
<g id="edge12" class="edge"><title>pair_3:next&#45;&gt;null3</title>
<path fill="none" stroke="black" stroke-width="2" d="M598,-444C606.944,-444 616.592,-444 625.616,-444"/>
<polygon fill="black" stroke="black" stroke-width="2" points="625.844,-447.5 635.844,-444 625.844,-440.5 625.844,-447.5"/>
</g>
<!-- null1 -->
<g id="node11" class="node"><title>null1</title>
<polygon fill="lightgrey" stroke="none" points="690,-592 636,-592 636,-556 690,-556 690,-592"/>
<text text-anchor="middle" x="663" y="-570.3" font-family="'/usr/share/fonts/truetype/wqy/wqy-microhei.ttc'" font-size="14.00">NULL</text>
</g>
<!-- pair_4&#45;&gt;null1 -->
<g id="edge8" class="edge"><title>pair_4:next&#45;&gt;null1</title>
<path fill="none" stroke="black" stroke-width="2" d="M598,-574C606.944,-574 616.592,-574 625.616,-574"/>
<polygon fill="black" stroke="black" stroke-width="2" points="625.844,-577.5 635.844,-574 625.844,-570.5 625.844,-577.5"/>
</g>
</g>
</svg>
