<?xml version="1.0" encoding="UTF-8" standalone="no"?>
<!DOCTYPE svg PUBLIC "-//W3C//DTD SVG 1.1//EN"
 "http://www.w3.org/Graphics/SVG/1.1/DTD/svg11.dtd">
<!-- Generated by graphviz version 2.36.0 (20140111.2315)
 -->
<!-- Title: expires Pages: 1 -->
<svg width="388pt" height="222pt"
 viewBox="0.00 0.00 388.00 222.00" xmlns="http://www.w3.org/2000/svg" xmlns:xlink="http://www.w3.org/1999/xlink">
<g id="graph0" class="graph" transform="scale(1 1) rotate(0) translate(4 218)">
<title>expires</title>
<polygon fill="white" stroke="none" points="-4,4 -4,-218 384,-218 384,4 -4,4"/>
<!-- redisDb -->
<g id="node1" class="node"><title>redisDb</title>
<polygon fill="#a8e270" stroke="black" points="0.5,-99.5 0.5,-214.5 69.5,-214.5 69.5,-99.5 0.5,-99.5"/>
<text text-anchor="middle" x="35" y="-199.3" font-family="'/usr/share/fonts/truetype/wqy/wqy-microhei.ttc'" font-size="14.00">redisDb</text>
<polyline fill="none" stroke="black" points="0.5,-191.5 69.5,-191.5 "/>
<text text-anchor="middle" x="35" y="-176.3" font-family="'/usr/share/fonts/truetype/wqy/wqy-microhei.ttc'" font-size="14.00">id</text>
<polyline fill="none" stroke="black" points="0.5,-168.5 69.5,-168.5 "/>
<text text-anchor="middle" x="35" y="-153.3" font-family="'/usr/share/fonts/truetype/wqy/wqy-microhei.ttc'" font-size="14.00">...</text>
<polyline fill="none" stroke="black" points="0.5,-145.5 69.5,-145.5 "/>
<text text-anchor="middle" x="35" y="-130.3" font-family="'/usr/share/fonts/truetype/wqy/wqy-microhei.ttc'" font-size="14.00">expires</text>
<polyline fill="none" stroke="black" points="0.5,-122.5 69.5,-122.5 "/>
<text text-anchor="middle" x="35" y="-107.3" font-family="'/usr/share/fonts/truetype/wqy/wqy-microhei.ttc'" font-size="14.00">...</text>
</g>
<!-- expires -->
<g id="node2" class="node"><title>expires</title>
<polygon fill="#95bbe3" stroke="black" points="106.5,-0.5 106.5,-145.5 209.5,-145.5 209.5,-0.5 106.5,-0.5"/>
<text text-anchor="middle" x="158" y="-130.3" font-family="'/usr/share/fonts/truetype/wqy/wqy-microhei.ttc'" font-size="14.00">dict</text>
<polyline fill="none" stroke="black" points="106.5,-122.5 209.5,-122.5 "/>
<text text-anchor="middle" x="158" y="-107.3" font-family="'/usr/share/fonts/truetype/wqy/wqy-microhei.ttc'" font-size="14.00">StringObject</text>
<text text-anchor="middle" x="158" y="-92.3" font-family="'/usr/share/fonts/truetype/wqy/wqy-microhei.ttc'" font-size="14.00"> &quot;number&quot;</text>
<polyline fill="none" stroke="black" points="106.5,-84.5 209.5,-84.5 "/>
<text text-anchor="middle" x="158" y="-69.3" font-family="'/usr/share/fonts/truetype/wqy/wqy-microhei.ttc'" font-size="14.00">NULL</text>
<polyline fill="none" stroke="black" points="106.5,-61.5 209.5,-61.5 "/>
<text text-anchor="middle" x="158" y="-46.3" font-family="'/usr/share/fonts/truetype/wqy/wqy-microhei.ttc'" font-size="14.00">StringObject</text>
<text text-anchor="middle" x="158" y="-31.3" font-family="'/usr/share/fonts/truetype/wqy/wqy-microhei.ttc'" font-size="14.00"> &quot;book&quot;</text>
<polyline fill="none" stroke="black" points="106.5,-23.5 209.5,-23.5 "/>
<text text-anchor="middle" x="158" y="-8.3" font-family="'/usr/share/fonts/truetype/wqy/wqy-microhei.ttc'" font-size="14.00">NULL</text>
</g>
<!-- redisDb&#45;&gt;expires -->
<g id="edge1" class="edge"><title>redisDb:expires&#45;&gt;expires:head</title>
<path fill="none" stroke="black" stroke-width="2" d="M70,-134C82,-134 87.25,-134 95.875,-134"/>
<polygon fill="black" stroke="black" stroke-width="2" points="96,-137.5 106,-134 96,-130.5 96,-137.5"/>
</g>
<!-- expire_of_number -->
<g id="node3" class="node"><title>expire_of_number</title>
<polygon fill="lightgrey" stroke="black" points="246,-71 246,-117 380,-117 380,-71 246,-71"/>
<text text-anchor="middle" x="313" y="-101.8" font-family="'/usr/share/fonts/truetype/wqy/wqy-microhei.ttc'" font-size="14.00">long long</text>
<polyline fill="none" stroke="black" points="246,-94 380,-94 "/>
<text text-anchor="middle" x="313" y="-78.8" font-family="'/usr/share/fonts/truetype/wqy/wqy-microhei.ttc'" font-size="14.00">1360454400000</text>
</g>
<!-- expires&#45;&gt;expire_of_number -->
<g id="edge2" class="edge"><title>expires:number&#45;&gt;expire_of_number:head</title>
<path fill="none" stroke="black" stroke-width="2" d="M210,-104C222.019,-104 227.245,-105.125 235.868,-105.688"/>
<polygon fill="black" stroke="black" stroke-width="2" points="235.897,-109.19 246,-106 236.113,-102.193 235.897,-109.19"/>
</g>
<!-- expire_of_book -->
<g id="node4" class="node"><title>expire_of_book</title>
<polygon fill="lightgrey" stroke="black" points="246,-6 246,-52 380,-52 380,-6 246,-6"/>
<text text-anchor="middle" x="313" y="-36.8" font-family="'/usr/share/fonts/truetype/wqy/wqy-microhei.ttc'" font-size="14.00">long long</text>
<polyline fill="none" stroke="black" points="246,-29 380,-29 "/>
<text text-anchor="middle" x="313" y="-13.8" font-family="'/usr/share/fonts/truetype/wqy/wqy-microhei.ttc'" font-size="14.00">1360800000000</text>
</g>
<!-- expires&#45;&gt;expire_of_book -->
<g id="edge3" class="edge"><title>expires:book&#45;&gt;expire_of_book:head</title>
<path fill="none" stroke="black" stroke-width="2" d="M210,-42C222.005,-42 227.249,-41.4375 235.873,-41.1562"/>
<polygon fill="black" stroke="black" stroke-width="2" points="236.055,-44.654 246,-41 235.947,-37.6548 236.055,-44.654"/>
</g>
</g>
</svg>
