<?xml version="1.0" encoding="UTF-8" standalone="no"?>
<!DOCTYPE svg PUBLIC "-//W3C//DTD SVG 1.1//EN"
 "http://www.w3.org/Graphics/SVG/1.1/DTD/svg11.dtd">
<!-- Generated by graphviz version 2.36.0 (20140111.2315)
 -->
<!-- Title: rehash_step Pages: 1 -->
<svg width="445pt" height="280pt"
 viewBox="0.00 0.00 445.00 280.00" xmlns="http://www.w3.org/2000/svg" xmlns:xlink="http://www.w3.org/1999/xlink">
<g id="graph0" class="graph" transform="scale(1 1) rotate(0) translate(4 276)">
<title>rehash_step</title>
<polygon fill="white" stroke="none" points="-4,4 -4,-276 441,-276 441,4 -4,4"/>
<!-- dictAdd -->
<g id="node1" class="node"><title>dictAdd</title>
<polygon fill="#a8e270" stroke="none" points="77,-272 9,-272 9,-236 77,-236 77,-272"/>
<text text-anchor="middle" x="43" y="-250.3" font-family="'/usr/share/fonts/truetype/wqy/wqy-microhei.ttc'" font-size="14.00">dictAdd</text>
</g>
<!-- rehashing_or_not -->
<g id="node5" class="node"><title>rehashing_or_not</title>
<polygon fill="#95bbe3" stroke="black" points="178,-198 45.9617,-180 178,-162 310.038,-180 178,-198"/>
<text text-anchor="middle" x="178" y="-176.3" font-family="'/usr/share/fonts/truetype/wqy/wqy-microhei.ttc'" font-size="14.00">正在进行 rehash ？</text>
</g>
<!-- dictAdd&#45;&gt;rehashing_or_not -->
<g id="edge1" class="edge"><title>dictAdd&#45;&gt;rehashing_or_not</title>
<path fill="none" stroke="black" stroke-width="2" d="M74.9931,-235.937C95.6409,-224.925 122.485,-210.608 143.593,-199.35"/>
<polygon fill="black" stroke="black" stroke-width="2" points="145.372,-202.369 152.548,-194.574 142.077,-196.192 145.372,-202.369"/>
</g>
<!-- dictFind -->
<g id="node2" class="node"><title>dictFind</title>
<polygon fill="#a8e270" stroke="none" points="165,-272 95,-272 95,-236 165,-236 165,-272"/>
<text text-anchor="middle" x="130" y="-250.3" font-family="'/usr/share/fonts/truetype/wqy/wqy-microhei.ttc'" font-size="14.00">dictFind</text>
</g>
<!-- dictFind&#45;&gt;rehashing_or_not -->
<g id="edge2" class="edge"><title>dictFind&#45;&gt;rehashing_or_not</title>
<path fill="none" stroke="black" stroke-width="2" d="M141.375,-235.937C147.465,-226.803 155.07,-215.394 161.77,-205.345"/>
<polygon fill="black" stroke="black" stroke-width="2" points="164.729,-207.216 167.364,-196.954 158.905,-203.333 164.729,-207.216"/>
</g>
<!-- dictDelete -->
<g id="node3" class="node"><title>dictDelete</title>
<polygon fill="#a8e270" stroke="none" points="270.25,-272 183.75,-272 183.75,-236 270.25,-236 270.25,-272"/>
<text text-anchor="middle" x="227" y="-250.3" font-family="'/usr/share/fonts/truetype/wqy/wqy-microhei.ttc'" font-size="14.00">dictDelete</text>
</g>
<!-- dictDelete&#45;&gt;rehashing_or_not -->
<g id="edge3" class="edge"><title>dictDelete&#45;&gt;rehashing_or_not</title>
<path fill="none" stroke="black" stroke-width="2" d="M215.388,-235.937C209.171,-226.803 201.407,-215.394 194.568,-205.345"/>
<polygon fill="black" stroke="black" stroke-width="2" points="197.377,-203.252 188.858,-196.954 191.59,-207.19 197.377,-203.252"/>
</g>
<!-- dictGetRandomKey -->
<g id="node4" class="node"><title>dictGetRandomKey</title>
<polygon fill="#a8e270" stroke="none" points="437,-272 289,-272 289,-236 437,-236 437,-272"/>
<text text-anchor="middle" x="363" y="-250.3" font-family="'/usr/share/fonts/truetype/wqy/wqy-microhei.ttc'" font-size="14.00">dictGetRandomKey</text>
</g>
<!-- dictGetRandomKey&#45;&gt;rehashing_or_not -->
<g id="edge4" class="edge"><title>dictGetRandomKey&#45;&gt;rehashing_or_not</title>
<path fill="none" stroke="black" stroke-width="2" d="M319.158,-235.937C289.206,-224.28 249.74,-208.921 220.155,-197.406"/>
<polygon fill="black" stroke="black" stroke-width="2" points="221.118,-194.025 210.529,-193.66 218.579,-200.549 221.118,-194.025"/>
</g>
<!-- _dictRehashStep -->
<g id="node6" class="node"><title>_dictRehashStep</title>
<polygon fill="#a8e270" stroke="none" points="243.25,-110 112.75,-110 112.75,-74 243.25,-74 243.25,-110"/>
<text text-anchor="middle" x="178" y="-88.3" font-family="'/usr/share/fonts/truetype/wqy/wqy-microhei.ttc'" font-size="14.00">_dictRehashStep</text>
</g>
<!-- rehashing_or_not&#45;&gt;_dictRehashStep -->
<g id="edge5" class="edge"><title>rehashing_or_not&#45;&gt;_dictRehashStep</title>
<path fill="none" stroke="black" stroke-width="2" d="M178,-161.597C178,-149.746 178,-133.817 178,-120.292"/>
<polygon fill="black" stroke="black" stroke-width="2" points="181.5,-120.084 178,-110.084 174.5,-120.084 181.5,-120.084"/>
<text text-anchor="middle" x="185.5" y="-132.3" font-family="Times,serif" font-size="14.00">是</text>
</g>
<!-- one_index -->
<g id="node7" class="node"><title>one_index</title>
<polygon fill="lightgrey" stroke="none" points="355.5,-36 0.5,-36 0.5,-0 355.5,-0 355.5,-36"/>
<text text-anchor="middle" x="178" y="-14.3" font-family="'/usr/share/fonts/truetype/wqy/wqy-microhei.ttc'" font-size="14.00">将 ht[0] 第一个不为空索引上的所有节点迁移至 ht[1]</text>
</g>
<!-- _dictRehashStep&#45;&gt;one_index -->
<g id="edge6" class="edge"><title>_dictRehashStep&#45;&gt;one_index</title>
<path fill="none" stroke="black" stroke-width="2" d="M178,-73.937C178,-65.8072 178,-55.8761 178,-46.7047"/>
<polygon fill="black" stroke="black" stroke-width="2" points="181.5,-46.4406 178,-36.4407 174.5,-46.4407 181.5,-46.4406"/>
</g>
</g>
</svg>
