<?xml version="1.0" encoding="UTF-8" standalone="no"?>
<!DOCTYPE svg PUBLIC "-//W3C//DTD SVG 1.1//EN"
 "http://www.w3.org/Graphics/SVG/1.1/DTD/svg11.dtd">
<!-- Generated by graphviz version 2.36.0 (20140111.2315)
 -->
<!-- Title: pubsub_relation Pages: 1 -->
<svg width="238pt" height="132pt"
 viewBox="0.00 0.00 238.00 132.00" xmlns="http://www.w3.org/2000/svg" xmlns:xlink="http://www.w3.org/1999/xlink">
<g id="graph0" class="graph" transform="scale(1 1) rotate(0) translate(4 128)">
<title>pubsub_relation</title>
<polygon fill="white" stroke="none" points="-4,4 -4,-128 234,-128 234,4 -4,4"/>
<!-- channel1 -->
<g id="node1" class="node"><title>channel1</title>
<ellipse fill="#a8e270" stroke="black" cx="112" cy="-106" rx="51.9908" ry="18"/>
<text text-anchor="middle" x="112" y="-102.3" font-family="'/usr/share/fonts/truetype/wqy/wqy-microhei.ttc'" font-size="14.00">channel1</text>
</g>
<!-- client2 -->
<g id="node2" class="node"><title>client2</title>
<polygon fill="#95bbe3" stroke="black" points="62.5,-36 -0.5,-36 -0.5,-0 62.5,-0 62.5,-36"/>
<text text-anchor="middle" x="31" y="-14.3" font-family="'/usr/share/fonts/truetype/wqy/wqy-microhei.ttc'" font-size="14.00">client2</text>
</g>
<!-- client2&#45;&gt;channel1 -->
<g id="edge1" class="edge"><title>client2&#45;&gt;channel1</title>
<path fill="none" stroke="black" stroke-width="2" d="M36.5914,-36.0237C40.7144,-46.6755 47.1492,-60.1889 56,-70 61.2917,-75.8659 67.7919,-81.1097 74.4667,-85.6414"/>
<polygon fill="black" stroke="black" stroke-width="2" points="72.6136,-88.6106 82.9369,-90.9939 76.353,-82.6931 72.6136,-88.6106"/>
<text text-anchor="middle" x="82" y="-58.3" font-family="Times,serif" font-size="14.00">subscribe</text>
</g>
<!-- client5 -->
<g id="node3" class="node"><title>client5</title>
<polygon fill="#95bbe3" stroke="black" points="143.5,-36 80.5,-36 80.5,-0 143.5,-0 143.5,-36"/>
<text text-anchor="middle" x="112" y="-14.3" font-family="'/usr/share/fonts/truetype/wqy/wqy-microhei.ttc'" font-size="14.00">client5</text>
</g>
<!-- client5&#45;&gt;channel1 -->
<g id="edge2" class="edge"><title>client5&#45;&gt;channel1</title>
<path fill="none" stroke="black" stroke-width="2" d="M112,-36.4034C112,-48.2541 112,-64.1831 112,-77.7083"/>
<polygon fill="black" stroke="black" stroke-width="2" points="108.5,-77.916 112,-87.916 115.5,-77.916 108.5,-77.916"/>
<text text-anchor="middle" x="138" y="-58.3" font-family="Times,serif" font-size="14.00">subscribe</text>
</g>
<!-- client1 -->
<g id="node4" class="node"><title>client1</title>
<polygon fill="#95bbe3" stroke="black" points="224.5,-36 161.5,-36 161.5,-0 224.5,-0 224.5,-36"/>
<text text-anchor="middle" x="193" y="-14.3" font-family="'/usr/share/fonts/truetype/wqy/wqy-microhei.ttc'" font-size="14.00">client1</text>
</g>
<!-- client1&#45;&gt;channel1 -->
<g id="edge3" class="edge"><title>client1&#45;&gt;channel1</title>
<path fill="none" stroke="black" stroke-width="2" d="M187.409,-36.0237C183.286,-46.6755 176.851,-60.1889 168,-70 162.708,-75.8659 156.208,-81.1097 149.533,-85.6414"/>
<polygon fill="black" stroke="black" stroke-width="2" points="147.647,-82.6931 141.063,-90.9939 151.386,-88.6106 147.647,-82.6931"/>
<text text-anchor="middle" x="204" y="-58.3" font-family="Times,serif" font-size="14.00">subscribe</text>
</g>
</g>
</svg>
