<?xml version="1.0" encoding="UTF-8" standalone="no"?>
<!DOCTYPE svg PUBLIC "-//W3C//DTD SVG 1.1//EN"
 "http://www.w3.org/Graphics/SVG/1.1/DTD/svg11.dtd">
<!-- Generated by graphviz version 2.36.0 (20140111.2315)
 -->
<!-- Title: db_with_expire_time Pages: 1 -->
<svg width="636pt" height="410pt"
 viewBox="0.00 0.00 636.00 410.00" xmlns="http://www.w3.org/2000/svg" xmlns:xlink="http://www.w3.org/1999/xlink">
<g id="graph0" class="graph" transform="scale(1 1) rotate(0) translate(4 406)">
<title>db_with_expire_time</title>
<polygon fill="white" stroke="none" points="-4,4 -4,-406 632,-406 632,4 -4,4"/>
<!-- redisDb -->
<g id="node1" class="node"><title>redisDb</title>
<polygon fill="#a8e270" stroke="black" points="0.5,-207.5 0.5,-322.5 69.5,-322.5 69.5,-207.5 0.5,-207.5"/>
<text text-anchor="middle" x="35" y="-307.3" font-family="'/usr/share/fonts/truetype/wqy/wqy-microhei.ttc'" font-size="14.00">redisDb</text>
<polyline fill="none" stroke="black" points="0.5,-299.5 69.5,-299.5 "/>
<text text-anchor="middle" x="35" y="-284.3" font-family="'/usr/share/fonts/truetype/wqy/wqy-microhei.ttc'" font-size="14.00">id</text>
<polyline fill="none" stroke="black" points="0.5,-276.5 69.5,-276.5 "/>
<text text-anchor="middle" x="35" y="-261.3" font-family="'/usr/share/fonts/truetype/wqy/wqy-microhei.ttc'" font-size="14.00">dict</text>
<polyline fill="none" stroke="black" points="0.5,-253.5 69.5,-253.5 "/>
<text text-anchor="middle" x="35" y="-238.3" font-family="'/usr/share/fonts/truetype/wqy/wqy-microhei.ttc'" font-size="14.00">expires</text>
<polyline fill="none" stroke="black" points="0.5,-230.5 69.5,-230.5 "/>
<text text-anchor="middle" x="35" y="-215.3" font-family="'/usr/share/fonts/truetype/wqy/wqy-microhei.ttc'" font-size="14.00">...</text>
</g>
<!-- dict -->
<g id="node2" class="node"><title>dict</title>
<polygon fill="#95bbe3" stroke="black" points="106.5,-216.5 106.5,-391.5 209.5,-391.5 209.5,-216.5 106.5,-216.5"/>
<text text-anchor="middle" x="158" y="-376.3" font-family="'/usr/share/fonts/truetype/wqy/wqy-microhei.ttc'" font-size="14.00">dict</text>
<text text-anchor="middle" x="158" y="-361.3" font-family="'/usr/share/fonts/truetype/wqy/wqy-microhei.ttc'" font-size="14.00">(key space)</text>
<polyline fill="none" stroke="black" points="106.5,-353.5 209.5,-353.5 "/>
<text text-anchor="middle" x="158" y="-338.3" font-family="'/usr/share/fonts/truetype/wqy/wqy-microhei.ttc'" font-size="14.00">StringObject</text>
<text text-anchor="middle" x="158" y="-323.3" font-family="'/usr/share/fonts/truetype/wqy/wqy-microhei.ttc'" font-size="14.00"> &quot;number&quot;</text>
<polyline fill="none" stroke="black" points="106.5,-315.5 209.5,-315.5 "/>
<text text-anchor="middle" x="158" y="-300.3" font-family="'/usr/share/fonts/truetype/wqy/wqy-microhei.ttc'" font-size="14.00">NULL</text>
<polyline fill="none" stroke="black" points="106.5,-292.5 209.5,-292.5 "/>
<text text-anchor="middle" x="158" y="-277.3" font-family="'/usr/share/fonts/truetype/wqy/wqy-microhei.ttc'" font-size="14.00">StringObject</text>
<text text-anchor="middle" x="158" y="-262.3" font-family="'/usr/share/fonts/truetype/wqy/wqy-microhei.ttc'" font-size="14.00"> &quot;book&quot;</text>
<polyline fill="none" stroke="black" points="106.5,-254.5 209.5,-254.5 "/>
<text text-anchor="middle" x="158" y="-239.3" font-family="'/usr/share/fonts/truetype/wqy/wqy-microhei.ttc'" font-size="14.00">StringObject</text>
<text text-anchor="middle" x="158" y="-224.3" font-family="'/usr/share/fonts/truetype/wqy/wqy-microhei.ttc'" font-size="14.00"> &quot;message&quot;</text>
</g>
<!-- redisDb&#45;&gt;dict -->
<g id="edge1" class="edge"><title>redisDb:dict&#45;&gt;dict:head</title>
<path fill="none" stroke="black" stroke-width="2" d="M70,-265C116.644,-265 64.8832,-356.784 96.1512,-371.125"/>
<polygon fill="black" stroke="black" stroke-width="2" points="95.5219,-374.568 106,-373 96.8308,-367.692 95.5219,-374.568"/>
</g>
<!-- expires -->
<g id="node9" class="node"><title>expires</title>
<polygon fill="#95bbe3" stroke="black" points="106.5,-0.5 106.5,-145.5 209.5,-145.5 209.5,-0.5 106.5,-0.5"/>
<text text-anchor="middle" x="158" y="-130.3" font-family="'/usr/share/fonts/truetype/wqy/wqy-microhei.ttc'" font-size="14.00">dict</text>
<polyline fill="none" stroke="black" points="106.5,-122.5 209.5,-122.5 "/>
<text text-anchor="middle" x="158" y="-107.3" font-family="'/usr/share/fonts/truetype/wqy/wqy-microhei.ttc'" font-size="14.00">StringObject</text>
<text text-anchor="middle" x="158" y="-92.3" font-family="'/usr/share/fonts/truetype/wqy/wqy-microhei.ttc'" font-size="14.00"> &quot;number&quot;</text>
<polyline fill="none" stroke="black" points="106.5,-84.5 209.5,-84.5 "/>
<text text-anchor="middle" x="158" y="-69.3" font-family="'/usr/share/fonts/truetype/wqy/wqy-microhei.ttc'" font-size="14.00">NULL</text>
<polyline fill="none" stroke="black" points="106.5,-61.5 209.5,-61.5 "/>
<text text-anchor="middle" x="158" y="-46.3" font-family="'/usr/share/fonts/truetype/wqy/wqy-microhei.ttc'" font-size="14.00">StringObject</text>
<text text-anchor="middle" x="158" y="-31.3" font-family="'/usr/share/fonts/truetype/wqy/wqy-microhei.ttc'" font-size="14.00"> &quot;book&quot;</text>
<polyline fill="none" stroke="black" points="106.5,-23.5 209.5,-23.5 "/>
<text text-anchor="middle" x="158" y="-8.3" font-family="'/usr/share/fonts/truetype/wqy/wqy-microhei.ttc'" font-size="14.00">NULL</text>
</g>
<!-- redisDb&#45;&gt;expires -->
<g id="edge8" class="edge"><title>redisDb:expires&#45;&gt;expires:head</title>
<path fill="none" stroke="black" stroke-width="2" d="M70,-242C116.644,-242 64.8832,-150.216 96.1512,-135.875"/>
<polygon fill="black" stroke="black" stroke-width="2" points="96.8308,-139.308 106,-134 95.5219,-132.432 96.8308,-139.308"/>
</g>
<!-- number -->
<g id="node3" class="node"><title>number</title>
<polygon fill="#fadcad" stroke="black" points="247,-356 247,-402 379,-402 379,-356 247,-356"/>
<text text-anchor="middle" x="313" y="-386.8" font-family="'/usr/share/fonts/truetype/wqy/wqy-microhei.ttc'" font-size="14.00">ListObject</text>
<polyline fill="none" stroke="black" points="247,-379 379,-379 "/>
<text text-anchor="middle" x="269" y="-363.8" font-family="'/usr/share/fonts/truetype/wqy/wqy-microhei.ttc'" font-size="14.00">123</text>
<polyline fill="none" stroke="black" points="291,-356 291,-379 "/>
<text text-anchor="middle" x="313" y="-363.8" font-family="'/usr/share/fonts/truetype/wqy/wqy-microhei.ttc'" font-size="14.00">456</text>
<polyline fill="none" stroke="black" points="335,-356 335,-379 "/>
<text text-anchor="middle" x="357" y="-363.8" font-family="'/usr/share/fonts/truetype/wqy/wqy-microhei.ttc'" font-size="14.00">789</text>
</g>
<!-- dict&#45;&gt;number -->
<g id="edge2" class="edge"><title>dict:number&#45;&gt;number:head</title>
<path fill="none" stroke="black" stroke-width="2" d="M210,-335C235.427,-335 221.887,-376.357 236.354,-387.989"/>
<polygon fill="black" stroke="black" stroke-width="2" points="235.411,-391.361 246,-391 237.497,-384.679 235.411,-391.361"/>
</g>
<!-- book -->
<g id="node4" class="node"><title>book</title>
<polygon fill="#f2f2f2" stroke="black" points="261.5,-199.5 261.5,-336.5 364.5,-336.5 364.5,-199.5 261.5,-199.5"/>
<text text-anchor="middle" x="313" y="-321.3" font-family="'/usr/share/fonts/truetype/wqy/wqy-microhei.ttc'" font-size="14.00">HashObject</text>
<polyline fill="none" stroke="black" points="261.5,-313.5 364.5,-313.5 "/>
<text text-anchor="middle" x="313" y="-298.3" font-family="'/usr/share/fonts/truetype/wqy/wqy-microhei.ttc'" font-size="14.00">StringObject</text>
<text text-anchor="middle" x="313" y="-283.3" font-family="'/usr/share/fonts/truetype/wqy/wqy-microhei.ttc'" font-size="14.00"> &quot;name&quot;</text>
<polyline fill="none" stroke="black" points="261.5,-275.5 364.5,-275.5 "/>
<text text-anchor="middle" x="313" y="-260.3" font-family="'/usr/share/fonts/truetype/wqy/wqy-microhei.ttc'" font-size="14.00">StringObject</text>
<text text-anchor="middle" x="313" y="-245.3" font-family="'/usr/share/fonts/truetype/wqy/wqy-microhei.ttc'" font-size="14.00"> &quot;author&quot;</text>
<polyline fill="none" stroke="black" points="261.5,-237.5 364.5,-237.5 "/>
<text text-anchor="middle" x="313" y="-222.3" font-family="'/usr/share/fonts/truetype/wqy/wqy-microhei.ttc'" font-size="14.00">StringObject</text>
<text text-anchor="middle" x="313" y="-207.3" font-family="'/usr/share/fonts/truetype/wqy/wqy-microhei.ttc'" font-size="14.00"> &quot;publisher&quot;</text>
</g>
<!-- dict&#45;&gt;book -->
<g id="edge3" class="edge"><title>dict:book&#45;&gt;book:head</title>
<path fill="none" stroke="black" stroke-width="2" d="M210,-273C238.179,-273 230.682,-313.169 250.22,-322.897"/>
<polygon fill="black" stroke="black" stroke-width="2" points="249.488,-326.32 260,-325 250.959,-319.476 249.488,-326.32"/>
</g>
<!-- message -->
<g id="node8" class="node"><title>message</title>
<polygon fill="lightgrey" stroke="black" points="261.5,-134 261.5,-180 364.5,-180 364.5,-134 261.5,-134"/>
<text text-anchor="middle" x="313" y="-164.8" font-family="'/usr/share/fonts/truetype/wqy/wqy-microhei.ttc'" font-size="14.00">StringObject</text>
<polyline fill="none" stroke="black" points="261.5,-157 364.5,-157 "/>
<text text-anchor="middle" x="313" y="-141.8" font-family="'/usr/share/fonts/truetype/wqy/wqy-microhei.ttc'" font-size="14.00">&quot;hello moto&quot;</text>
</g>
<!-- dict&#45;&gt;message -->
<g id="edge4" class="edge"><title>dict:message&#45;&gt;message:head</title>
<path fill="none" stroke="black" stroke-width="2" d="M210,-235C242.775,-235 227.64,-182.648 249.935,-171.196"/>
<polygon fill="black" stroke="black" stroke-width="2" points="250.976,-174.551 260,-169 249.484,-167.712 250.976,-174.551"/>
</g>
<!-- book_name -->
<g id="node5" class="node"><title>book_name</title>
<polygon fill="lightgrey" stroke="black" points="416.5,-286 416.5,-332 627.5,-332 627.5,-286 416.5,-286"/>
<text text-anchor="middle" x="522" y="-316.8" font-family="'/usr/share/fonts/truetype/wqy/wqy-microhei.ttc'" font-size="14.00">StringObject</text>
<polyline fill="none" stroke="black" points="416.5,-309 627.5,-309 "/>
<text text-anchor="middle" x="522" y="-293.8" font-family="'/usr/share/fonts/truetype/wqy/wqy-microhei.ttc'" font-size="14.00">&quot;Mastering C++ in 21 days&quot;</text>
</g>
<!-- book&#45;&gt;book_name -->
<g id="edge5" class="edge"><title>book:name&#45;&gt;book_name:head</title>
<path fill="none" stroke="black" stroke-width="2" d="M366,-295C387.134,-295 390.369,-313.51 405.909,-319.294"/>
<polygon fill="black" stroke="black" stroke-width="2" points="405.556,-322.784 416,-321 406.723,-315.882 405.556,-322.784"/>
</g>
<!-- book_author -->
<g id="node6" class="node"><title>book_author</title>
<polygon fill="lightgrey" stroke="black" points="470.5,-221 470.5,-267 573.5,-267 573.5,-221 470.5,-221"/>
<text text-anchor="middle" x="522" y="-251.8" font-family="'/usr/share/fonts/truetype/wqy/wqy-microhei.ttc'" font-size="14.00">StringObject</text>
<polyline fill="none" stroke="black" points="470.5,-244 573.5,-244 "/>
<text text-anchor="middle" x="522" y="-228.8" font-family="'/usr/share/fonts/truetype/wqy/wqy-microhei.ttc'" font-size="14.00">&quot;Someone&quot;</text>
</g>
<!-- book&#45;&gt;book_author -->
<g id="edge6" class="edge"><title>book:author&#45;&gt;book_author:head</title>
<path fill="none" stroke="black" stroke-width="2" d="M366,-256C408.201,-256 421.224,-256 458.867,-256"/>
<polygon fill="black" stroke="black" stroke-width="2" points="459,-259.5 469,-256 459,-252.5 459,-259.5"/>
</g>
<!-- book_publisher -->
<g id="node7" class="node"><title>book_publisher</title>
<polygon fill="lightgrey" stroke="black" points="436.5,-156 436.5,-202 607.5,-202 607.5,-156 436.5,-156"/>
<text text-anchor="middle" x="522" y="-186.8" font-family="'/usr/share/fonts/truetype/wqy/wqy-microhei.ttc'" font-size="14.00">StringObject</text>
<polyline fill="none" stroke="black" points="436.5,-179 607.5,-179 "/>
<text text-anchor="middle" x="522" y="-163.8" font-family="'/usr/share/fonts/truetype/wqy/wqy-microhei.ttc'" font-size="14.00">&quot;Oh&#45;Really? Publisher&quot;</text>
</g>
<!-- book&#45;&gt;book_publisher -->
<g id="edge7" class="edge"><title>book:publisher&#45;&gt;book_publisher:head</title>
<path fill="none" stroke="black" stroke-width="2" d="M366,-218C395.2,-218 400.976,-196.771 424.869,-191.961"/>
<polygon fill="black" stroke="black" stroke-width="2" points="425.375,-195.429 435,-191 424.714,-188.46 425.375,-195.429"/>
</g>
<!-- expire_of_number -->
<g id="node10" class="node"><title>expire_of_number</title>
<polygon fill="lightgrey" stroke="black" points="246,-69 246,-115 380,-115 380,-69 246,-69"/>
<text text-anchor="middle" x="313" y="-99.8" font-family="'/usr/share/fonts/truetype/wqy/wqy-microhei.ttc'" font-size="14.00">long long</text>
<polyline fill="none" stroke="black" points="246,-92 380,-92 "/>
<text text-anchor="middle" x="313" y="-76.8" font-family="'/usr/share/fonts/truetype/wqy/wqy-microhei.ttc'" font-size="14.00">1360454400000</text>
</g>
<!-- expires&#45;&gt;expire_of_number -->
<g id="edge9" class="edge"><title>expires:number&#45;&gt;expire_of_number:head</title>
<path fill="none" stroke="black" stroke-width="2" d="M210,-104C222,-104 227.25,-104 235.875,-104"/>
<polygon fill="black" stroke="black" stroke-width="2" points="236,-107.5 246,-104 236,-100.5 236,-107.5"/>
</g>
<!-- expire_of_book -->
<g id="node11" class="node"><title>expire_of_book</title>
<polygon fill="lightgrey" stroke="black" points="246,-4 246,-50 380,-50 380,-4 246,-4"/>
<text text-anchor="middle" x="313" y="-34.8" font-family="'/usr/share/fonts/truetype/wqy/wqy-microhei.ttc'" font-size="14.00">long long</text>
<polyline fill="none" stroke="black" points="246,-27 380,-27 "/>
<text text-anchor="middle" x="313" y="-11.8" font-family="'/usr/share/fonts/truetype/wqy/wqy-microhei.ttc'" font-size="14.00">1360800000000</text>
</g>
<!-- expires&#45;&gt;expire_of_book -->
<g id="edge10" class="edge"><title>expires:book&#45;&gt;expire_of_book:head</title>
<path fill="none" stroke="black" stroke-width="2" d="M210,-42C222.042,-42 227.24,-40.3125 235.859,-39.4688"/>
<polygon fill="black" stroke="black" stroke-width="2" points="236.172,-42.9581 246,-39 235.849,-35.9656 236.172,-42.9581"/>
</g>
</g>
</svg>
