<?xml version="1.0" encoding="UTF-8" standalone="no"?>
<!DOCTYPE svg PUBLIC "-//W3C//DTD SVG 1.1//EN"
 "http://www.w3.org/Graphics/SVG/1.1/DTD/svg11.dtd">
<!-- Generated by graphviz version 2.36.0 (20140111.2315)
 -->
<!-- Title: dirty_cas Pages: 1 -->
<svg width="626pt" height="155pt"
 viewBox="0.00 0.00 626.00 155.00" xmlns="http://www.w3.org/2000/svg" xmlns:xlink="http://www.w3.org/1999/xlink">
<g id="graph0" class="graph" transform="scale(1 1) rotate(0) translate(4 151)">
<title>dirty_cas</title>
<polygon fill="white" stroke="none" points="-4,4 -4,-151 622,-151 622,4 -4,4"/>
<text text-anchor="middle" x="309" y="-7.8" font-family="Times,serif" font-size="14.00">客户端状态的切换</text>
<!-- normal -->
<g id="node1" class="node"><title>normal</title>
<ellipse fill="#fadcad" stroke="black" cx="57" cy="-85" rx="57.3905" ry="57.3905"/>
<text text-anchor="middle" x="57" y="-81.3" font-family="'/usr/share/fonts/truetype/wqy/wqy-microhei.ttc'" font-size="14.00">非事务状态</text>
</g>
<!-- transaction -->
<g id="node2" class="node"><title>transaction</title>
<ellipse fill="#a8e270" stroke="black" cx="288" cy="-85" rx="48.1917" ry="48.1917"/>
<text text-anchor="middle" x="288" y="-81.3" font-family="'/usr/share/fonts/truetype/wqy/wqy-microhei.ttc'" font-size="14.00">事务状态</text>
</g>
<!-- normal&#45;&gt;transaction -->
<g id="edge1" class="edge"><title>normal&#45;&gt;transaction</title>
<path fill="none" stroke="black" stroke-width="2" d="M114.313,-85C149.388,-85 194.385,-85 229.653,-85"/>
<polygon fill="black" stroke="black" stroke-width="2" points="229.794,-88.5001 239.793,-85 229.793,-81.5001 229.794,-88.5001"/>
<text text-anchor="middle" x="177" y="-103.8" font-family="Times,serif" font-size="14.00">打开选项</text>
<text text-anchor="middle" x="177" y="-88.8" font-family="Times,serif" font-size="14.00">REDIS_MULTI</text>
</g>
<!-- dirty_cas -->
<g id="node3" class="node"><title>dirty_cas</title>
<ellipse fill="#b22222" stroke="black" cx="556" cy="-85" rx="62.4516" ry="62.4516"/>
<text text-anchor="middle" x="556" y="-88.8" font-family="'/usr/share/fonts/truetype/wqy/wqy-microhei.ttc'" font-size="14.00">事务安全性</text>
<text text-anchor="middle" x="556" y="-73.8" font-family="'/usr/share/fonts/truetype/wqy/wqy-microhei.ttc'" font-size="14.00">已被破坏</text>
</g>
<!-- transaction&#45;&gt;dirty_cas -->
<g id="edge2" class="edge"><title>transaction&#45;&gt;dirty_cas</title>
<path fill="none" stroke="black" stroke-width="2" d="M336.249,-85C377.141,-85 436.885,-85 483.608,-85"/>
<polygon fill="black" stroke="black" stroke-width="2" points="483.67,-88.5001 493.67,-85 483.67,-81.5001 483.67,-88.5001"/>
<text text-anchor="middle" x="415" y="-103.8" font-family="Times,serif" font-size="14.00">打开选项</text>
<text text-anchor="middle" x="415" y="-88.8" font-family="Times,serif" font-size="14.00">REDIS_DIRTY_CAS</text>
</g>
</g>
</svg>
