<?xml version="1.0" encoding="UTF-8" standalone="no"?>
<!DOCTYPE svg PUBLIC "-//W3C//DTD SVG 1.1//EN"
 "http://www.w3.org/Graphics/SVG/1.1/DTD/svg11.dtd">
<!-- Generated by graphviz version 2.36.0 (20140111.2315)
 -->
<!-- Title: pattern_relation Pages: 1 -->
<svg width="652pt" height="294pt"
 viewBox="0.00 0.00 652.00 294.00" xmlns="http://www.w3.org/2000/svg" xmlns:xlink="http://www.w3.org/1999/xlink">
<g id="graph0" class="graph" transform="scale(1 1) rotate(0) translate(4 290)">
<title>pattern_relation</title>
<polygon fill="white" stroke="none" points="-4,4 -4,-290 648,-290 648,4 -4,4"/>
<!-- kindle -->
<g id="node1" class="node"><title>kindle</title>
<ellipse fill="#a8e270" stroke="black" cx="525" cy="-194" rx="90.9839" ry="18"/>
<text text-anchor="middle" x="525" y="-190.3" font-family="'/usr/share/fonts/truetype/wqy/wqy-microhei.ttc'" font-size="14.00">tweet.shop.kindle</text>
</g>
<!-- ipad -->
<g id="node2" class="node"><title>ipad</title>
<ellipse fill="#a8e270" stroke="black" cx="207" cy="-194" rx="83.3857" ry="18"/>
<text text-anchor="middle" x="207" y="-190.3" font-family="'/usr/share/fonts/truetype/wqy/wqy-microhei.ttc'" font-size="14.00">tweet.shop.ipad</text>
</g>
<!-- publish -->
<g id="node11" class="node"><title>publish</title>
<polygon fill="#fadcad" stroke="none" points="335.5,-286 78.5,-286 78.5,-250 335.5,-250 335.5,-286"/>
<text text-anchor="middle" x="207" y="-264.3" font-family="'/usr/share/fonts/truetype/wqy/wqy-microhei.ttc'" font-size="14.00">PUBLISH tweet.shop.ipad message</text>
</g>
<!-- ipad&#45;&gt;publish -->
<g id="edge10" class="edge"><title>ipad&#45;&gt;publish</title>
<path fill="none" stroke="#b22222" stroke-width="2" stroke-dasharray="5,2" d="M207,-222.281C207,-231.428 207,-241.375 207,-249.559"/>
<polygon fill="#b22222" stroke="#b22222" stroke-width="2" points="210.5,-222.063 207,-212.063 203.5,-222.063 210.5,-222.063"/>
</g>
<!-- pattern -->
<g id="node3" class="node"><title>pattern</title>
<polygon fill="lightgrey" stroke="black" points="474.048,-98.5442 474.048,-113.456 430.086,-124 367.914,-124 323.952,-113.456 323.952,-98.5442 367.914,-88 430.086,-88 474.048,-98.5442"/>
<text text-anchor="middle" x="399" y="-102.3" font-family="'/usr/share/fonts/truetype/wqy/wqy-microhei.ttc'" font-size="14.00">tweet.shop.*</text>
</g>
<!-- pattern&#45;&gt;kindle -->
<g id="edge1" class="edge"><title>pattern&#45;&gt;kindle</title>
<path fill="none" stroke="black" stroke-width="2" d="M424.195,-124.197C443.762,-137.552 471.05,-156.177 492.301,-170.682"/>
<polygon fill="black" stroke="black" stroke-width="2" points="490.472,-173.671 500.705,-176.418 494.418,-167.889 490.472,-173.671"/>
<text text-anchor="middle" x="491" y="-146.3" font-family="Times,serif" font-size="14.00">match</text>
</g>
<!-- pattern&#45;&gt;ipad -->
<g id="edge2" class="edge"><title>pattern&#45;&gt;ipad</title>
<path fill="none" stroke="#b22222" stroke-width="2" stroke-dasharray="5,2" d="M357.746,-128.429C339.067,-137.871 316.6,-148.869 296,-158 280.214,-164.997 262.565,-172.085 247.173,-178.036"/>
<polygon fill="#b22222" stroke="#b22222" stroke-width="2" points="359.535,-131.446 366.862,-123.793 356.362,-125.206 359.535,-131.446"/>
</g>
<!-- client123 -->
<g id="node4" class="node"><title>client123</title>
<polygon fill="#95bbe3" stroke="black" points="389.5,-36 308.5,-36 308.5,-0 389.5,-0 389.5,-36"/>
<text text-anchor="middle" x="349" y="-14.3" font-family="'/usr/share/fonts/truetype/wqy/wqy-microhei.ttc'" font-size="14.00">client123</text>
</g>
<!-- client123&#45;&gt;pattern -->
<g id="edge3" class="edge"><title>client123&#45;&gt;pattern</title>
<path fill="none" stroke="#b22222" stroke-width="2" stroke-dasharray="5,2" d="M357.516,-45.6299C360.607,-53.7248 364.472,-62.4661 369,-70 372.71,-76.1735 377.52,-82.3321 382.197,-87.7233"/>
<polygon fill="#b22222" stroke="#b22222" stroke-width="2" points="360.805,-44.4342 354.137,-36.201 354.215,-46.7955 360.805,-44.4342"/>
<text text-anchor="middle" x="392.5" y="-58.3" font-family="Times,serif" font-size="14.00">message</text>
</g>
<!-- client256 -->
<g id="node5" class="node"><title>client256</title>
<polygon fill="#95bbe3" stroke="black" points="488.5,-36 407.5,-36 407.5,-0 488.5,-0 488.5,-36"/>
<text text-anchor="middle" x="448" y="-14.3" font-family="'/usr/share/fonts/truetype/wqy/wqy-microhei.ttc'" font-size="14.00">client256</text>
</g>
<!-- client256&#45;&gt;pattern -->
<g id="edge4" class="edge"><title>client256&#45;&gt;pattern</title>
<path fill="none" stroke="#b22222" stroke-width="2" stroke-dasharray="5,2" d="M432.927,-45.4553C425.052,-59.2769 415.643,-75.7895 408.734,-87.916"/>
<polygon fill="#b22222" stroke="#b22222" stroke-width="2" points="436.175,-46.8247 438.084,-36.4034 430.093,-43.3593 436.175,-46.8247"/>
<text text-anchor="middle" x="451.5" y="-58.3" font-family="Times,serif" font-size="14.00">message</text>
</g>
<!-- clientX -->
<g id="node6" class="node"><title>clientX</title>
<polygon fill="#95bbe3" stroke="black" points="557.5,-124 492.5,-124 492.5,-88 557.5,-88 557.5,-124"/>
<text text-anchor="middle" x="525" y="-102.3" font-family="'/usr/share/fonts/truetype/wqy/wqy-microhei.ttc'" font-size="14.00">clientX</text>
</g>
<!-- clientX&#45;&gt;kindle -->
<g id="edge5" class="edge"><title>clientX&#45;&gt;kindle</title>
<path fill="none" stroke="black" stroke-width="2" d="M525,-124.403C525,-136.254 525,-152.183 525,-165.708"/>
<polygon fill="black" stroke="black" stroke-width="2" points="521.5,-165.916 525,-175.916 528.5,-165.916 521.5,-165.916"/>
<text text-anchor="middle" x="551" y="-146.3" font-family="Times,serif" font-size="14.00">subscribe</text>
</g>
<!-- clientY -->
<g id="node7" class="node"><title>clientY</title>
<polygon fill="#95bbe3" stroke="black" points="638.5,-124 575.5,-124 575.5,-88 638.5,-88 638.5,-124"/>
<text text-anchor="middle" x="607" y="-102.3" font-family="'/usr/share/fonts/truetype/wqy/wqy-microhei.ttc'" font-size="14.00">clientY</text>
</g>
<!-- clientY&#45;&gt;kindle -->
<g id="edge6" class="edge"><title>clientY&#45;&gt;kindle</title>
<path fill="none" stroke="black" stroke-width="2" d="M601.044,-124.019C596.7,-134.669 589.998,-148.182 581,-158 576.577,-162.826 571.342,-167.24 565.877,-171.186"/>
<polygon fill="black" stroke="black" stroke-width="2" points="563.554,-168.529 557.182,-176.993 567.442,-174.349 563.554,-168.529"/>
<text text-anchor="middle" x="618" y="-146.3" font-family="Times,serif" font-size="14.00">subscribe</text>
</g>
<!-- client3333 -->
<g id="node8" class="node"><title>client3333</title>
<polygon fill="#95bbe3" stroke="black" points="90,-124 0,-124 0,-88 90,-88 90,-124"/>
<text text-anchor="middle" x="45" y="-102.3" font-family="'/usr/share/fonts/truetype/wqy/wqy-microhei.ttc'" font-size="14.00">client3333</text>
</g>
<!-- client3333&#45;&gt;ipad -->
<g id="edge7" class="edge"><title>client3333&#45;&gt;ipad</title>
<path fill="none" stroke="#b22222" stroke-width="2" stroke-dasharray="5,2" d="M78.0122,-129.769C92.1641,-139.073 109.075,-149.598 125,-158 138.69,-165.223 154.197,-172.143 168.012,-177.896"/>
<polygon fill="#b22222" stroke="#b22222" stroke-width="2" points="79.8547,-126.791 69.5907,-124.164 75.9762,-132.618 79.8547,-126.791"/>
<text text-anchor="middle" x="148.5" y="-146.3" font-family="Times,serif" font-size="14.00">message</text>
</g>
<!-- client4444 -->
<g id="node9" class="node"><title>client4444</title>
<polygon fill="#95bbe3" stroke="black" points="198,-124 108,-124 108,-88 198,-88 198,-124"/>
<text text-anchor="middle" x="153" y="-102.3" font-family="'/usr/share/fonts/truetype/wqy/wqy-microhei.ttc'" font-size="14.00">client4444</text>
</g>
<!-- client4444&#45;&gt;ipad -->
<g id="edge8" class="edge"><title>client4444&#45;&gt;ipad</title>
<path fill="none" stroke="#b22222" stroke-width="2" stroke-dasharray="5,2" d="M169.362,-133.057C178.091,-146.959 188.585,-163.673 196.273,-175.916"/>
<polygon fill="#b22222" stroke="#b22222" stroke-width="2" points="172.21,-131.011 163.928,-124.403 166.281,-134.734 172.21,-131.011"/>
<text text-anchor="middle" x="208.5" y="-146.3" font-family="Times,serif" font-size="14.00">message</text>
</g>
<!-- client5555 -->
<g id="node10" class="node"><title>client5555</title>
<polygon fill="#95bbe3" stroke="black" points="306,-124 216,-124 216,-88 306,-88 306,-124"/>
<text text-anchor="middle" x="261" y="-102.3" font-family="'/usr/share/fonts/truetype/wqy/wqy-microhei.ttc'" font-size="14.00">client5555</text>
</g>
<!-- client5555&#45;&gt;ipad -->
<g id="edge9" class="edge"><title>client5555&#45;&gt;ipad</title>
<path fill="none" stroke="#b22222" stroke-width="2" stroke-dasharray="5,2" d="M249.611,-133.217C245.683,-141.379 241.002,-150.262 236,-158 231.973,-164.23 226.994,-170.603 222.304,-176.175"/>
<polygon fill="#b22222" stroke="#b22222" stroke-width="2" points="252.817,-134.623 253.85,-124.079 246.467,-131.677 252.817,-134.623"/>
<text text-anchor="middle" x="268.5" y="-146.3" font-family="Times,serif" font-size="14.00">message</text>
</g>
</g>
</svg>
