<?xml version="1.0" encoding="UTF-8" standalone="no"?>
<!DOCTYPE svg PUBLIC "-//W3C//DTD SVG 1.1//EN"
 "http://www.w3.org/Graphics/SVG/1.1/DTD/svg11.dtd">
<!-- Generated by graphviz version 2.36.0 (20140111.2315)
 -->
<!-- Title: e Pages: 1 -->
<svg width="386pt" height="188pt"
 viewBox="0.00 0.00 386.00 188.00" xmlns="http://www.w3.org/2000/svg" xmlns:xlink="http://www.w3.org/1999/xlink">
<g id="graph0" class="graph" transform="scale(1 1) rotate(0) translate(4 184)">
<title>e</title>
<polygon fill="white" stroke="none" points="-4,4 -4,-184 382,-184 382,4 -4,4"/>
<!-- server -->
<g id="node1" class="node"><title>server</title>
<ellipse fill="#95bbe3" stroke="black" cx="186" cy="-141" rx="38.1938" ry="38.1938"/>
<text text-anchor="middle" x="186" y="-137.3" font-family="'/usr/share/fonts/truetype/wqy/wqy-microhei.ttc'" font-size="14.00">服务器</text>
</g>
<!-- cx -->
<g id="node2" class="node"><title>cx</title>
<ellipse fill="#a8e270" stroke="black" cx="48" cy="-18" rx="48.1917" ry="18"/>
<text text-anchor="middle" x="48" y="-14.3" font-family="'/usr/share/fonts/truetype/wqy/wqy-microhei.ttc'" font-size="14.00">客户端 X</text>
</g>
<!-- cx&#45;&gt;server -->
<g id="edge1" class="edge"><title>cx&#45;&gt;server</title>
<path fill="none" stroke="#b22222" stroke-width="2" stroke-dasharray="5,2" d="M50.751,-46.1208C53.2427,-58.8321 57.9839,-73.4608 67,-84 88.1512,-108.724 122.627,-123.275 149.04,-131.317"/>
<polygon fill="#b22222" stroke="#b22222" stroke-width="2" points="54.1726,-45.351 49.1427,-36.0263 47.2598,-46.4524 54.1726,-45.351"/>
<text text-anchor="middle" x="124.5" y="-72.8" font-family="Times,serif" font-size="14.00">返回命令执行结果</text>
<text text-anchor="middle" x="124.5" y="-57.8" font-family="Times,serif" font-size="14.00">等待命令请求</text>
</g>
<!-- cy -->
<g id="node3" class="node"><title>cy</title>
<ellipse fill="#a8e270" stroke="black" cx="186" cy="-18" rx="47.3916" ry="18"/>
<text text-anchor="middle" x="186" y="-14.3" font-family="'/usr/share/fonts/truetype/wqy/wqy-microhei.ttc'" font-size="14.00">客户端 Y</text>
</g>
<!-- cy&#45;&gt;server -->
<g id="edge2" class="edge"><title>cy&#45;&gt;server</title>
<path fill="none" stroke="black" stroke-dasharray="1,5" d="M186,-36.0797C186,-53.2777 186,-80.3695 186,-102.58"/>
<text text-anchor="middle" x="229" y="-65.3" font-family="Times,serif" font-size="14.00">等待命令请求</text>
</g>
<!-- cz -->
<g id="node4" class="node"><title>cz</title>
<ellipse fill="#a8e270" stroke="black" cx="300" cy="-18" rx="48.1917" ry="18"/>
<text text-anchor="middle" x="300" y="-14.3" font-family="'/usr/share/fonts/truetype/wqy/wqy-microhei.ttc'" font-size="14.00">客户端 Z</text>
</g>
<!-- cz&#45;&gt;server -->
<g id="edge3" class="edge"><title>cz&#45;&gt;server</title>
<path fill="none" stroke="black" stroke-dasharray="1,5" d="M296.927,-36.0102C293.681,-50.1022 287.401,-70.0143 276,-84 261.465,-101.83 239.667,-115.599 221.164,-125.022"/>
<text text-anchor="middle" x="335" y="-65.3" font-family="Times,serif" font-size="14.00">等待命令请求</text>
</g>
</g>
</svg>
