<?xml version="1.0" encoding="UTF-8" standalone="no"?>
<!DOCTYPE svg PUBLIC "-//W3C//DTD SVG 1.1//EN"
 "http://www.w3.org/Graphics/SVG/1.1/DTD/svg11.dtd">
<!-- Generated by graphviz version 2.36.0 (20140111.2315)
 -->
<!-- Title: db Pages: 1 -->
<svg width="634pt" height="357pt"
 viewBox="0.00 0.00 634.00 357.00" xmlns="http://www.w3.org/2000/svg" xmlns:xlink="http://www.w3.org/1999/xlink">
<g id="graph0" class="graph" transform="scale(1 1) rotate(0) translate(4 353)">
<title>db</title>
<polygon fill="white" stroke="none" points="-4,4 -4,-353 630,-353 630,4 -4,4"/>
<!-- redisDb -->
<g id="node1" class="node"><title>redisDb</title>
<polygon fill="#a8e270" stroke="black" points="0.5,-257 0.5,-349 69.5,-349 69.5,-257 0.5,-257"/>
<text text-anchor="middle" x="35" y="-333.8" font-family="'/usr/share/fonts/truetype/wqy/wqy-microhei.ttc'" font-size="14.00">redisDb</text>
<polyline fill="none" stroke="black" points="0.5,-326 69.5,-326 "/>
<text text-anchor="middle" x="35" y="-310.8" font-family="'/usr/share/fonts/truetype/wqy/wqy-microhei.ttc'" font-size="14.00">id</text>
<polyline fill="none" stroke="black" points="0.5,-303 69.5,-303 "/>
<text text-anchor="middle" x="35" y="-287.8" font-family="'/usr/share/fonts/truetype/wqy/wqy-microhei.ttc'" font-size="14.00">dict</text>
<polyline fill="none" stroke="black" points="0.5,-280 69.5,-280 "/>
<text text-anchor="middle" x="35" y="-264.8" font-family="'/usr/share/fonts/truetype/wqy/wqy-microhei.ttc'" font-size="14.00">...</text>
</g>
<!-- dict -->
<g id="node2" class="node"><title>dict</title>
<polygon fill="#95bbe3" stroke="black" points="106.5,-134.5 106.5,-309.5 209.5,-309.5 209.5,-134.5 106.5,-134.5"/>
<text text-anchor="middle" x="158" y="-294.3" font-family="'/usr/share/fonts/truetype/wqy/wqy-microhei.ttc'" font-size="14.00">dict</text>
<text text-anchor="middle" x="158" y="-279.3" font-family="'/usr/share/fonts/truetype/wqy/wqy-microhei.ttc'" font-size="14.00">(key space)</text>
<polyline fill="none" stroke="black" points="106.5,-271.5 209.5,-271.5 "/>
<text text-anchor="middle" x="158" y="-256.3" font-family="'/usr/share/fonts/truetype/wqy/wqy-microhei.ttc'" font-size="14.00">StringObject</text>
<text text-anchor="middle" x="158" y="-241.3" font-family="'/usr/share/fonts/truetype/wqy/wqy-microhei.ttc'" font-size="14.00"> &quot;number&quot;</text>
<polyline fill="none" stroke="black" points="106.5,-233.5 209.5,-233.5 "/>
<text text-anchor="middle" x="158" y="-218.3" font-family="'/usr/share/fonts/truetype/wqy/wqy-microhei.ttc'" font-size="14.00">NULL</text>
<polyline fill="none" stroke="black" points="106.5,-210.5 209.5,-210.5 "/>
<text text-anchor="middle" x="158" y="-195.3" font-family="'/usr/share/fonts/truetype/wqy/wqy-microhei.ttc'" font-size="14.00">StringObject</text>
<text text-anchor="middle" x="158" y="-180.3" font-family="'/usr/share/fonts/truetype/wqy/wqy-microhei.ttc'" font-size="14.00"> &quot;book&quot;</text>
<polyline fill="none" stroke="black" points="106.5,-172.5 209.5,-172.5 "/>
<text text-anchor="middle" x="158" y="-157.3" font-family="'/usr/share/fonts/truetype/wqy/wqy-microhei.ttc'" font-size="14.00">StringObject</text>
<text text-anchor="middle" x="158" y="-142.3" font-family="'/usr/share/fonts/truetype/wqy/wqy-microhei.ttc'" font-size="14.00"> &quot;message&quot;</text>
</g>
<!-- redisDb&#45;&gt;dict -->
<g id="edge1" class="edge"><title>redisDb:dict&#45;&gt;dict:head</title>
<path fill="none" stroke="black" stroke-width="2" d="M70,-291C82,-291 87.25,-291 95.875,-291"/>
<polygon fill="black" stroke="black" stroke-width="2" points="96,-294.5 106,-291 96,-287.5 96,-294.5"/>
</g>
<!-- number -->
<g id="node3" class="node"><title>number</title>
<polygon fill="#fadcad" stroke="black" points="246,-222 246,-268 378,-268 378,-222 246,-222"/>
<text text-anchor="middle" x="312" y="-252.8" font-family="'/usr/share/fonts/truetype/wqy/wqy-microhei.ttc'" font-size="14.00">ListObject</text>
<polyline fill="none" stroke="black" points="246,-245 378,-245 "/>
<text text-anchor="middle" x="268" y="-229.8" font-family="'/usr/share/fonts/truetype/wqy/wqy-microhei.ttc'" font-size="14.00">123</text>
<polyline fill="none" stroke="black" points="290,-222 290,-245 "/>
<text text-anchor="middle" x="312" y="-229.8" font-family="'/usr/share/fonts/truetype/wqy/wqy-microhei.ttc'" font-size="14.00">456</text>
<polyline fill="none" stroke="black" points="334,-222 334,-245 "/>
<text text-anchor="middle" x="356" y="-229.8" font-family="'/usr/share/fonts/truetype/wqy/wqy-microhei.ttc'" font-size="14.00">789</text>
</g>
<!-- dict&#45;&gt;number -->
<g id="edge2" class="edge"><title>dict:number&#45;&gt;number:head</title>
<path fill="none" stroke="black" stroke-width="2" d="M210,-253C222.074,-253 227.232,-255.25 235.847,-256.375"/>
<polygon fill="black" stroke="black" stroke-width="2" points="235.804,-259.879 246,-257 236.234,-252.892 235.804,-259.879"/>
</g>
<!-- book -->
<g id="node4" class="node"><title>book</title>
<polygon fill="#f2f2f2" stroke="black" points="260.5,-65.5 260.5,-202.5 363.5,-202.5 363.5,-65.5 260.5,-65.5"/>
<text text-anchor="middle" x="312" y="-187.3" font-family="'/usr/share/fonts/truetype/wqy/wqy-microhei.ttc'" font-size="14.00">HashObject</text>
<polyline fill="none" stroke="black" points="260.5,-179.5 363.5,-179.5 "/>
<text text-anchor="middle" x="312" y="-164.3" font-family="'/usr/share/fonts/truetype/wqy/wqy-microhei.ttc'" font-size="14.00">StringObject</text>
<text text-anchor="middle" x="312" y="-149.3" font-family="'/usr/share/fonts/truetype/wqy/wqy-microhei.ttc'" font-size="14.00"> &quot;name&quot;</text>
<polyline fill="none" stroke="black" points="260.5,-141.5 363.5,-141.5 "/>
<text text-anchor="middle" x="312" y="-126.3" font-family="'/usr/share/fonts/truetype/wqy/wqy-microhei.ttc'" font-size="14.00">StringObject</text>
<text text-anchor="middle" x="312" y="-111.3" font-family="'/usr/share/fonts/truetype/wqy/wqy-microhei.ttc'" font-size="14.00"> &quot;author&quot;</text>
<polyline fill="none" stroke="black" points="260.5,-103.5 363.5,-103.5 "/>
<text text-anchor="middle" x="312" y="-88.3" font-family="'/usr/share/fonts/truetype/wqy/wqy-microhei.ttc'" font-size="14.00">StringObject</text>
<text text-anchor="middle" x="312" y="-73.3" font-family="'/usr/share/fonts/truetype/wqy/wqy-microhei.ttc'" font-size="14.00"> &quot;publisher&quot;</text>
</g>
<!-- dict&#45;&gt;book -->
<g id="edge3" class="edge"><title>dict:book&#45;&gt;book:head</title>
<path fill="none" stroke="black" stroke-width="2" d="M210,-191C227.865,-191 234.738,-191 248.653,-191"/>
<polygon fill="black" stroke="black" stroke-width="2" points="249,-194.5 259,-191 249,-187.5 249,-194.5"/>
</g>
<!-- message -->
<g id="node8" class="node"><title>message</title>
<polygon fill="#ffc1c1" stroke="black" points="260.5,-0 260.5,-46 363.5,-46 363.5,-0 260.5,-0"/>
<text text-anchor="middle" x="312" y="-30.8" font-family="'/usr/share/fonts/truetype/wqy/wqy-microhei.ttc'" font-size="14.00">StringObject</text>
<polyline fill="none" stroke="black" points="260.5,-23 363.5,-23 "/>
<text text-anchor="middle" x="312" y="-7.8" font-family="'/usr/share/fonts/truetype/wqy/wqy-microhei.ttc'" font-size="14.00">&quot;blah blah&quot;</text>
</g>
<!-- dict&#45;&gt;message -->
<g id="edge4" class="edge"><title>dict:message&#45;&gt;message:head</title>
<path fill="none" stroke="black" stroke-width="2" d="M210,-153C262.794,-153 210.694,-51.0104 248.737,-36.6681"/>
<polygon fill="black" stroke="black" stroke-width="2" points="249.691,-40.0591 259,-35 248.568,-33.1497 249.691,-40.0591"/>
</g>
<!-- book_name -->
<g id="node5" class="node"><title>book_name</title>
<polygon fill="lightgrey" stroke="black" points="414.5,-152 414.5,-198 625.5,-198 625.5,-152 414.5,-152"/>
<text text-anchor="middle" x="520" y="-182.8" font-family="'/usr/share/fonts/truetype/wqy/wqy-microhei.ttc'" font-size="14.00">StringObject</text>
<polyline fill="none" stroke="black" points="414.5,-175 625.5,-175 "/>
<text text-anchor="middle" x="520" y="-159.8" font-family="'/usr/share/fonts/truetype/wqy/wqy-microhei.ttc'" font-size="14.00">&quot;Mastering C++ in 21 days&quot;</text>
</g>
<!-- book&#45;&gt;book_name -->
<g id="edge5" class="edge"><title>book:name&#45;&gt;book_name:head</title>
<path fill="none" stroke="black" stroke-width="2" d="M365,-161C385.802,-161 388.833,-179.51 404.081,-185.294"/>
<polygon fill="black" stroke="black" stroke-width="2" points="403.551,-188.754 414,-187 404.738,-181.856 403.551,-188.754"/>
</g>
<!-- book_author -->
<g id="node6" class="node"><title>book_author</title>
<polygon fill="lightgrey" stroke="black" points="468.5,-87 468.5,-133 571.5,-133 571.5,-87 468.5,-87"/>
<text text-anchor="middle" x="520" y="-117.8" font-family="'/usr/share/fonts/truetype/wqy/wqy-microhei.ttc'" font-size="14.00">StringObject</text>
<polyline fill="none" stroke="black" points="468.5,-110 571.5,-110 "/>
<text text-anchor="middle" x="520" y="-94.8" font-family="'/usr/share/fonts/truetype/wqy/wqy-microhei.ttc'" font-size="14.00">&quot;Someone&quot;</text>
</g>
<!-- book&#45;&gt;book_author -->
<g id="edge6" class="edge"><title>book:author&#45;&gt;book_author:head</title>
<path fill="none" stroke="black" stroke-width="2" d="M365,-122C406.792,-122 419.688,-122 456.965,-122"/>
<polygon fill="black" stroke="black" stroke-width="2" points="457,-125.5 467,-122 457,-118.5 457,-125.5"/>
</g>
<!-- book_publisher -->
<g id="node7" class="node"><title>book_publisher</title>
<polygon fill="lightgrey" stroke="black" points="434.5,-22 434.5,-68 605.5,-68 605.5,-22 434.5,-22"/>
<text text-anchor="middle" x="520" y="-52.8" font-family="'/usr/share/fonts/truetype/wqy/wqy-microhei.ttc'" font-size="14.00">StringObject</text>
<polyline fill="none" stroke="black" points="434.5,-45 605.5,-45 "/>
<text text-anchor="middle" x="520" y="-29.8" font-family="'/usr/share/fonts/truetype/wqy/wqy-microhei.ttc'" font-size="14.00">&quot;Oh&#45;Really? Publisher&quot;</text>
</g>
<!-- book&#45;&gt;book_publisher -->
<g id="edge7" class="edge"><title>book:publisher&#45;&gt;book_publisher:head</title>
<path fill="none" stroke="black" stroke-width="2" d="M365,-84C393.834,-84 399.432,-62.7707 423.001,-57.9609"/>
<polygon fill="black" stroke="black" stroke-width="2" points="423.381,-61.4407 433,-57 422.711,-54.4728 423.381,-61.4407"/>
</g>
</g>
</svg>
