<?xml version="1.0" encoding="UTF-8" standalone="no"?>
<!DOCTYPE svg PUBLIC "-//W3C//DTD SVG 1.1//EN"
 "http://www.w3.org/Graphics/SVG/1.1/DTD/svg11.dtd">
<!-- Generated by graphviz version 2.36.0 (20140111.2315)
 -->
<!-- Title: flush Pages: 1 -->
<svg width="634pt" height="322pt"
 viewBox="0.00 0.00 634.00 322.00" xmlns="http://www.w3.org/2000/svg" xmlns:xlink="http://www.w3.org/1999/xlink">
<g id="graph0" class="graph" transform="scale(1 1) rotate(0) translate(4 318)">
<title>flush</title>
<polygon fill="white" stroke="none" points="-4,4 -4,-318 630,-318 630,4 -4,4"/>
<!-- SAVE_running_choice -->
<g id="node1" class="node"><title>SAVE_running_choice</title>
<polygon fill="#a8e270" stroke="black" points="336,-314 217.643,-296 336,-278 454.357,-296 336,-314"/>
<text text-anchor="middle" x="336" y="-292.3" font-family="'/usr/share/fonts/truetype/wqy/wqy-microhei.ttc'" font-size="14.00">SAVE 正在执行？</text>
</g>
<!-- over_2_second_choice -->
<g id="node2" class="node"><title>over_2_second_choice</title>
<polygon fill="#95bbe3" stroke="black" points="201,-211 109,-173 201,-135 293,-173 201,-211"/>
<text text-anchor="middle" x="201" y="-176.8" font-family="'/usr/share/fonts/truetype/wqy/wqy-microhei.ttc'" font-size="14.00">运行时间</text>
<text text-anchor="middle" x="201" y="-161.8" font-family="'/usr/share/fonts/truetype/wqy/wqy-microhei.ttc'" font-size="14.00">超过 2 秒？</text>
</g>
<!-- SAVE_running_choice&#45;&gt;over_2_second_choice -->
<g id="edge1" class="edge"><title>SAVE_running_choice&#45;&gt;over_2_second_choice</title>
<path fill="none" stroke="black" stroke-width="2" d="M319.716,-280.405C299.355,-262.155 263.911,-230.387 237.037,-206.3"/>
<polygon fill="black" stroke="black" stroke-width="2" points="239.135,-203.48 229.352,-199.412 234.463,-208.693 239.135,-203.48"/>
<text text-anchor="middle" x="304.5" y="-248.3" font-family="Times,serif" font-size="14.00">是</text>
</g>
<!-- finish_over_2_second -->
<g id="node5" class="node"><title>finish_over_2_second</title>
<polygon fill="#95bbe3" stroke="black" points="426,-226 311.5,-173 426,-120 540.5,-173 426,-226"/>
<text text-anchor="middle" x="426" y="-184.3" font-family="'/usr/share/fonts/truetype/wqy/wqy-microhei.ttc'" font-size="14.00">距离上次 SAVE</text>
<text text-anchor="middle" x="426" y="-169.3" font-family="'/usr/share/fonts/truetype/wqy/wqy-microhei.ttc'" font-size="14.00"> 执行成功</text>
<text text-anchor="middle" x="426" y="-154.3" font-family="'/usr/share/fonts/truetype/wqy/wqy-microhei.ttc'" font-size="14.00">超过 1 秒？</text>
</g>
<!-- SAVE_running_choice&#45;&gt;finish_over_2_second -->
<g id="edge4" class="edge"><title>SAVE_running_choice&#45;&gt;finish_over_2_second</title>
<path fill="none" stroke="black" stroke-width="2" d="M347.399,-279.675C358.381,-264.91 375.566,-241.805 391.071,-220.961"/>
<polygon fill="black" stroke="black" stroke-width="2" points="393.978,-222.917 397.138,-212.804 388.361,-218.739 393.978,-222.917"/>
<text text-anchor="middle" x="380.5" y="-248.3" font-family="Times,serif" font-size="14.00">否</text>
</g>
<!-- not_over_2_second -->
<g id="node3" class="node"><title>not_over_2_second</title>
<polygon fill="#fadcad" stroke="none" points="134,-68 0,-68 0,-0 134,-0 134,-68"/>
<text text-anchor="middle" x="67" y="-52.8" font-family="'/usr/share/fonts/truetype/wqy/wqy-microhei.ttc'" font-size="14.00">情况 1 ：</text>
<text text-anchor="middle" x="67" y="-37.8" font-family="'/usr/share/fonts/truetype/wqy/wqy-microhei.ttc'" font-size="14.00">函数直接返回</text>
<text text-anchor="middle" x="67" y="-22.8" font-family="'/usr/share/fonts/truetype/wqy/wqy-microhei.ttc'" font-size="14.00"> 不执行 WRITE 或</text>
<text text-anchor="middle" x="67" y="-7.8" font-family="'/usr/share/fonts/truetype/wqy/wqy-microhei.ttc'" font-size="14.00">新的 SAVE</text>
</g>
<!-- over_2_second_choice&#45;&gt;not_over_2_second -->
<g id="edge2" class="edge"><title>over_2_second_choice&#45;&gt;not_over_2_second</title>
<path fill="none" stroke="black" stroke-width="2" d="M175.163,-145.585C155.674,-125.659 128.597,-97.9761 106.411,-75.293"/>
<polygon fill="black" stroke="black" stroke-width="2" points="108.889,-72.8218 99.3949,-68.1202 103.885,-77.7165 108.889,-72.8218"/>
<text text-anchor="middle" x="137.5" y="-90.3" font-family="Times,serif" font-size="14.00">否</text>
</g>
<!-- over_2_second -->
<g id="node4" class="node"><title>over_2_second</title>
<polygon fill="#fadcad" stroke="none" points="304,-60.5 152,-60.5 152,-7.5 304,-7.5 304,-60.5"/>
<text text-anchor="middle" x="228" y="-45.3" font-family="'/usr/share/fonts/truetype/wqy/wqy-microhei.ttc'" font-size="14.00">情况 2 ：</text>
<text text-anchor="middle" x="228" y="-30.3" font-family="'/usr/share/fonts/truetype/wqy/wqy-microhei.ttc'" font-size="14.00">执行 WRITE </text>
<text text-anchor="middle" x="228" y="-15.3" font-family="'/usr/share/fonts/truetype/wqy/wqy-microhei.ttc'" font-size="14.00"> 但不执行新的 SAVE </text>
</g>
<!-- over_2_second_choice&#45;&gt;over_2_second -->
<g id="edge3" class="edge"><title>over_2_second_choice&#45;&gt;over_2_second</title>
<path fill="none" stroke="black" stroke-width="2" d="M207.744,-137.783C211.779,-117.307 216.899,-91.3251 220.983,-70.6073"/>
<polygon fill="black" stroke="black" stroke-width="2" points="224.453,-71.0973 222.953,-60.6092 217.585,-69.7437 224.453,-71.0973"/>
<text text-anchor="middle" x="225.5" y="-90.3" font-family="Times,serif" font-size="14.00">是</text>
</g>
<!-- no -->
<g id="node6" class="node"><title>no</title>
<polygon fill="#fadcad" stroke="none" points="488,-60.5 336,-60.5 336,-7.5 488,-7.5 488,-60.5"/>
<text text-anchor="middle" x="412" y="-45.3" font-family="'/usr/share/fonts/truetype/wqy/wqy-microhei.ttc'" font-size="14.00">情况 3 ：</text>
<text text-anchor="middle" x="412" y="-30.3" font-family="'/usr/share/fonts/truetype/wqy/wqy-microhei.ttc'" font-size="14.00"> 执行 WRITE </text>
<text text-anchor="middle" x="412" y="-15.3" font-family="'/usr/share/fonts/truetype/wqy/wqy-microhei.ttc'" font-size="14.00"> 但不执行新的 SAVE </text>
</g>
<!-- finish_over_2_second&#45;&gt;no -->
<g id="edge6" class="edge"><title>finish_over_2_second&#45;&gt;no</title>
<path fill="none" stroke="black" stroke-width="2" d="M420.906,-122.152C419.178,-105.244 417.283,-86.6949 415.686,-71.0714"/>
<polygon fill="black" stroke="black" stroke-width="2" points="419.133,-70.3711 414.634,-60.7787 412.169,-71.0827 419.133,-70.3711"/>
<text text-anchor="middle" x="426.5" y="-90.3" font-family="Times,serif" font-size="14.00">否</text>
</g>
<!-- yes -->
<g id="node7" class="node"><title>yes</title>
<polygon fill="#fadcad" stroke="none" points="625.5,-60.5 506.5,-60.5 506.5,-7.5 625.5,-7.5 625.5,-60.5"/>
<text text-anchor="middle" x="566" y="-45.3" font-family="'/usr/share/fonts/truetype/wqy/wqy-microhei.ttc'" font-size="14.00">情况 4 ：</text>
<text text-anchor="middle" x="566" y="-30.3" font-family="'/usr/share/fonts/truetype/wqy/wqy-microhei.ttc'" font-size="14.00"> 执行 WRITE 和</text>
<text text-anchor="middle" x="566" y="-15.3" font-family="'/usr/share/fonts/truetype/wqy/wqy-microhei.ttc'" font-size="14.00">新的 SAVE</text>
</g>
<!-- finish_over_2_second&#45;&gt;yes -->
<g id="edge5" class="edge"><title>finish_over_2_second&#45;&gt;yes</title>
<path fill="none" stroke="black" stroke-width="2" d="M462.418,-136.362C484.16,-115.086 511.567,-88.267 532.727,-67.5604"/>
<polygon fill="black" stroke="black" stroke-width="2" points="535.232,-70.0058 539.931,-60.5102 530.336,-65.0027 535.232,-70.0058"/>
<text text-anchor="middle" x="519.5" y="-90.3" font-family="Times,serif" font-size="14.00">是</text>
</g>
</g>
</svg>
