<?xml version="1.0" encoding="UTF-8" standalone="no"?>
<!DOCTYPE svg PUBLIC "-//W3C//DTD SVG 1.1//EN"
 "http://www.w3.org/Graphics/SVG/1.1/DTD/svg11.dtd">
<!-- Generated by graphviz version 2.36.0 (20140111.2315)
 -->
<!-- Title: new_watched_keys Pages: 1 -->
<svg width="684pt" height="162pt"
 viewBox="0.00 0.00 684.00 162.00" xmlns="http://www.w3.org/2000/svg" xmlns:xlink="http://www.w3.org/1999/xlink">
<g id="graph0" class="graph" transform="scale(1 1) rotate(0) translate(4 158)">
<title>new_watched_keys</title>
<polygon fill="white" stroke="none" points="-4,4 -4,-158 680,-158 680,4 -4,4"/>
<!-- watched_keys -->
<g id="node1" class="node"><title>watched_keys</title>
<polygon fill="#a8e270" stroke="black" points="0,-0 0,-138 114,-138 114,-0 0,-0"/>
<text text-anchor="middle" x="57" y="-122.8" font-family="'/usr/share/fonts/truetype/wqy/wqy-microhei.ttc'" font-size="14.00">watched_keys</text>
<polyline fill="none" stroke="black" points="0,-115 114,-115 "/>
<text text-anchor="middle" x="57" y="-99.8" font-family="'/usr/share/fonts/truetype/wqy/wqy-microhei.ttc'" font-size="14.00">key1</text>
<polyline fill="none" stroke="black" points="0,-92 114,-92 "/>
<text text-anchor="middle" x="57" y="-76.8" font-family="'/usr/share/fonts/truetype/wqy/wqy-microhei.ttc'" font-size="14.00">key2</text>
<polyline fill="none" stroke="black" points="0,-69 114,-69 "/>
<text text-anchor="middle" x="57" y="-53.8" font-family="'/usr/share/fonts/truetype/wqy/wqy-microhei.ttc'" font-size="14.00">key3</text>
<polyline fill="none" stroke="black" points="0,-46 114,-46 "/>
<text text-anchor="middle" x="57" y="-30.8" font-family="'/usr/share/fonts/truetype/wqy/wqy-microhei.ttc'" font-size="14.00">...</text>
<polyline fill="none" stroke="black" points="0,-23 114,-23 "/>
<text text-anchor="middle" x="57" y="-7.8" font-family="'/usr/share/fonts/truetype/wqy/wqy-microhei.ttc'" font-size="14.00">keyN</text>
</g>
<!-- client2 -->
<g id="node4" class="node"><title>client2</title>
<polygon fill="#95bbe3" stroke="black" points="150.5,-118 150.5,-154 213.5,-154 213.5,-118 150.5,-118"/>
<text text-anchor="middle" x="182" y="-132.3" font-family="'/usr/share/fonts/truetype/wqy/wqy-microhei.ttc'" font-size="14.00">client2</text>
</g>
<!-- watched_keys&#45;&gt;client2 -->
<g id="edge1" class="edge"><title>watched_keys:key1&#45;&gt;client2</title>
<path fill="none" stroke="black" stroke-width="2" d="M114,-104C125.547,-104 137.217,-107.918 147.509,-113.012"/>
<polygon fill="black" stroke="black" stroke-width="2" points="146.078,-116.218 156.531,-117.943 149.435,-110.076 146.078,-116.218"/>
</g>
<!-- client7 -->
<g id="node7" class="node"><title>client7</title>
<polygon fill="#95bbe3" stroke="black" points="150.5,-63 150.5,-99 213.5,-99 213.5,-63 150.5,-63"/>
<text text-anchor="middle" x="182" y="-77.3" font-family="'/usr/share/fonts/truetype/wqy/wqy-microhei.ttc'" font-size="14.00">client7</text>
</g>
<!-- watched_keys&#45;&gt;client7 -->
<g id="edge6" class="edge"><title>watched_keys:key2&#45;&gt;client7</title>
<path fill="none" stroke="black" stroke-width="2" d="M114,-81C122.435,-81 131.467,-81 140.082,-81"/>
<polygon fill="black" stroke="black" stroke-width="2" points="140.314,-84.5001 150.314,-81 140.314,-77.5001 140.314,-84.5001"/>
</g>
<!-- client3 -->
<g id="node10" class="node"><title>client3</title>
<polygon fill="#95bbe3" stroke="black" points="150.5,-8 150.5,-44 213.5,-44 213.5,-8 150.5,-8"/>
<text text-anchor="middle" x="182" y="-22.3" font-family="'/usr/share/fonts/truetype/wqy/wqy-microhei.ttc'" font-size="14.00">client3</text>
</g>
<!-- watched_keys&#45;&gt;client3 -->
<g id="edge9" class="edge"><title>watched_keys:key3&#45;&gt;client3</title>
<path fill="none" stroke="black" stroke-width="2" d="M114,-57C125.187,-57 136.533,-53.3965 146.631,-48.6467"/>
<polygon fill="black" stroke="black" stroke-width="2" points="148.252,-51.7488 155.512,-44.0328 145.025,-45.537 148.252,-51.7488"/>
</g>
<!-- client1 -->
<g id="node2" class="node"><title>client1</title>
<polygon fill="#95bbe3" stroke="black" points="386.5,-118 386.5,-154 449.5,-154 449.5,-118 386.5,-118"/>
<text text-anchor="middle" x="418" y="-132.3" font-family="'/usr/share/fonts/truetype/wqy/wqy-microhei.ttc'" font-size="14.00">client1</text>
</g>
<!-- client10086 -->
<g id="node5" class="node"><title>client10086</title>
<polygon fill="#ffc1c1" stroke="black" points="486.5,-118 486.5,-154 585.5,-154 585.5,-118 486.5,-118"/>
<text text-anchor="middle" x="536" y="-132.3" font-family="'/usr/share/fonts/truetype/wqy/wqy-microhei.ttc'" font-size="14.00">client10086</text>
</g>
<!-- client1&#45;&gt;client10086 -->
<g id="edge4" class="edge"><title>client1&#45;&gt;client10086</title>
<path fill="none" stroke="black" stroke-width="2" d="M449.781,-136C457.877,-136 466.887,-136 475.932,-136"/>
<polygon fill="black" stroke="black" stroke-width="2" points="476.112,-139.5 486.112,-136 476.112,-132.5 476.112,-139.5"/>
</g>
<!-- client5 -->
<g id="node3" class="node"><title>client5</title>
<polygon fill="#95bbe3" stroke="black" points="268.5,-118 268.5,-154 331.5,-154 331.5,-118 268.5,-118"/>
<text text-anchor="middle" x="300" y="-132.3" font-family="'/usr/share/fonts/truetype/wqy/wqy-microhei.ttc'" font-size="14.00">client5</text>
</g>
<!-- client5&#45;&gt;client1 -->
<g id="edge3" class="edge"><title>client5&#45;&gt;client1</title>
<path fill="none" stroke="black" stroke-width="2" d="M331.781,-136C345.392,-136 361.589,-136 376.189,-136"/>
<polygon fill="black" stroke="black" stroke-width="2" points="376.477,-139.5 386.477,-136 376.477,-132.5 376.477,-139.5"/>
</g>
<!-- client2&#45;&gt;client5 -->
<g id="edge2" class="edge"><title>client2&#45;&gt;client5</title>
<path fill="none" stroke="black" stroke-width="2" d="M213.781,-136C227.392,-136 243.589,-136 258.189,-136"/>
<polygon fill="black" stroke="black" stroke-width="2" points="258.477,-139.5 268.477,-136 258.477,-132.5 258.477,-139.5"/>
</g>
<!-- null_1 -->
<g id="node6" class="node"><title>null_1</title>
<polygon fill="lightgrey" stroke="none" points="676,-154 622,-154 622,-118 676,-118 676,-154"/>
<text text-anchor="middle" x="649" y="-132.3" font-family="'/usr/share/fonts/truetype/wqy/wqy-microhei.ttc'" font-size="14.00">NULL</text>
</g>
<!-- client10086&#45;&gt;null_1 -->
<g id="edge5" class="edge"><title>client10086&#45;&gt;null_1</title>
<path fill="none" stroke="black" stroke-width="2" d="M585.686,-136C594.451,-136 603.446,-136 611.779,-136"/>
<polygon fill="black" stroke="black" stroke-width="2" points="611.913,-139.5 621.913,-136 611.913,-132.5 611.913,-139.5"/>
</g>
<!-- client10086_2 -->
<g id="node8" class="node"><title>client10086_2</title>
<polygon fill="#ffc1c1" stroke="black" points="250.5,-63 250.5,-99 349.5,-99 349.5,-63 250.5,-63"/>
<text text-anchor="middle" x="300" y="-77.3" font-family="'/usr/share/fonts/truetype/wqy/wqy-microhei.ttc'" font-size="14.00">client10086</text>
</g>
<!-- client7&#45;&gt;client10086_2 -->
<g id="edge7" class="edge"><title>client7&#45;&gt;client10086_2</title>
<path fill="none" stroke="black" stroke-width="2" d="M213.781,-81C221.877,-81 230.887,-81 239.932,-81"/>
<polygon fill="black" stroke="black" stroke-width="2" points="240.112,-84.5001 250.112,-81 240.112,-77.5001 240.112,-84.5001"/>
</g>
<!-- null_2 -->
<g id="node9" class="node"><title>null_2</title>
<polygon fill="lightgrey" stroke="none" points="445,-99 391,-99 391,-63 445,-63 445,-99"/>
<text text-anchor="middle" x="418" y="-77.3" font-family="'/usr/share/fonts/truetype/wqy/wqy-microhei.ttc'" font-size="14.00">NULL</text>
</g>
<!-- client10086_2&#45;&gt;null_2 -->
<g id="edge8" class="edge"><title>client10086_2&#45;&gt;null_2</title>
<path fill="none" stroke="black" stroke-width="2" d="M349.522,-81C359.918,-81 370.73,-81 380.576,-81"/>
<polygon fill="black" stroke="black" stroke-width="2" points="380.814,-84.5001 390.814,-81 380.814,-77.5001 380.814,-84.5001"/>
</g>
<!-- client4 -->
<g id="node11" class="node"><title>client4</title>
<polygon fill="#95bbe3" stroke="black" points="268.5,-8 268.5,-44 331.5,-44 331.5,-8 268.5,-8"/>
<text text-anchor="middle" x="300" y="-22.3" font-family="'/usr/share/fonts/truetype/wqy/wqy-microhei.ttc'" font-size="14.00">client4</text>
</g>
<!-- client3&#45;&gt;client4 -->
<g id="edge10" class="edge"><title>client3&#45;&gt;client4</title>
<path fill="none" stroke="black" stroke-width="2" d="M213.781,-26C227.392,-26 243.589,-26 258.189,-26"/>
<polygon fill="black" stroke="black" stroke-width="2" points="258.477,-29.5001 268.477,-26 258.477,-22.5001 258.477,-29.5001"/>
</g>
<!-- client6 -->
<g id="node12" class="node"><title>client6</title>
<polygon fill="#95bbe3" stroke="black" points="386.5,-8 386.5,-44 449.5,-44 449.5,-8 386.5,-8"/>
<text text-anchor="middle" x="418" y="-22.3" font-family="'/usr/share/fonts/truetype/wqy/wqy-microhei.ttc'" font-size="14.00">client6</text>
</g>
<!-- client4&#45;&gt;client6 -->
<g id="edge11" class="edge"><title>client4&#45;&gt;client6</title>
<path fill="none" stroke="black" stroke-width="2" d="M331.781,-26C345.392,-26 361.589,-26 376.189,-26"/>
<polygon fill="black" stroke="black" stroke-width="2" points="376.477,-29.5001 386.477,-26 376.477,-22.5001 376.477,-29.5001"/>
</g>
<!-- null_3 -->
<g id="node13" class="node"><title>null_3</title>
<polygon fill="lightgrey" stroke="none" points="563,-44 509,-44 509,-8 563,-8 563,-44"/>
<text text-anchor="middle" x="536" y="-22.3" font-family="'/usr/share/fonts/truetype/wqy/wqy-microhei.ttc'" font-size="14.00">NULL</text>
</g>
<!-- client6&#45;&gt;null_3 -->
<g id="edge12" class="edge"><title>client6&#45;&gt;null_3</title>
<path fill="none" stroke="black" stroke-width="2" d="M449.781,-26C464.724,-26 482.784,-26 498.425,-26"/>
<polygon fill="black" stroke="black" stroke-width="2" points="498.799,-29.5001 508.799,-26 498.799,-22.5001 498.799,-29.5001"/>
</g>
</g>
</svg>
