<?xml version="1.0" encoding="UTF-8" standalone="no"?>
<!DOCTYPE svg PUBLIC "-//W3C//DTD SVG 1.1//EN"
 "http://www.w3.org/Graphics/SVG/1.1/DTD/svg11.dtd">
<!-- Generated by graphviz version 2.36.0 (20140111.2315)
 -->
<!-- Title: pubsub Pages: 1 -->
<svg width="532pt" height="162pt"
 viewBox="0.00 0.00 532.00 162.00" xmlns="http://www.w3.org/2000/svg" xmlns:xlink="http://www.w3.org/1999/xlink">
<g id="graph0" class="graph" transform="scale(1 1) rotate(0) translate(4 158)">
<title>pubsub</title>
<polygon fill="white" stroke="none" points="-4,4 -4,-158 528,-158 528,4 -4,4"/>
<!-- pubsub -->
<g id="node1" class="node"><title>pubsub</title>
<polygon fill="#a8e270" stroke="black" points="0,-0 0,-138 134,-138 134,-0 0,-0"/>
<text text-anchor="middle" x="67" y="-122.8" font-family="'/usr/share/fonts/truetype/wqy/wqy-microhei.ttc'" font-size="14.00">pubsub_channels</text>
<polyline fill="none" stroke="black" points="0,-115 134,-115 "/>
<text text-anchor="middle" x="67" y="-99.8" font-family="'/usr/share/fonts/truetype/wqy/wqy-microhei.ttc'" font-size="14.00">channel1</text>
<polyline fill="none" stroke="black" points="0,-92 134,-92 "/>
<text text-anchor="middle" x="67" y="-76.8" font-family="'/usr/share/fonts/truetype/wqy/wqy-microhei.ttc'" font-size="14.00">channel2</text>
<polyline fill="none" stroke="black" points="0,-69 134,-69 "/>
<text text-anchor="middle" x="67" y="-53.8" font-family="'/usr/share/fonts/truetype/wqy/wqy-microhei.ttc'" font-size="14.00">channel3</text>
<polyline fill="none" stroke="black" points="0,-46 134,-46 "/>
<text text-anchor="middle" x="67" y="-30.8" font-family="'/usr/share/fonts/truetype/wqy/wqy-microhei.ttc'" font-size="14.00">...</text>
<polyline fill="none" stroke="black" points="0,-23 134,-23 "/>
<text text-anchor="middle" x="67" y="-7.8" font-family="'/usr/share/fonts/truetype/wqy/wqy-microhei.ttc'" font-size="14.00">channelN</text>
</g>
<!-- client2 -->
<g id="node4" class="node"><title>client2</title>
<polygon fill="#95bbe3" stroke="black" points="170.5,-118 170.5,-154 233.5,-154 233.5,-118 170.5,-118"/>
<text text-anchor="middle" x="202" y="-132.3" font-family="'/usr/share/fonts/truetype/wqy/wqy-microhei.ttc'" font-size="14.00">client2</text>
</g>
<!-- pubsub&#45;&gt;client2 -->
<g id="edge1" class="edge"><title>pubsub:channel1&#45;&gt;client2</title>
<path fill="none" stroke="black" stroke-width="2" d="M134,-104C145.547,-104 157.217,-107.918 167.509,-113.012"/>
<polygon fill="black" stroke="black" stroke-width="2" points="166.078,-116.218 176.531,-117.943 169.435,-110.076 166.078,-116.218"/>
</g>
<!-- client7 -->
<g id="node6" class="node"><title>client7</title>
<polygon fill="#95bbe3" stroke="black" points="170.5,-63 170.5,-99 233.5,-99 233.5,-63 170.5,-63"/>
<text text-anchor="middle" x="202" y="-77.3" font-family="'/usr/share/fonts/truetype/wqy/wqy-microhei.ttc'" font-size="14.00">client7</text>
</g>
<!-- pubsub&#45;&gt;client7 -->
<g id="edge5" class="edge"><title>pubsub:channel2&#45;&gt;client7</title>
<path fill="none" stroke="black" stroke-width="2" d="M134,-81C142.435,-81 151.467,-81 160.082,-81"/>
<polygon fill="black" stroke="black" stroke-width="2" points="160.314,-84.5001 170.314,-81 160.314,-77.5001 160.314,-84.5001"/>
</g>
<!-- client3 -->
<g id="node8" class="node"><title>client3</title>
<polygon fill="#95bbe3" stroke="black" points="170.5,-8 170.5,-44 233.5,-44 233.5,-8 170.5,-8"/>
<text text-anchor="middle" x="202" y="-22.3" font-family="'/usr/share/fonts/truetype/wqy/wqy-microhei.ttc'" font-size="14.00">client3</text>
</g>
<!-- pubsub&#45;&gt;client3 -->
<g id="edge7" class="edge"><title>pubsub:channel3&#45;&gt;client3</title>
<path fill="none" stroke="black" stroke-width="2" d="M134,-57C145.187,-57 156.533,-53.3965 166.631,-48.6467"/>
<polygon fill="black" stroke="black" stroke-width="2" points="168.252,-51.7488 175.512,-44.0328 165.025,-45.537 168.252,-51.7488"/>
</g>
<!-- client1 -->
<g id="node2" class="node"><title>client1</title>
<polygon fill="#95bbe3" stroke="black" points="370.5,-118 370.5,-154 433.5,-154 433.5,-118 370.5,-118"/>
<text text-anchor="middle" x="402" y="-132.3" font-family="'/usr/share/fonts/truetype/wqy/wqy-microhei.ttc'" font-size="14.00">client1</text>
</g>
<!-- null_1 -->
<g id="node5" class="node"><title>null_1</title>
<polygon fill="lightgrey" stroke="none" points="524,-154 470,-154 470,-118 524,-118 524,-154"/>
<text text-anchor="middle" x="497" y="-132.3" font-family="'/usr/share/fonts/truetype/wqy/wqy-microhei.ttc'" font-size="14.00">NULL</text>
</g>
<!-- client1&#45;&gt;null_1 -->
<g id="edge4" class="edge"><title>client1&#45;&gt;null_1</title>
<path fill="none" stroke="black" stroke-width="2" d="M433.709,-136C442.06,-136 451.181,-136 459.804,-136"/>
<polygon fill="black" stroke="black" stroke-width="2" points="459.991,-139.5 469.991,-136 459.991,-132.5 459.991,-139.5"/>
</g>
<!-- client5 -->
<g id="node3" class="node"><title>client5</title>
<polygon fill="#95bbe3" stroke="black" points="270.5,-118 270.5,-154 333.5,-154 333.5,-118 270.5,-118"/>
<text text-anchor="middle" x="302" y="-132.3" font-family="'/usr/share/fonts/truetype/wqy/wqy-microhei.ttc'" font-size="14.00">client5</text>
</g>
<!-- client5&#45;&gt;client1 -->
<g id="edge3" class="edge"><title>client5&#45;&gt;client1</title>
<path fill="none" stroke="black" stroke-width="2" d="M333.739,-136C342.131,-136 351.357,-136 360.214,-136"/>
<polygon fill="black" stroke="black" stroke-width="2" points="360.37,-139.5 370.37,-136 360.37,-132.5 360.37,-139.5"/>
</g>
<!-- client2&#45;&gt;client5 -->
<g id="edge2" class="edge"><title>client2&#45;&gt;client5</title>
<path fill="none" stroke="black" stroke-width="2" d="M233.739,-136C242.131,-136 251.357,-136 260.214,-136"/>
<polygon fill="black" stroke="black" stroke-width="2" points="260.37,-139.5 270.37,-136 260.37,-132.5 260.37,-139.5"/>
</g>
<!-- null_2 -->
<g id="node7" class="node"><title>null_2</title>
<polygon fill="lightgrey" stroke="none" points="329,-99 275,-99 275,-63 329,-63 329,-99"/>
<text text-anchor="middle" x="302" y="-77.3" font-family="'/usr/share/fonts/truetype/wqy/wqy-microhei.ttc'" font-size="14.00">NULL</text>
</g>
<!-- client7&#45;&gt;null_2 -->
<g id="edge6" class="edge"><title>client7&#45;&gt;null_2</title>
<path fill="none" stroke="black" stroke-width="2" d="M233.739,-81C243.571,-81 254.548,-81 264.735,-81"/>
<polygon fill="black" stroke="black" stroke-width="2" points="264.985,-84.5001 274.985,-81 264.985,-77.5001 264.985,-84.5001"/>
</g>
<!-- client4 -->
<g id="node9" class="node"><title>client4</title>
<polygon fill="#95bbe3" stroke="black" points="270.5,-8 270.5,-44 333.5,-44 333.5,-8 270.5,-8"/>
<text text-anchor="middle" x="302" y="-22.3" font-family="'/usr/share/fonts/truetype/wqy/wqy-microhei.ttc'" font-size="14.00">client4</text>
</g>
<!-- client3&#45;&gt;client4 -->
<g id="edge8" class="edge"><title>client3&#45;&gt;client4</title>
<path fill="none" stroke="black" stroke-width="2" d="M233.739,-26C242.131,-26 251.357,-26 260.214,-26"/>
<polygon fill="black" stroke="black" stroke-width="2" points="260.37,-29.5001 270.37,-26 260.37,-22.5001 260.37,-29.5001"/>
</g>
<!-- client6 -->
<g id="node10" class="node"><title>client6</title>
<polygon fill="#95bbe3" stroke="black" points="370.5,-8 370.5,-44 433.5,-44 433.5,-8 370.5,-8"/>
<text text-anchor="middle" x="402" y="-22.3" font-family="'/usr/share/fonts/truetype/wqy/wqy-microhei.ttc'" font-size="14.00">client6</text>
</g>
<!-- client4&#45;&gt;client6 -->
<g id="edge9" class="edge"><title>client4&#45;&gt;client6</title>
<path fill="none" stroke="black" stroke-width="2" d="M333.739,-26C342.131,-26 351.357,-26 360.214,-26"/>
<polygon fill="black" stroke="black" stroke-width="2" points="360.37,-29.5001 370.37,-26 360.37,-22.5001 360.37,-29.5001"/>
</g>
<!-- null_3 -->
<g id="node11" class="node"><title>null_3</title>
<polygon fill="lightgrey" stroke="none" points="524,-44 470,-44 470,-8 524,-8 524,-44"/>
<text text-anchor="middle" x="497" y="-22.3" font-family="'/usr/share/fonts/truetype/wqy/wqy-microhei.ttc'" font-size="14.00">NULL</text>
</g>
<!-- client6&#45;&gt;null_3 -->
<g id="edge10" class="edge"><title>client6&#45;&gt;null_3</title>
<path fill="none" stroke="black" stroke-width="2" d="M433.709,-26C442.06,-26 451.181,-26 459.804,-26"/>
<polygon fill="black" stroke="black" stroke-width="2" points="459.991,-29.5001 469.991,-26 459.991,-22.5001 459.991,-29.5001"/>
</g>
</g>
</svg>
