<?xml version="1.0" encoding="UTF-8" standalone="no"?>
<!DOCTYPE svg PUBLIC "-//W3C//DTD SVG 1.1//EN"
 "http://www.w3.org/Graphics/SVG/1.1/DTD/svg11.dtd">
<!-- Generated by graphviz version 2.36.0 (20140111.2315)
 -->
<!-- Title: rehash_step_three Pages: 1 -->
<svg width="698pt" height="685pt"
 viewBox="0.00 0.00 698.00 685.00" xmlns="http://www.w3.org/2000/svg" xmlns:xlink="http://www.w3.org/1999/xlink">
<g id="graph0" class="graph" transform="scale(1 1) rotate(0) translate(4 681)">
<title>rehash_step_three</title>
<polygon fill="white" stroke="none" points="-4,4 -4,-681 694,-681 694,4 -4,4"/>
<!-- dict -->
<g id="node1" class="node"><title>dict</title>
<polygon fill="#a8e270" stroke="black" points="0,-495 0,-633 102,-633 102,-495 0,-495"/>
<text text-anchor="middle" x="51" y="-617.8" font-family="'/usr/share/fonts/truetype/wqy/wqy-microhei.ttc'" font-size="14.00">dict</text>
<polyline fill="none" stroke="black" points="0,-610 102,-610 "/>
<text text-anchor="middle" x="51" y="-594.8" font-family="'/usr/share/fonts/truetype/wqy/wqy-microhei.ttc'" font-size="14.00">type</text>
<polyline fill="none" stroke="black" points="0,-587 102,-587 "/>
<text text-anchor="middle" x="51" y="-571.8" font-family="'/usr/share/fonts/truetype/wqy/wqy-microhei.ttc'" font-size="14.00">privdata</text>
<polyline fill="none" stroke="black" points="0,-564 102,-564 "/>
<text text-anchor="middle" x="51" y="-548.8" font-family="'/usr/share/fonts/truetype/wqy/wqy-microhei.ttc'" font-size="14.00">ht[2]</text>
<polyline fill="none" stroke="black" points="0,-541 102,-541 "/>
<text text-anchor="middle" x="51" y="-525.8" font-family="'/usr/share/fonts/truetype/wqy/wqy-microhei.ttc'" font-size="14.00">rehashidx: 3</text>
<polyline fill="none" stroke="black" points="0,-518 102,-518 "/>
<text text-anchor="middle" x="51" y="-502.8" font-family="'/usr/share/fonts/truetype/wqy/wqy-microhei.ttc'" font-size="14.00">iterators</text>
</g>
<!-- ht0 -->
<g id="node2" class="node"><title>ht0</title>
<polygon fill="#95bbe3" stroke="black" points="166,-506.5 166,-621.5 264,-621.5 264,-506.5 166,-506.5"/>
<text text-anchor="middle" x="215" y="-606.3" font-family="'/usr/share/fonts/truetype/wqy/wqy-microhei.ttc'" font-size="14.00">dictht</text>
<polyline fill="none" stroke="black" points="166,-598.5 264,-598.5 "/>
<text text-anchor="middle" x="215" y="-583.3" font-family="'/usr/share/fonts/truetype/wqy/wqy-microhei.ttc'" font-size="14.00">table</text>
<polyline fill="none" stroke="black" points="166,-575.5 264,-575.5 "/>
<text text-anchor="middle" x="215" y="-560.3" font-family="'/usr/share/fonts/truetype/wqy/wqy-microhei.ttc'" font-size="14.00">size: 4</text>
<polyline fill="none" stroke="black" points="166,-552.5 264,-552.5 "/>
<text text-anchor="middle" x="215" y="-537.3" font-family="'/usr/share/fonts/truetype/wqy/wqy-microhei.ttc'" font-size="14.00">sizemask: 3</text>
<polyline fill="none" stroke="black" points="166,-529.5 264,-529.5 "/>
<text text-anchor="middle" x="215" y="-514.3" font-family="'/usr/share/fonts/truetype/wqy/wqy-microhei.ttc'" font-size="14.00">used: 0</text>
</g>
<!-- dict&#45;&gt;ht0 -->
<g id="edge1" class="edge"><title>dict:ht&#45;&gt;ht0:dictht</title>
<path fill="none" stroke="black" stroke-width="2" d="M102,-552C136.489,-552 129.68,-598.817 155.78,-608.327"/>
<polygon fill="black" stroke="black" stroke-width="2" points="155.566,-611.838 166,-610 156.697,-604.93 155.566,-611.838"/>
<text text-anchor="middle" x="134" y="-605.8" font-family="Times,serif" font-size="14.00">ht[0]</text>
</g>
<!-- ht1 -->
<g id="node3" class="node"><title>ht1</title>
<polygon fill="#95bbe3" stroke="black" points="166,-364.5 166,-479.5 264,-479.5 264,-364.5 166,-364.5"/>
<text text-anchor="middle" x="215" y="-464.3" font-family="'/usr/share/fonts/truetype/wqy/wqy-microhei.ttc'" font-size="14.00">dictht</text>
<polyline fill="none" stroke="black" points="166,-456.5 264,-456.5 "/>
<text text-anchor="middle" x="215" y="-441.3" font-family="'/usr/share/fonts/truetype/wqy/wqy-microhei.ttc'" font-size="14.00">table</text>
<polyline fill="none" stroke="black" points="166,-433.5 264,-433.5 "/>
<text text-anchor="middle" x="215" y="-418.3" font-family="'/usr/share/fonts/truetype/wqy/wqy-microhei.ttc'" font-size="14.00">size: 8</text>
<polyline fill="none" stroke="black" points="166,-410.5 264,-410.5 "/>
<text text-anchor="middle" x="215" y="-395.3" font-family="'/usr/share/fonts/truetype/wqy/wqy-microhei.ttc'" font-size="14.00">sizemask: 7</text>
<polyline fill="none" stroke="black" points="166,-387.5 264,-387.5 "/>
<text text-anchor="middle" x="215" y="-372.3" font-family="'/usr/share/fonts/truetype/wqy/wqy-microhei.ttc'" font-size="14.00">used: 4</text>
</g>
<!-- dict&#45;&gt;ht1 -->
<g id="edge2" class="edge"><title>dict:ht&#45;&gt;ht1:dictht</title>
<path fill="none" stroke="black" stroke-width="2" d="M102,-552C122.259,-552 137.747,-489.399 156.701,-472.281"/>
<polygon fill="black" stroke="black" stroke-width="2" points="158.38,-475.361 166,-468 155.453,-469.003 158.38,-475.361"/>
<text text-anchor="middle" x="134" y="-538.8" font-family="Times,serif" font-size="14.00">ht[1]</text>
</g>
<!-- bucket -->
<g id="node4" class="node"><title>bucket</title>
<polygon fill="#f2f2f2" stroke="black" points="302.5,-517 302.5,-647 397.5,-647 397.5,-517 302.5,-517"/>
<text text-anchor="middle" x="350" y="-631.8" font-family="'/usr/share/fonts/truetype/wqy/wqy-microhei.ttc'" font-size="14.00">dictEntry**</text>
<text text-anchor="middle" x="350" y="-616.8" font-family="'/usr/share/fonts/truetype/wqy/wqy-microhei.ttc'" font-size="14.00">(bucket)</text>
<polyline fill="none" stroke="black" points="302.5,-609 397.5,-609 "/>
<text text-anchor="middle" x="350" y="-593.8" font-family="'/usr/share/fonts/truetype/wqy/wqy-microhei.ttc'" font-size="14.00">0</text>
<polyline fill="none" stroke="black" points="302.5,-586 397.5,-586 "/>
<text text-anchor="middle" x="350" y="-570.8" font-family="'/usr/share/fonts/truetype/wqy/wqy-microhei.ttc'" font-size="14.00">1</text>
<polyline fill="none" stroke="black" points="302.5,-563 397.5,-563 "/>
<text text-anchor="middle" x="350" y="-547.8" font-family="'/usr/share/fonts/truetype/wqy/wqy-microhei.ttc'" font-size="14.00">2</text>
<polyline fill="none" stroke="black" points="302.5,-540 397.5,-540 "/>
<text text-anchor="middle" x="350" y="-524.8" font-family="'/usr/share/fonts/truetype/wqy/wqy-microhei.ttc'" font-size="14.00">3</text>
</g>
<!-- ht0&#45;&gt;bucket -->
<g id="edge3" class="edge"><title>ht0:table&#45;&gt;bucket:head</title>
<path fill="none" stroke="black" stroke-width="2" d="M264,-587C284.769,-587 280.007,-615.65 292.399,-625.051"/>
<polygon fill="black" stroke="black" stroke-width="2" points="291.413,-628.41 302,-628 293.468,-621.718 291.413,-628.41"/>
</g>
<!-- bucket1 -->
<g id="node5" class="node"><title>bucket1</title>
<polygon fill="#f2f2f2" stroke="black" points="302.5,-161 302.5,-383 397.5,-383 397.5,-161 302.5,-161"/>
<text text-anchor="middle" x="350" y="-367.8" font-family="'/usr/share/fonts/truetype/wqy/wqy-microhei.ttc'" font-size="14.00">dictEntry**</text>
<text text-anchor="middle" x="350" y="-352.8" font-family="'/usr/share/fonts/truetype/wqy/wqy-microhei.ttc'" font-size="14.00">(bucket)</text>
<polyline fill="none" stroke="black" points="302.5,-345 397.5,-345 "/>
<text text-anchor="middle" x="350" y="-329.8" font-family="'/usr/share/fonts/truetype/wqy/wqy-microhei.ttc'" font-size="14.00">0</text>
<polyline fill="none" stroke="black" points="302.5,-322 397.5,-322 "/>
<text text-anchor="middle" x="350" y="-306.8" font-family="'/usr/share/fonts/truetype/wqy/wqy-microhei.ttc'" font-size="14.00">1</text>
<polyline fill="none" stroke="black" points="302.5,-299 397.5,-299 "/>
<text text-anchor="middle" x="350" y="-283.8" font-family="'/usr/share/fonts/truetype/wqy/wqy-microhei.ttc'" font-size="14.00">2</text>
<polyline fill="none" stroke="black" points="302.5,-276 397.5,-276 "/>
<text text-anchor="middle" x="350" y="-260.8" font-family="'/usr/share/fonts/truetype/wqy/wqy-microhei.ttc'" font-size="14.00">3</text>
<polyline fill="none" stroke="black" points="302.5,-253 397.5,-253 "/>
<text text-anchor="middle" x="350" y="-237.8" font-family="'/usr/share/fonts/truetype/wqy/wqy-microhei.ttc'" font-size="14.00">4</text>
<polyline fill="none" stroke="black" points="302.5,-230 397.5,-230 "/>
<text text-anchor="middle" x="350" y="-214.8" font-family="'/usr/share/fonts/truetype/wqy/wqy-microhei.ttc'" font-size="14.00">5</text>
<polyline fill="none" stroke="black" points="302.5,-207 397.5,-207 "/>
<text text-anchor="middle" x="350" y="-191.8" font-family="'/usr/share/fonts/truetype/wqy/wqy-microhei.ttc'" font-size="14.00">6</text>
<polyline fill="none" stroke="black" points="302.5,-184 397.5,-184 "/>
<text text-anchor="middle" x="350" y="-168.8" font-family="'/usr/share/fonts/truetype/wqy/wqy-microhei.ttc'" font-size="14.00">7</text>
</g>
<!-- ht1&#45;&gt;bucket1 -->
<g id="edge4" class="edge"><title>ht1:table&#45;&gt;bucket1:head</title>
<path fill="none" stroke="black" stroke-width="2" d="M264,-445C299.726,-445 269.832,-379.618 292.229,-366.337"/>
<polygon fill="black" stroke="black" stroke-width="2" points="293.088,-369.73 302,-364 291.46,-362.922 293.088,-369.73"/>
</g>
<!-- null0 -->
<g id="node10" class="node"><title>null0</title>
<polygon fill="lightgrey" stroke="none" points="544,-677 490,-677 490,-641 544,-641 544,-677"/>
<text text-anchor="middle" x="517" y="-655.3" font-family="'/usr/share/fonts/truetype/wqy/wqy-microhei.ttc'" font-size="14.00">NULL</text>
</g>
<!-- bucket&#45;&gt;null0 -->
<g id="edge5" class="edge"><title>bucket:table0&#45;&gt;null0</title>
<path fill="none" stroke="black" stroke-width="2" d="M398,-598C420.662,-598 416.42,-620.588 436,-632 449.452,-639.84 465.514,-645.823 479.703,-650.139"/>
<polygon fill="black" stroke="black" stroke-width="2" points="479.063,-653.597 489.641,-652.99 480.994,-646.868 479.063,-653.597"/>
</g>
<!-- null1 -->
<g id="node11" class="node"><title>null1</title>
<polygon fill="lightgrey" stroke="none" points="544,-623 490,-623 490,-587 544,-587 544,-623"/>
<text text-anchor="middle" x="517" y="-601.3" font-family="'/usr/share/fonts/truetype/wqy/wqy-microhei.ttc'" font-size="14.00">NULL</text>
</g>
<!-- bucket&#45;&gt;null1 -->
<g id="edge6" class="edge"><title>bucket:table1&#45;&gt;null1</title>
<path fill="none" stroke="black" stroke-width="2" d="M398,-574C426.23,-574 457.049,-582.402 480.109,-590.458"/>
<polygon fill="black" stroke="black" stroke-width="2" points="479.21,-593.855 489.804,-593.983 481.602,-587.277 479.21,-593.855"/>
</g>
<!-- null2 -->
<g id="node12" class="node"><title>null2</title>
<polygon fill="lightgrey" stroke="none" points="544,-569 490,-569 490,-533 544,-533 544,-569"/>
<text text-anchor="middle" x="517" y="-547.3" font-family="'/usr/share/fonts/truetype/wqy/wqy-microhei.ttc'" font-size="14.00">NULL</text>
</g>
<!-- bucket&#45;&gt;null2 -->
<g id="edge7" class="edge"><title>bucket:table2&#45;&gt;null2</title>
<path fill="none" stroke="black" stroke-width="2" d="M398,-551C425.359,-551 456.285,-551 479.612,-551"/>
<polygon fill="black" stroke="black" stroke-width="2" points="479.755,-554.5 489.755,-551 479.755,-547.5 479.755,-554.5"/>
</g>
<!-- null3 -->
<g id="node13" class="node"><title>null3</title>
<polygon fill="lightgrey" stroke="none" points="544,-515 490,-515 490,-479 544,-479 544,-515"/>
<text text-anchor="middle" x="517" y="-493.3" font-family="'/usr/share/fonts/truetype/wqy/wqy-microhei.ttc'" font-size="14.00">NULL</text>
</g>
<!-- bucket&#45;&gt;null3 -->
<g id="edge8" class="edge"><title>bucket:table3&#45;&gt;null3</title>
<path fill="none" stroke="black" stroke-width="2" d="M398,-528C426.23,-528 457.049,-519.598 480.109,-511.542"/>
<polygon fill="black" stroke="black" stroke-width="2" points="481.602,-514.723 489.804,-508.017 479.21,-508.145 481.602,-514.723"/>
</g>
<!-- pair_1 -->
<g id="node6" class="node"><title>pair_1</title>
<polygon fill="#ffc1c1" stroke="black" points="436.5,-55 436.5,-101 597.5,-101 597.5,-55 436.5,-55"/>
<text text-anchor="middle" x="517" y="-85.8" font-family="'/usr/share/fonts/truetype/wqy/wqy-microhei.ttc'" font-size="14.00">dictEntry</text>
<polyline fill="none" stroke="black" points="436.5,-78 597.5,-78 "/>
<text text-anchor="middle" x="461.5" y="-62.8" font-family="'/usr/share/fonts/truetype/wqy/wqy-microhei.ttc'" font-size="14.00">key1</text>
<polyline fill="none" stroke="black" points="486.5,-55 486.5,-78 "/>
<text text-anchor="middle" x="518" y="-62.8" font-family="'/usr/share/fonts/truetype/wqy/wqy-microhei.ttc'" font-size="14.00">value1</text>
<polyline fill="none" stroke="black" points="549.5,-55 549.5,-78 "/>
<text text-anchor="middle" x="573.5" y="-62.8" font-family="'/usr/share/fonts/truetype/wqy/wqy-microhei.ttc'" font-size="14.00">next</text>
</g>
<!-- bucket1&#45;&gt;pair_1 -->
<g id="edge18" class="edge"><title>bucket1:table6&#45;&gt;pair_1:head</title>
<path fill="none" stroke="black" stroke-width="2" d="M398,-195C443.558,-195 395.675,-106.52 425.903,-92.0038"/>
<polygon fill="black" stroke="black" stroke-width="2" points="426.873,-95.3796 436,-90 425.51,-88.5135 426.873,-95.3796"/>
</g>
<!-- pair_2 -->
<g id="node7" class="node"><title>pair_2</title>
<polygon fill="#ffc1c1" stroke="black" points="436.5,-229 436.5,-275 597.5,-275 597.5,-229 436.5,-229"/>
<text text-anchor="middle" x="517" y="-259.8" font-family="'/usr/share/fonts/truetype/wqy/wqy-microhei.ttc'" font-size="14.00">dictEntry</text>
<polyline fill="none" stroke="black" points="436.5,-252 597.5,-252 "/>
<text text-anchor="middle" x="461.5" y="-236.8" font-family="'/usr/share/fonts/truetype/wqy/wqy-microhei.ttc'" font-size="14.00">key2</text>
<polyline fill="none" stroke="black" points="486.5,-229 486.5,-252 "/>
<text text-anchor="middle" x="518" y="-236.8" font-family="'/usr/share/fonts/truetype/wqy/wqy-microhei.ttc'" font-size="14.00">value2</text>
<polyline fill="none" stroke="black" points="549.5,-229 549.5,-252 "/>
<text text-anchor="middle" x="573.5" y="-236.8" font-family="'/usr/share/fonts/truetype/wqy/wqy-microhei.ttc'" font-size="14.00">next</text>
</g>
<!-- bucket1&#45;&gt;pair_2 -->
<g id="edge14" class="edge"><title>bucket1:table3&#45;&gt;pair_2:head</title>
<path fill="none" stroke="black" stroke-width="2" d="M398,-264C410.931,-264 416.436,-264 425.886,-264"/>
<polygon fill="black" stroke="black" stroke-width="2" points="426,-267.5 436,-264 426,-260.5 426,-267.5"/>
</g>
<!-- pair_3 -->
<g id="node8" class="node"><title>pair_3</title>
<polygon fill="#ffc1c1" stroke="black" points="436.5,-414 436.5,-460 597.5,-460 597.5,-414 436.5,-414"/>
<text text-anchor="middle" x="517" y="-444.8" font-family="'/usr/share/fonts/truetype/wqy/wqy-microhei.ttc'" font-size="14.00">dictEntry</text>
<polyline fill="none" stroke="black" points="436.5,-437 597.5,-437 "/>
<text text-anchor="middle" x="461.5" y="-421.8" font-family="'/usr/share/fonts/truetype/wqy/wqy-microhei.ttc'" font-size="14.00">key3</text>
<polyline fill="none" stroke="black" points="486.5,-414 486.5,-437 "/>
<text text-anchor="middle" x="518" y="-421.8" font-family="'/usr/share/fonts/truetype/wqy/wqy-microhei.ttc'" font-size="14.00">value3</text>
<polyline fill="none" stroke="black" points="549.5,-414 549.5,-437 "/>
<text text-anchor="middle" x="573.5" y="-421.8" font-family="'/usr/share/fonts/truetype/wqy/wqy-microhei.ttc'" font-size="14.00">next</text>
</g>
<!-- bucket1&#45;&gt;pair_3 -->
<g id="edge9" class="edge"><title>bucket1:table0&#45;&gt;pair_3:head</title>
<path fill="none" stroke="black" stroke-width="2" d="M398,-334C421.34,-334 412.536,-420.482 427.338,-443.453"/>
<polygon fill="black" stroke="black" stroke-width="2" points="425.691,-446.555 436,-449 429.466,-440.66 425.691,-446.555"/>
</g>
<!-- pair_4 -->
<g id="node9" class="node"><title>pair_4</title>
<polygon fill="#ffc1c1" stroke="black" points="436.5,-349 436.5,-395 597.5,-395 597.5,-349 436.5,-349"/>
<text text-anchor="middle" x="517" y="-379.8" font-family="'/usr/share/fonts/truetype/wqy/wqy-microhei.ttc'" font-size="14.00">dictEntry</text>
<polyline fill="none" stroke="black" points="436.5,-372 597.5,-372 "/>
<text text-anchor="middle" x="461.5" y="-356.8" font-family="'/usr/share/fonts/truetype/wqy/wqy-microhei.ttc'" font-size="14.00">key4</text>
<polyline fill="none" stroke="black" points="486.5,-349 486.5,-372 "/>
<text text-anchor="middle" x="518" y="-356.8" font-family="'/usr/share/fonts/truetype/wqy/wqy-microhei.ttc'" font-size="14.00">value4</text>
<polyline fill="none" stroke="black" points="549.5,-349 549.5,-372 "/>
<text text-anchor="middle" x="573.5" y="-356.8" font-family="'/usr/share/fonts/truetype/wqy/wqy-microhei.ttc'" font-size="14.00">next</text>
</g>
<!-- bucket1&#45;&gt;pair_4 -->
<g id="edge11" class="edge"><title>bucket1:table1&#45;&gt;pair_4:head</title>
<path fill="none" stroke="black" stroke-width="2" d="M398,-311C430.434,-311 406.467,-368.398 426.122,-381.402"/>
<polygon fill="black" stroke="black" stroke-width="2" points="425.439,-384.841 436,-384 427.219,-378.071 425.439,-384.841"/>
</g>
<!-- null12 -->
<g id="node16" class="node"><title>null12</title>
<polygon fill="lightgrey" stroke="none" points="544,-330 490,-330 490,-294 544,-294 544,-330"/>
<text text-anchor="middle" x="517" y="-308.3" font-family="'/usr/share/fonts/truetype/wqy/wqy-microhei.ttc'" font-size="14.00">NULL</text>
</g>
<!-- bucket1&#45;&gt;null12 -->
<g id="edge13" class="edge"><title>bucket1:table2&#45;&gt;null12</title>
<path fill="none" stroke="black" stroke-width="2" d="M398,-288C425.862,-288 456.696,-294.505 479.856,-300.742"/>
<polygon fill="black" stroke="black" stroke-width="2" points="479.025,-304.144 489.599,-303.471 480.914,-297.403 479.025,-304.144"/>
</g>
<!-- null14 -->
<g id="node18" class="node"><title>null14</title>
<polygon fill="lightgrey" stroke="none" points="544,-210 490,-210 490,-174 544,-174 544,-210"/>
<text text-anchor="middle" x="517" y="-188.3" font-family="'/usr/share/fonts/truetype/wqy/wqy-microhei.ttc'" font-size="14.00">NULL</text>
</g>
<!-- bucket1&#45;&gt;null14 -->
<g id="edge16" class="edge"><title>bucket1:table4&#45;&gt;null14</title>
<path fill="none" stroke="black" stroke-width="2" d="M398,-241C417.515,-241 418.222,-227.049 436,-219 450.077,-212.627 466.125,-206.924 480.135,-202.42"/>
<polygon fill="black" stroke="black" stroke-width="2" points="481.419,-205.686 489.918,-199.36 479.329,-199.005 481.419,-205.686"/>
</g>
<!-- null15 -->
<g id="node19" class="node"><title>null15</title>
<polygon fill="lightgrey" stroke="none" points="544,-156 490,-156 490,-120 544,-120 544,-156"/>
<text text-anchor="middle" x="517" y="-134.3" font-family="'/usr/share/fonts/truetype/wqy/wqy-microhei.ttc'" font-size="14.00">NULL</text>
</g>
<!-- bucket1&#45;&gt;null15 -->
<g id="edge17" class="edge"><title>bucket1:table5&#45;&gt;null15</title>
<path fill="none" stroke="black" stroke-width="2" d="M398,-218C426.984,-218 412.702,-182.243 436,-165 448.924,-155.435 465.46,-149.11 480.14,-145.004"/>
<polygon fill="black" stroke="black" stroke-width="2" points="481.115,-148.368 489.939,-142.504 479.384,-141.585 481.115,-148.368"/>
</g>
<!-- null17 -->
<g id="node21" class="node"><title>null17</title>
<polygon fill="lightgrey" stroke="none" points="544,-36 490,-36 490,-0 544,-0 544,-36"/>
<text text-anchor="middle" x="517" y="-14.3" font-family="'/usr/share/fonts/truetype/wqy/wqy-microhei.ttc'" font-size="14.00">NULL</text>
</g>
<!-- bucket1&#45;&gt;null17 -->
<g id="edge20" class="edge"><title>bucket1:table7&#45;&gt;null17</title>
<path fill="none" stroke="black" stroke-width="2" d="M398,-172C415.14,-172 410.913,-113.368 416,-97 423.35,-73.3543 418.13,-62.1404 436,-45 447.862,-33.6227 464.679,-27.0322 479.836,-23.2178"/>
<polygon fill="black" stroke="black" stroke-width="2" points="480.963,-26.5541 489.983,-20.996 479.466,-19.7161 480.963,-26.5541"/>
</g>
<!-- null16 -->
<g id="node20" class="node"><title>null16</title>
<polygon fill="lightgrey" stroke="none" points="690,-84 636,-84 636,-48 690,-48 690,-84"/>
<text text-anchor="middle" x="663" y="-62.3" font-family="'/usr/share/fonts/truetype/wqy/wqy-microhei.ttc'" font-size="14.00">NULL</text>
</g>
<!-- pair_1&#45;&gt;null16 -->
<g id="edge19" class="edge"><title>pair_1:next&#45;&gt;null16</title>
<path fill="none" stroke="black" stroke-width="2" d="M598,-66C606.944,-66 616.592,-66 625.616,-66"/>
<polygon fill="black" stroke="black" stroke-width="2" points="625.844,-69.5001 635.844,-66 625.844,-62.5001 625.844,-69.5001"/>
</g>
<!-- null13 -->
<g id="node17" class="node"><title>null13</title>
<polygon fill="lightgrey" stroke="none" points="690,-258 636,-258 636,-222 690,-222 690,-258"/>
<text text-anchor="middle" x="663" y="-236.3" font-family="'/usr/share/fonts/truetype/wqy/wqy-microhei.ttc'" font-size="14.00">NULL</text>
</g>
<!-- pair_2&#45;&gt;null13 -->
<g id="edge15" class="edge"><title>pair_2:next&#45;&gt;null13</title>
<path fill="none" stroke="black" stroke-width="2" d="M598,-240C606.944,-240 616.592,-240 625.616,-240"/>
<polygon fill="black" stroke="black" stroke-width="2" points="625.844,-243.5 635.844,-240 625.844,-236.5 625.844,-243.5"/>
</g>
<!-- null10 -->
<g id="node14" class="node"><title>null10</title>
<polygon fill="lightgrey" stroke="none" points="690,-443 636,-443 636,-407 690,-407 690,-443"/>
<text text-anchor="middle" x="663" y="-421.3" font-family="'/usr/share/fonts/truetype/wqy/wqy-microhei.ttc'" font-size="14.00">NULL</text>
</g>
<!-- pair_3&#45;&gt;null10 -->
<g id="edge10" class="edge"><title>pair_3:next&#45;&gt;null10</title>
<path fill="none" stroke="black" stroke-width="2" d="M598,-425C606.944,-425 616.592,-425 625.616,-425"/>
<polygon fill="black" stroke="black" stroke-width="2" points="625.844,-428.5 635.844,-425 625.844,-421.5 625.844,-428.5"/>
</g>
<!-- null11 -->
<g id="node15" class="node"><title>null11</title>
<polygon fill="lightgrey" stroke="none" points="690,-378 636,-378 636,-342 690,-342 690,-378"/>
<text text-anchor="middle" x="663" y="-356.3" font-family="'/usr/share/fonts/truetype/wqy/wqy-microhei.ttc'" font-size="14.00">NULL</text>
</g>
<!-- pair_4&#45;&gt;null11 -->
<g id="edge12" class="edge"><title>pair_4:next&#45;&gt;null11</title>
<path fill="none" stroke="black" stroke-width="2" d="M598,-360C606.944,-360 616.592,-360 625.616,-360"/>
<polygon fill="black" stroke="black" stroke-width="2" points="625.844,-363.5 635.844,-360 625.844,-356.5 625.844,-363.5"/>
</g>
</g>
</svg>
