<?xml version="1.0" encoding="UTF-8" standalone="no"?>
<!DOCTYPE svg PUBLIC "-//W3C//DTD SVG 1.1//EN"
 "http://www.w3.org/Graphics/SVG/1.1/DTD/svg11.dtd">
<!-- Generated by graphviz version 2.36.0 (20140111.2315)
 -->
<!-- Title: p Pages: 1 -->
<svg width="264pt" height="220pt"
 viewBox="0.00 0.00 264.00 220.00" xmlns="http://www.w3.org/2000/svg" xmlns:xlink="http://www.w3.org/1999/xlink">
<g id="graph0" class="graph" transform="scale(1 1) rotate(0) translate(4 216)">
<title>p</title>
<polygon fill="white" stroke="none" points="-4,4 -4,-216 260,-216 260,4 -4,4"/>
<!-- client -->
<g id="node1" class="node"><title>client</title>
<ellipse fill="#95bbe3" stroke="black" cx="119" cy="-194" rx="38.0212" ry="18"/>
<text text-anchor="middle" x="119" y="-190.3" font-family="'/usr/share/fonts/truetype/wqy/wqy-microhei.ttc'" font-size="14.00">客户端</text>
</g>
<!-- server -->
<g id="node2" class="node"><title>server</title>
<ellipse fill="#a8e270" stroke="black" cx="119" cy="-106" rx="38.0212" ry="18"/>
<text text-anchor="middle" x="119" y="-102.3" font-family="'/usr/share/fonts/truetype/wqy/wqy-microhei.ttc'" font-size="14.00">服务器</text>
</g>
<!-- client&#45;&gt;server -->
<g id="edge1" class="edge"><title>client&#45;&gt;server</title>
<path fill="none" stroke="black" stroke-width="2" stroke-dasharray="5,2" d="M119,-175.597C119,-163.746 119,-147.817 119,-134.292"/>
<polygon fill="black" stroke="black" stroke-width="2" points="122.5,-134.084 119,-124.084 115.5,-134.084 122.5,-134.084"/>
<text text-anchor="middle" x="148" y="-146.3" font-family="Times,serif" font-size="14.00">命令请求</text>
</g>
<!-- current_aof -->
<g id="node3" class="node"><title>current_aof</title>
<polygon fill="#fadcad" stroke="black" points="111.5,-36 0.5,-36 0.5,-0 111.5,-0 111.5,-36"/>
<text text-anchor="middle" x="56" y="-14.3" font-family="'/usr/share/fonts/truetype/wqy/wqy-microhei.ttc'" font-size="14.00">现有 AOF 文件</text>
</g>
<!-- server&#45;&gt;current_aof -->
<g id="edge2" class="edge"><title>server&#45;&gt;current_aof</title>
<path fill="none" stroke="black" stroke-width="2" stroke-dasharray="5,2" d="M96.7371,-90.9895C89.0201,-85.2513 80.8473,-78.0581 75,-70 69.7924,-62.8234 65.8495,-54.055 62.944,-45.8263"/>
<polygon fill="black" stroke="black" stroke-width="2" points="66.252,-44.6788 59.8991,-36.1999 59.578,-46.7899 66.252,-44.6788"/>
<text text-anchor="middle" x="118" y="-58.3" font-family="Times,serif" font-size="14.00">命令协议内容</text>
</g>
<!-- aof_rewrite_buf -->
<g id="node4" class="node"><title>aof_rewrite_buf</title>
<polygon fill="#fadcad" stroke="black" points="236.25,-36 129.75,-36 129.75,-0 236.25,-0 236.25,-36"/>
<text text-anchor="middle" x="183" y="-14.3" font-family="'/usr/share/fonts/truetype/wqy/wqy-microhei.ttc'" font-size="14.00">AOF 重写缓存</text>
</g>
<!-- server&#45;&gt;aof_rewrite_buf -->
<g id="edge3" class="edge"><title>server&#45;&gt;aof_rewrite_buf</title>
<path fill="none" stroke="black" stroke-width="2" stroke-dasharray="5,2" d="M140.02,-90.6613C147.361,-84.8876 155.205,-77.7559 161,-70 166.416,-62.7506 170.818,-53.9629 174.221,-45.7387"/>
<polygon fill="black" stroke="black" stroke-width="2" points="177.593,-46.7189 177.878,-36.1279 171.05,-44.2295 177.593,-46.7189"/>
<text text-anchor="middle" x="213" y="-58.3" font-family="Times,serif" font-size="14.00">命令协议内容</text>
</g>
</g>
</svg>
