<?xml version="1.0" encoding="UTF-8" standalone="no"?>
<!DOCTYPE svg PUBLIC "-//W3C//DTD SVG 1.1//EN"
 "http://www.w3.org/Graphics/SVG/1.1/DTD/svg11.dtd">
<!-- Generated by graphviz version 2.36.0 (20140111.2315)
 -->
<!-- Title: e Pages: 1 -->
<svg width="357pt" height="174pt"
 viewBox="0.00 0.00 357.00 174.00" xmlns="http://www.w3.org/2000/svg" xmlns:xlink="http://www.w3.org/1999/xlink">
<g id="graph0" class="graph" transform="scale(1 1) rotate(0) translate(4 170)">
<title>e</title>
<polygon fill="white" stroke="none" points="-4,4 -4,-170 353,-170 353,4 -4,4"/>
<!-- server -->
<g id="node1" class="node"><title>server</title>
<ellipse fill="#95bbe3" stroke="black" cx="162" cy="-127" rx="38.1938" ry="38.1938"/>
<text text-anchor="middle" x="162" y="-123.3" font-family="'/usr/share/fonts/truetype/wqy/wqy-microhei.ttc'" font-size="14.00">服务器</text>
</g>
<!-- cx -->
<g id="node2" class="node"><title>cx</title>
<ellipse fill="#a8e270" stroke="black" cx="48" cy="-18" rx="48.1917" ry="18"/>
<text text-anchor="middle" x="48" y="-14.3" font-family="'/usr/share/fonts/truetype/wqy/wqy-microhei.ttc'" font-size="14.00">客户端 X</text>
</g>
<!-- cx&#45;&gt;server -->
<g id="edge1" class="edge"><title>cx&#45;&gt;server</title>
<path fill="none" stroke="black" stroke-dasharray="1,5" d="M53.2188,-36.0331C57.1176,-46.6887 63.2847,-60.2028 72,-70 87.2892,-87.1872 109.105,-100.942 127.429,-110.518"/>
<text text-anchor="middle" x="115" y="-58.3" font-family="Times,serif" font-size="14.00">等待命令请求</text>
</g>
<!-- cy -->
<g id="node3" class="node"><title>cy</title>
<ellipse fill="#a8e270" stroke="black" cx="162" cy="-18" rx="47.3916" ry="18"/>
<text text-anchor="middle" x="162" y="-14.3" font-family="'/usr/share/fonts/truetype/wqy/wqy-microhei.ttc'" font-size="14.00">客户端 Y</text>
</g>
<!-- cy&#45;&gt;server -->
<g id="edge2" class="edge"><title>cy&#45;&gt;server</title>
<path fill="none" stroke="black" stroke-dasharray="1,5" d="M162,-36.1914C162,-50.2513 162,-70.6457 162,-88.4474"/>
<text text-anchor="middle" x="205" y="-58.3" font-family="Times,serif" font-size="14.00">等待命令请求</text>
</g>
<!-- cz -->
<g id="node4" class="node"><title>cz</title>
<ellipse fill="#a8e270" stroke="black" cx="276" cy="-18" rx="48.1917" ry="18"/>
<text text-anchor="middle" x="276" y="-14.3" font-family="'/usr/share/fonts/truetype/wqy/wqy-microhei.ttc'" font-size="14.00">客户端 Z</text>
</g>
<!-- cz&#45;&gt;server -->
<g id="edge3" class="edge"><title>cz&#45;&gt;server</title>
<path fill="none" stroke="black" stroke-dasharray="1,5" d="M270.781,-36.0331C266.882,-46.6887 260.715,-60.2028 252,-70 236.711,-87.1872 214.895,-100.942 196.571,-110.518"/>
<text text-anchor="middle" x="306" y="-58.3" font-family="Times,serif" font-size="14.00">等待命令请求</text>
</g>
</g>
</svg>
