<?xml version="1.0" encoding="UTF-8" standalone="no"?>
<!DOCTYPE svg PUBLIC "-//W3C//DTD SVG 1.1//EN"
 "http://www.w3.org/Graphics/SVG/1.1/DTD/svg11.dtd">
<!-- Generated by graphviz version 2.36.0 (20140111.2315)
 -->
<!-- Title: pubsub_pattern Pages: 1 -->
<svg width="612pt" height="116pt"
 viewBox="0.00 0.00 612.00 116.00" xmlns="http://www.w3.org/2000/svg" xmlns:xlink="http://www.w3.org/1999/xlink">
<g id="graph0" class="graph" transform="scale(1 1) rotate(0) translate(4 112)">
<title>pubsub_pattern</title>
<polygon fill="white" stroke="none" points="-4,4 -4,-112 608,-112 608,4 -4,4"/>
<!-- redisServer -->
<g id="node1" class="node"><title>redisServer</title>
<polygon fill="#a8e270" stroke="black" points="0,-16 0,-108 132,-108 132,-16 0,-16"/>
<text text-anchor="middle" x="66" y="-92.8" font-family="'/usr/share/fonts/truetype/wqy/wqy-microhei.ttc'" font-size="14.00">redisServer</text>
<polyline fill="none" stroke="black" points="0,-85 132,-85 "/>
<text text-anchor="middle" x="66" y="-69.8" font-family="'/usr/share/fonts/truetype/wqy/wqy-microhei.ttc'" font-size="14.00">...</text>
<polyline fill="none" stroke="black" points="0,-62 132,-62 "/>
<text text-anchor="middle" x="66" y="-46.8" font-family="'/usr/share/fonts/truetype/wqy/wqy-microhei.ttc'" font-size="14.00">pubsub_patterns</text>
<polyline fill="none" stroke="black" points="0,-39 132,-39 "/>
<text text-anchor="middle" x="66" y="-23.8" font-family="'/usr/share/fonts/truetype/wqy/wqy-microhei.ttc'" font-size="14.00">...</text>
</g>
<!-- pubsubPattern_1 -->
<g id="node2" class="node"><title>pubsubPattern_1</title>
<polygon fill="#95bbe3" stroke="black" points="168,-0.5 168,-99.5 286,-99.5 286,-0.5 168,-0.5"/>
<text text-anchor="middle" x="227" y="-84.3" font-family="'/usr/share/fonts/truetype/wqy/wqy-microhei.ttc'" font-size="14.00">pubsubPattern</text>
<polyline fill="none" stroke="black" points="168,-76.5 286,-76.5 "/>
<text text-anchor="middle" x="227" y="-61.3" font-family="'/usr/share/fonts/truetype/wqy/wqy-microhei.ttc'" font-size="14.00">client </text>
<text text-anchor="middle" x="227" y="-46.3" font-family="'/usr/share/fonts/truetype/wqy/wqy-microhei.ttc'" font-size="14.00"> client123</text>
<polyline fill="none" stroke="black" points="168,-38.5 286,-38.5 "/>
<text text-anchor="middle" x="227" y="-23.3" font-family="'/usr/share/fonts/truetype/wqy/wqy-microhei.ttc'" font-size="14.00">pattern </text>
<text text-anchor="middle" x="227" y="-8.3" font-family="'/usr/share/fonts/truetype/wqy/wqy-microhei.ttc'" font-size="14.00"> tweet.shop.*</text>
</g>
<!-- redisServer&#45;&gt;pubsubPattern_1 -->
<g id="edge1" class="edge"><title>redisServer:pubsub_patterns&#45;&gt;pubsubPattern_1</title>
<path fill="none" stroke="black" stroke-width="2" d="M132,-50C140.328,-50 149.071,-50 157.733,-50"/>
<polygon fill="black" stroke="black" stroke-width="2" points="157.834,-53.5001 167.834,-50 157.834,-46.5001 157.834,-53.5001"/>
</g>
<!-- pubsubPattern_2 -->
<g id="node3" class="node"><title>pubsubPattern_2</title>
<polygon fill="#95bbe3" stroke="black" points="322,-0.5 322,-99.5 440,-99.5 440,-0.5 322,-0.5"/>
<text text-anchor="middle" x="381" y="-84.3" font-family="'/usr/share/fonts/truetype/wqy/wqy-microhei.ttc'" font-size="14.00">pubsubPattern</text>
<polyline fill="none" stroke="black" points="322,-76.5 440,-76.5 "/>
<text text-anchor="middle" x="381" y="-61.3" font-family="'/usr/share/fonts/truetype/wqy/wqy-microhei.ttc'" font-size="14.00">client </text>
<text text-anchor="middle" x="381" y="-46.3" font-family="'/usr/share/fonts/truetype/wqy/wqy-microhei.ttc'" font-size="14.00"> client256</text>
<polyline fill="none" stroke="black" points="322,-38.5 440,-38.5 "/>
<text text-anchor="middle" x="381" y="-23.3" font-family="'/usr/share/fonts/truetype/wqy/wqy-microhei.ttc'" font-size="14.00">pattern </text>
<text text-anchor="middle" x="381" y="-8.3" font-family="'/usr/share/fonts/truetype/wqy/wqy-microhei.ttc'" font-size="14.00"> tweet.shop.*</text>
</g>
<!-- pubsubPattern_1&#45;&gt;pubsubPattern_2 -->
<g id="edge2" class="edge"><title>pubsubPattern_1&#45;&gt;pubsubPattern_2</title>
<path fill="none" stroke="black" stroke-width="2" d="M286.332,-50C294.606,-50 303.175,-50 311.617,-50"/>
<polygon fill="black" stroke="black" stroke-width="2" points="311.824,-53.5001 321.824,-50 311.824,-46.5001 311.824,-53.5001"/>
</g>
<!-- pubsubPattern_3 -->
<g id="node4" class="node"><title>pubsubPattern_3</title>
<polygon fill="#ffc1c1" stroke="black" points="476,-0.5 476,-99.5 604,-99.5 604,-0.5 476,-0.5"/>
<text text-anchor="middle" x="540" y="-84.3" font-family="'/usr/share/fonts/truetype/wqy/wqy-microhei.ttc'" font-size="14.00">pubsubPattern</text>
<polyline fill="none" stroke="black" points="476,-76.5 604,-76.5 "/>
<text text-anchor="middle" x="540" y="-61.3" font-family="'/usr/share/fonts/truetype/wqy/wqy-microhei.ttc'" font-size="14.00">client </text>
<text text-anchor="middle" x="540" y="-46.3" font-family="'/usr/share/fonts/truetype/wqy/wqy-microhei.ttc'" font-size="14.00"> client10086</text>
<polyline fill="none" stroke="black" points="476,-38.5 604,-38.5 "/>
<text text-anchor="middle" x="540" y="-23.3" font-family="'/usr/share/fonts/truetype/wqy/wqy-microhei.ttc'" font-size="14.00">pattern </text>
<text text-anchor="middle" x="540" y="-8.3" font-family="'/usr/share/fonts/truetype/wqy/wqy-microhei.ttc'" font-size="14.00"> broadcast.live.*</text>
</g>
<!-- pubsubPattern_2&#45;&gt;pubsubPattern_3 -->
<g id="edge3" class="edge"><title>pubsubPattern_2&#45;&gt;pubsubPattern_3</title>
<path fill="none" stroke="black" stroke-width="2" d="M440.015,-50C448.428,-50 457.178,-50 465.842,-50"/>
<polygon fill="black" stroke="black" stroke-width="2" points="465.946,-53.5001 475.946,-50 465.946,-46.5001 465.946,-53.5001"/>
</g>
</g>
</svg>
