<?xml version="1.0" encoding="UTF-8" standalone="no"?>
<!DOCTYPE svg PUBLIC "-//W3C//DTD SVG 1.1//EN"
 "http://www.w3.org/Graphics/SVG/1.1/DTD/svg11.dtd">
<!-- Generated by graphviz version 2.36.0 (20140111.2315)
 -->
<!-- Title: db Pages: 1 -->
<svg width="634pt" height="336pt"
 viewBox="0.00 0.00 634.00 336.00" xmlns="http://www.w3.org/2000/svg" xmlns:xlink="http://www.w3.org/1999/xlink">
<g id="graph0" class="graph" transform="scale(1 1) rotate(0) translate(4 332)">
<title>db</title>
<polygon fill="white" stroke="none" points="-4,4 -4,-332 630,-332 630,4 -4,4"/>
<!-- redisDb -->
<g id="node1" class="node"><title>redisDb</title>
<polygon fill="#a8e270" stroke="black" points="0.5,-236 0.5,-328 69.5,-328 69.5,-236 0.5,-236"/>
<text text-anchor="middle" x="35" y="-312.8" font-family="'/usr/share/fonts/truetype/wqy/wqy-microhei.ttc'" font-size="14.00">redisDb</text>
<polyline fill="none" stroke="black" points="0.5,-305 69.5,-305 "/>
<text text-anchor="middle" x="35" y="-289.8" font-family="'/usr/share/fonts/truetype/wqy/wqy-microhei.ttc'" font-size="14.00">id</text>
<polyline fill="none" stroke="black" points="0.5,-282 69.5,-282 "/>
<text text-anchor="middle" x="35" y="-266.8" font-family="'/usr/share/fonts/truetype/wqy/wqy-microhei.ttc'" font-size="14.00">dict</text>
<polyline fill="none" stroke="black" points="0.5,-259 69.5,-259 "/>
<text text-anchor="middle" x="35" y="-243.8" font-family="'/usr/share/fonts/truetype/wqy/wqy-microhei.ttc'" font-size="14.00">...</text>
</g>
<!-- dict -->
<g id="node2" class="node"><title>dict</title>
<polygon fill="#ffc1c1" stroke="black" points="106.5,-129 106.5,-289 209.5,-289 209.5,-129 106.5,-129"/>
<text text-anchor="middle" x="158" y="-273.8" font-family="'/usr/share/fonts/truetype/wqy/wqy-microhei.ttc'" font-size="14.00">dict</text>
<text text-anchor="middle" x="158" y="-258.8" font-family="'/usr/share/fonts/truetype/wqy/wqy-microhei.ttc'" font-size="14.00">(key space)</text>
<polyline fill="none" stroke="black" points="106.5,-251 209.5,-251 "/>
<text text-anchor="middle" x="158" y="-235.8" font-family="'/usr/share/fonts/truetype/wqy/wqy-microhei.ttc'" font-size="14.00">StringObject</text>
<text text-anchor="middle" x="158" y="-220.8" font-family="'/usr/share/fonts/truetype/wqy/wqy-microhei.ttc'" font-size="14.00"> &quot;number&quot;</text>
<polyline fill="none" stroke="black" points="106.5,-213 209.5,-213 "/>
<text text-anchor="middle" x="158" y="-197.8" font-family="'/usr/share/fonts/truetype/wqy/wqy-microhei.ttc'" font-size="14.00">NULL</text>
<polyline fill="none" stroke="black" points="106.5,-190 209.5,-190 "/>
<text text-anchor="middle" x="158" y="-174.8" font-family="'/usr/share/fonts/truetype/wqy/wqy-microhei.ttc'" font-size="14.00">StringObject</text>
<text text-anchor="middle" x="158" y="-159.8" font-family="'/usr/share/fonts/truetype/wqy/wqy-microhei.ttc'" font-size="14.00"> &quot;book&quot;</text>
<polyline fill="none" stroke="black" points="106.5,-152 209.5,-152 "/>
<text text-anchor="middle" x="158" y="-136.8" font-family="'/usr/share/fonts/truetype/wqy/wqy-microhei.ttc'" font-size="14.00">NULL</text>
</g>
<!-- redisDb&#45;&gt;dict -->
<g id="edge1" class="edge"><title>redisDb:dict&#45;&gt;dict:head</title>
<path fill="none" stroke="black" stroke-width="2" d="M70,-270C82,-270 87.25,-270 95.875,-270"/>
<polygon fill="black" stroke="black" stroke-width="2" points="96,-273.5 106,-270 96,-266.5 96,-273.5"/>
</g>
<!-- number -->
<g id="node3" class="node"><title>number</title>
<polygon fill="#fadcad" stroke="black" points="246,-200 246,-246 378,-246 378,-200 246,-200"/>
<text text-anchor="middle" x="312" y="-230.8" font-family="'/usr/share/fonts/truetype/wqy/wqy-microhei.ttc'" font-size="14.00">ListObject</text>
<polyline fill="none" stroke="black" points="246,-223 378,-223 "/>
<text text-anchor="middle" x="268" y="-207.8" font-family="'/usr/share/fonts/truetype/wqy/wqy-microhei.ttc'" font-size="14.00">123</text>
<polyline fill="none" stroke="black" points="290,-200 290,-223 "/>
<text text-anchor="middle" x="312" y="-207.8" font-family="'/usr/share/fonts/truetype/wqy/wqy-microhei.ttc'" font-size="14.00">456</text>
<polyline fill="none" stroke="black" points="334,-200 334,-223 "/>
<text text-anchor="middle" x="356" y="-207.8" font-family="'/usr/share/fonts/truetype/wqy/wqy-microhei.ttc'" font-size="14.00">789</text>
</g>
<!-- dict&#45;&gt;number -->
<g id="edge2" class="edge"><title>dict:number&#45;&gt;number:head</title>
<path fill="none" stroke="black" stroke-width="2" d="M210,-232C222.042,-232 227.24,-233.688 235.859,-234.531"/>
<polygon fill="black" stroke="black" stroke-width="2" points="235.849,-238.034 246,-235 236.172,-231.042 235.849,-238.034"/>
</g>
<!-- book -->
<g id="node4" class="node"><title>book</title>
<polygon fill="#f2f2f2" stroke="black" points="260.5,-43.5 260.5,-180.5 363.5,-180.5 363.5,-43.5 260.5,-43.5"/>
<text text-anchor="middle" x="312" y="-165.3" font-family="'/usr/share/fonts/truetype/wqy/wqy-microhei.ttc'" font-size="14.00">HashObject</text>
<polyline fill="none" stroke="black" points="260.5,-157.5 363.5,-157.5 "/>
<text text-anchor="middle" x="312" y="-142.3" font-family="'/usr/share/fonts/truetype/wqy/wqy-microhei.ttc'" font-size="14.00">StringObject</text>
<text text-anchor="middle" x="312" y="-127.3" font-family="'/usr/share/fonts/truetype/wqy/wqy-microhei.ttc'" font-size="14.00"> &quot;name&quot;</text>
<polyline fill="none" stroke="black" points="260.5,-119.5 363.5,-119.5 "/>
<text text-anchor="middle" x="312" y="-104.3" font-family="'/usr/share/fonts/truetype/wqy/wqy-microhei.ttc'" font-size="14.00">StringObject</text>
<text text-anchor="middle" x="312" y="-89.3" font-family="'/usr/share/fonts/truetype/wqy/wqy-microhei.ttc'" font-size="14.00"> &quot;author&quot;</text>
<polyline fill="none" stroke="black" points="260.5,-81.5 363.5,-81.5 "/>
<text text-anchor="middle" x="312" y="-66.3" font-family="'/usr/share/fonts/truetype/wqy/wqy-microhei.ttc'" font-size="14.00">StringObject</text>
<text text-anchor="middle" x="312" y="-51.3" font-family="'/usr/share/fonts/truetype/wqy/wqy-microhei.ttc'" font-size="14.00"> &quot;publisher&quot;</text>
</g>
<!-- dict&#45;&gt;book -->
<g id="edge3" class="edge"><title>dict:book&#45;&gt;book:head</title>
<path fill="none" stroke="black" stroke-width="2" d="M210,-171C227.879,-171 234.731,-169.654 248.648,-169.171"/>
<polygon fill="black" stroke="black" stroke-width="2" points="249.059,-172.664 259,-169 248.944,-165.665 249.059,-172.664"/>
</g>
<!-- book_name -->
<g id="node5" class="node"><title>book_name</title>
<polygon fill="lightgrey" stroke="black" points="414.5,-130 414.5,-176 625.5,-176 625.5,-130 414.5,-130"/>
<text text-anchor="middle" x="520" y="-160.8" font-family="'/usr/share/fonts/truetype/wqy/wqy-microhei.ttc'" font-size="14.00">StringObject</text>
<polyline fill="none" stroke="black" points="414.5,-153 625.5,-153 "/>
<text text-anchor="middle" x="520" y="-137.8" font-family="'/usr/share/fonts/truetype/wqy/wqy-microhei.ttc'" font-size="14.00">&quot;Mastering C++ in 21 days&quot;</text>
</g>
<!-- book&#45;&gt;book_name -->
<g id="edge4" class="edge"><title>book:name&#45;&gt;book_name:head</title>
<path fill="none" stroke="black" stroke-width="2" d="M365,-139C385.802,-139 388.833,-157.51 404.081,-163.294"/>
<polygon fill="black" stroke="black" stroke-width="2" points="403.551,-166.754 414,-165 404.738,-159.856 403.551,-166.754"/>
</g>
<!-- book_author -->
<g id="node6" class="node"><title>book_author</title>
<polygon fill="lightgrey" stroke="black" points="468.5,-65 468.5,-111 571.5,-111 571.5,-65 468.5,-65"/>
<text text-anchor="middle" x="520" y="-95.8" font-family="'/usr/share/fonts/truetype/wqy/wqy-microhei.ttc'" font-size="14.00">StringObject</text>
<polyline fill="none" stroke="black" points="468.5,-88 571.5,-88 "/>
<text text-anchor="middle" x="520" y="-72.8" font-family="'/usr/share/fonts/truetype/wqy/wqy-microhei.ttc'" font-size="14.00">&quot;Someone&quot;</text>
</g>
<!-- book&#45;&gt;book_author -->
<g id="edge5" class="edge"><title>book:author&#45;&gt;book_author:head</title>
<path fill="none" stroke="black" stroke-width="2" d="M365,-100C406.792,-100 419.688,-100 456.965,-100"/>
<polygon fill="black" stroke="black" stroke-width="2" points="457,-103.5 467,-100 457,-96.5001 457,-103.5"/>
</g>
<!-- book_publisher -->
<g id="node7" class="node"><title>book_publisher</title>
<polygon fill="lightgrey" stroke="black" points="434.5,-0 434.5,-46 605.5,-46 605.5,-0 434.5,-0"/>
<text text-anchor="middle" x="520" y="-30.8" font-family="'/usr/share/fonts/truetype/wqy/wqy-microhei.ttc'" font-size="14.00">StringObject</text>
<polyline fill="none" stroke="black" points="434.5,-23 605.5,-23 "/>
<text text-anchor="middle" x="520" y="-7.8" font-family="'/usr/share/fonts/truetype/wqy/wqy-microhei.ttc'" font-size="14.00">&quot;Oh&#45;Really? Publisher&quot;</text>
</g>
<!-- book&#45;&gt;book_publisher -->
<g id="edge6" class="edge"><title>book:publisher&#45;&gt;book_publisher:head</title>
<path fill="none" stroke="black" stroke-width="2" d="M365,-62C393.834,-62 399.432,-40.7707 423.001,-35.9609"/>
<polygon fill="black" stroke="black" stroke-width="2" points="423.381,-39.4407 433,-35 422.711,-32.4728 423.381,-39.4407"/>
</g>
</g>
</svg>
