<?xml version="1.0" encoding="UTF-8" standalone="no"?>
<!DOCTYPE svg PUBLIC "-//W3C//DTD SVG 1.1//EN"
 "http://www.w3.org/Graphics/SVG/1.1/DTD/svg11.dtd">
<!-- Generated by graphviz version 2.36.0 (20140111.2315)
 -->
<!-- Title: persistent Pages: 1 -->
<svg width="466pt" height="84pt"
 viewBox="0.00 0.00 466.00 84.00" xmlns="http://www.w3.org/2000/svg" xmlns:xlink="http://www.w3.org/1999/xlink">
<g id="graph0" class="graph" transform="scale(1 1) rotate(0) translate(4 80)">
<title>persistent</title>
<polygon fill="white" stroke="none" points="-4,4 -4,-80 462,-80 462,4 -4,4"/>
<!-- client -->
<g id="node1" class="node"><title>client</title>
<ellipse fill="#fadcad" stroke="black" cx="39" cy="-38" rx="38.1938" ry="38.1938"/>
<text text-anchor="middle" x="39" y="-34.3" font-family="'/usr/share/fonts/truetype/wqy/wqy-microhei.ttc'" font-size="14.00">客户端</text>
</g>
<!-- server -->
<g id="node2" class="node"><title>server</title>
<ellipse fill="#a8e270" stroke="black" cx="211" cy="-38" rx="38.1938" ry="38.1938"/>
<text text-anchor="middle" x="211" y="-34.3" font-family="'/usr/share/fonts/truetype/wqy/wqy-microhei.ttc'" font-size="14.00">服务器</text>
</g>
<!-- client&#45;&gt;server -->
<g id="edge1" class="edge"><title>client&#45;&gt;server</title>
<path fill="none" stroke="black" stroke-width="2" stroke-dasharray="5,2" d="M77.7285,-38C102.599,-38 135.386,-38 162.095,-38"/>
<polygon fill="black" stroke="black" stroke-width="2" points="162.377,-41.5001 172.377,-38 162.377,-34.5001 162.377,-41.5001"/>
<text text-anchor="middle" x="125" y="-41.8" font-family="Times,serif" font-size="14.00">命令请求</text>
</g>
<!-- aof -->
<g id="node3" class="node"><title>aof</title>
<ellipse fill="#95bbe3" stroke="black" cx="422" cy="-38" rx="35.2113" ry="35.2113"/>
<text text-anchor="middle" x="422" y="-41.8" font-family="'/usr/share/fonts/truetype/wqy/wqy-microhei.ttc'" font-size="14.00">AOF </text>
<text text-anchor="middle" x="422" y="-26.8" font-family="'/usr/share/fonts/truetype/wqy/wqy-microhei.ttc'" font-size="14.00"> 文件</text>
</g>
<!-- server&#45;&gt;aof -->
<g id="edge2" class="edge"><title>server&#45;&gt;aof</title>
<path fill="none" stroke="black" stroke-width="2" stroke-dasharray="5,2" d="M249.365,-38C284.889,-38 338.363,-38 376.168,-38"/>
<polygon fill="black" stroke="black" stroke-width="2" points="376.387,-41.5001 386.387,-38 376.387,-34.5001 376.387,-41.5001"/>
<text text-anchor="middle" x="318" y="-56.8" font-family="Times,serif" font-size="14.00">网络协议格式的</text>
<text text-anchor="middle" x="318" y="-41.8" font-family="Times,serif" font-size="14.00">命令内容</text>
</g>
</g>
</svg>
