<?xml version="1.0" encoding="UTF-8" standalone="no"?>
<!DOCTYPE svg PUBLIC "-//W3C//DTD SVG 1.1//EN"
 "http://www.w3.org/Graphics/SVG/1.1/DTD/svg11.dtd">
<!-- Generated by graphviz version 2.36.0 (20140111.2315)
 -->
<!-- Title: watched_keys Pages: 1 -->
<svg width="512pt" height="162pt"
 viewBox="0.00 0.00 512.00 162.00" xmlns="http://www.w3.org/2000/svg" xmlns:xlink="http://www.w3.org/1999/xlink">
<g id="graph0" class="graph" transform="scale(1 1) rotate(0) translate(4 158)">
<title>watched_keys</title>
<polygon fill="white" stroke="none" points="-4,4 -4,-158 508,-158 508,4 -4,4"/>
<!-- watched_keys -->
<g id="node1" class="node"><title>watched_keys</title>
<polygon fill="#a8e270" stroke="black" points="0,-0 0,-138 114,-138 114,-0 0,-0"/>
<text text-anchor="middle" x="57" y="-122.8" font-family="'/usr/share/fonts/truetype/wqy/wqy-microhei.ttc'" font-size="14.00">watched_keys</text>
<polyline fill="none" stroke="black" points="0,-115 114,-115 "/>
<text text-anchor="middle" x="57" y="-99.8" font-family="'/usr/share/fonts/truetype/wqy/wqy-microhei.ttc'" font-size="14.00">key1</text>
<polyline fill="none" stroke="black" points="0,-92 114,-92 "/>
<text text-anchor="middle" x="57" y="-76.8" font-family="'/usr/share/fonts/truetype/wqy/wqy-microhei.ttc'" font-size="14.00">key2</text>
<polyline fill="none" stroke="black" points="0,-69 114,-69 "/>
<text text-anchor="middle" x="57" y="-53.8" font-family="'/usr/share/fonts/truetype/wqy/wqy-microhei.ttc'" font-size="14.00">key3</text>
<polyline fill="none" stroke="black" points="0,-46 114,-46 "/>
<text text-anchor="middle" x="57" y="-30.8" font-family="'/usr/share/fonts/truetype/wqy/wqy-microhei.ttc'" font-size="14.00">...</text>
<polyline fill="none" stroke="black" points="0,-23 114,-23 "/>
<text text-anchor="middle" x="57" y="-7.8" font-family="'/usr/share/fonts/truetype/wqy/wqy-microhei.ttc'" font-size="14.00">keyN</text>
</g>
<!-- client2 -->
<g id="node4" class="node"><title>client2</title>
<polygon fill="#95bbe3" stroke="black" points="150.5,-118 150.5,-154 213.5,-154 213.5,-118 150.5,-118"/>
<text text-anchor="middle" x="182" y="-132.3" font-family="'/usr/share/fonts/truetype/wqy/wqy-microhei.ttc'" font-size="14.00">client2</text>
</g>
<!-- watched_keys&#45;&gt;client2 -->
<g id="edge1" class="edge"><title>watched_keys:key1&#45;&gt;client2</title>
<path fill="none" stroke="black" stroke-width="2" d="M114,-104C125.547,-104 137.217,-107.918 147.509,-113.012"/>
<polygon fill="black" stroke="black" stroke-width="2" points="146.078,-116.218 156.531,-117.943 149.435,-110.076 146.078,-116.218"/>
</g>
<!-- client7 -->
<g id="node6" class="node"><title>client7</title>
<polygon fill="#95bbe3" stroke="black" points="150.5,-63 150.5,-99 213.5,-99 213.5,-63 150.5,-63"/>
<text text-anchor="middle" x="182" y="-77.3" font-family="'/usr/share/fonts/truetype/wqy/wqy-microhei.ttc'" font-size="14.00">client7</text>
</g>
<!-- watched_keys&#45;&gt;client7 -->
<g id="edge5" class="edge"><title>watched_keys:key2&#45;&gt;client7</title>
<path fill="none" stroke="black" stroke-width="2" d="M114,-81C122.435,-81 131.467,-81 140.082,-81"/>
<polygon fill="black" stroke="black" stroke-width="2" points="140.314,-84.5001 150.314,-81 140.314,-77.5001 140.314,-84.5001"/>
</g>
<!-- client3 -->
<g id="node8" class="node"><title>client3</title>
<polygon fill="#95bbe3" stroke="black" points="150.5,-8 150.5,-44 213.5,-44 213.5,-8 150.5,-8"/>
<text text-anchor="middle" x="182" y="-22.3" font-family="'/usr/share/fonts/truetype/wqy/wqy-microhei.ttc'" font-size="14.00">client3</text>
</g>
<!-- watched_keys&#45;&gt;client3 -->
<g id="edge7" class="edge"><title>watched_keys:key3&#45;&gt;client3</title>
<path fill="none" stroke="black" stroke-width="2" d="M114,-57C125.187,-57 136.533,-53.3965 146.631,-48.6467"/>
<polygon fill="black" stroke="black" stroke-width="2" points="148.252,-51.7488 155.512,-44.0328 145.025,-45.537 148.252,-51.7488"/>
</g>
<!-- client1 -->
<g id="node2" class="node"><title>client1</title>
<polygon fill="#95bbe3" stroke="black" points="350.5,-118 350.5,-154 413.5,-154 413.5,-118 350.5,-118"/>
<text text-anchor="middle" x="382" y="-132.3" font-family="'/usr/share/fonts/truetype/wqy/wqy-microhei.ttc'" font-size="14.00">client1</text>
</g>
<!-- null_1 -->
<g id="node5" class="node"><title>null_1</title>
<polygon fill="lightgrey" stroke="none" points="504,-154 450,-154 450,-118 504,-118 504,-154"/>
<text text-anchor="middle" x="477" y="-132.3" font-family="'/usr/share/fonts/truetype/wqy/wqy-microhei.ttc'" font-size="14.00">NULL</text>
</g>
<!-- client1&#45;&gt;null_1 -->
<g id="edge4" class="edge"><title>client1&#45;&gt;null_1</title>
<path fill="none" stroke="black" stroke-width="2" d="M413.709,-136C422.06,-136 431.181,-136 439.804,-136"/>
<polygon fill="black" stroke="black" stroke-width="2" points="439.991,-139.5 449.991,-136 439.991,-132.5 439.991,-139.5"/>
</g>
<!-- client5 -->
<g id="node3" class="node"><title>client5</title>
<polygon fill="#95bbe3" stroke="black" points="250.5,-118 250.5,-154 313.5,-154 313.5,-118 250.5,-118"/>
<text text-anchor="middle" x="282" y="-132.3" font-family="'/usr/share/fonts/truetype/wqy/wqy-microhei.ttc'" font-size="14.00">client5</text>
</g>
<!-- client5&#45;&gt;client1 -->
<g id="edge3" class="edge"><title>client5&#45;&gt;client1</title>
<path fill="none" stroke="black" stroke-width="2" d="M313.739,-136C322.131,-136 331.357,-136 340.214,-136"/>
<polygon fill="black" stroke="black" stroke-width="2" points="340.37,-139.5 350.37,-136 340.37,-132.5 340.37,-139.5"/>
</g>
<!-- client2&#45;&gt;client5 -->
<g id="edge2" class="edge"><title>client2&#45;&gt;client5</title>
<path fill="none" stroke="black" stroke-width="2" d="M213.739,-136C222.131,-136 231.357,-136 240.214,-136"/>
<polygon fill="black" stroke="black" stroke-width="2" points="240.37,-139.5 250.37,-136 240.37,-132.5 240.37,-139.5"/>
</g>
<!-- null_2 -->
<g id="node7" class="node"><title>null_2</title>
<polygon fill="lightgrey" stroke="none" points="309,-99 255,-99 255,-63 309,-63 309,-99"/>
<text text-anchor="middle" x="282" y="-77.3" font-family="'/usr/share/fonts/truetype/wqy/wqy-microhei.ttc'" font-size="14.00">NULL</text>
</g>
<!-- client7&#45;&gt;null_2 -->
<g id="edge6" class="edge"><title>client7&#45;&gt;null_2</title>
<path fill="none" stroke="black" stroke-width="2" d="M213.739,-81C223.571,-81 234.548,-81 244.735,-81"/>
<polygon fill="black" stroke="black" stroke-width="2" points="244.985,-84.5001 254.985,-81 244.985,-77.5001 244.985,-84.5001"/>
</g>
<!-- client4 -->
<g id="node9" class="node"><title>client4</title>
<polygon fill="#95bbe3" stroke="black" points="250.5,-8 250.5,-44 313.5,-44 313.5,-8 250.5,-8"/>
<text text-anchor="middle" x="282" y="-22.3" font-family="'/usr/share/fonts/truetype/wqy/wqy-microhei.ttc'" font-size="14.00">client4</text>
</g>
<!-- client3&#45;&gt;client4 -->
<g id="edge8" class="edge"><title>client3&#45;&gt;client4</title>
<path fill="none" stroke="black" stroke-width="2" d="M213.739,-26C222.131,-26 231.357,-26 240.214,-26"/>
<polygon fill="black" stroke="black" stroke-width="2" points="240.37,-29.5001 250.37,-26 240.37,-22.5001 240.37,-29.5001"/>
</g>
<!-- client6 -->
<g id="node10" class="node"><title>client6</title>
<polygon fill="#95bbe3" stroke="black" points="350.5,-8 350.5,-44 413.5,-44 413.5,-8 350.5,-8"/>
<text text-anchor="middle" x="382" y="-22.3" font-family="'/usr/share/fonts/truetype/wqy/wqy-microhei.ttc'" font-size="14.00">client6</text>
</g>
<!-- client4&#45;&gt;client6 -->
<g id="edge9" class="edge"><title>client4&#45;&gt;client6</title>
<path fill="none" stroke="black" stroke-width="2" d="M313.739,-26C322.131,-26 331.357,-26 340.214,-26"/>
<polygon fill="black" stroke="black" stroke-width="2" points="340.37,-29.5001 350.37,-26 340.37,-22.5001 340.37,-29.5001"/>
</g>
<!-- null_3 -->
<g id="node11" class="node"><title>null_3</title>
<polygon fill="lightgrey" stroke="none" points="504,-44 450,-44 450,-8 504,-8 504,-44"/>
<text text-anchor="middle" x="477" y="-22.3" font-family="'/usr/share/fonts/truetype/wqy/wqy-microhei.ttc'" font-size="14.00">NULL</text>
</g>
<!-- client6&#45;&gt;null_3 -->
<g id="edge10" class="edge"><title>client6&#45;&gt;null_3</title>
<path fill="none" stroke="black" stroke-width="2" d="M413.709,-26C422.06,-26 431.181,-26 439.804,-26"/>
<polygon fill="black" stroke="black" stroke-width="2" points="439.991,-29.5001 449.991,-26 439.991,-22.5001 439.991,-29.5001"/>
</g>
</g>
</svg>
