<?xml version="1.0" encoding="UTF-8" standalone="no"?>
<!DOCTYPE svg PUBLIC "-//W3C//DTD SVG 1.1//EN"
 "http://www.w3.org/Graphics/SVG/1.1/DTD/svg11.dtd">
<!-- Generated by graphviz version 2.36.0 (20140111.2315)
 -->
<!-- Title: zset Pages: 1 -->
<svg width="558pt" height="232pt"
 viewBox="0.00 0.00 558.00 232.00" xmlns="http://www.w3.org/2000/svg" xmlns:xlink="http://www.w3.org/1999/xlink">
<g id="graph0" class="graph" transform="scale(1 1) rotate(0) translate(4 228)">
<title>zset</title>
<polygon fill="white" stroke="none" points="-4,4 -4,-228 554,-228 554,4 -4,4"/>
<!-- skiplist -->
<g id="node1" class="node"><title>skiplist</title>
<polygon fill="#f2f2f2" stroke="black" points="0.5,-40.5 0.5,-223.5 87.5,-223.5 87.5,-40.5 0.5,-40.5"/>
<text text-anchor="middle" x="44" y="-208.3" font-family="'/usr/share/fonts/truetype/wqy/wqy-microhei.ttc'" font-size="14.00">zskipNode</text>
<text text-anchor="middle" x="44" y="-193.3" font-family="'/usr/share/fonts/truetype/wqy/wqy-microhei.ttc'" font-size="14.00">(head)</text>
<polyline fill="none" stroke="black" points="0.5,-185.5 87.5,-185.5 "/>
<text text-anchor="middle" x="44" y="-170.3" font-family="'/usr/share/fonts/truetype/wqy/wqy-microhei.ttc'" font-size="14.00"> </text>
<polyline fill="none" stroke="black" points="0.5,-162.5 87.5,-162.5 "/>
<text text-anchor="middle" x="44" y="-147.3" font-family="'/usr/share/fonts/truetype/wqy/wqy-microhei.ttc'" font-size="14.00"> </text>
<polyline fill="none" stroke="black" points="0.5,-139.5 87.5,-139.5 "/>
<text text-anchor="middle" x="44" y="-124.3" font-family="'/usr/share/fonts/truetype/wqy/wqy-microhei.ttc'" font-size="14.00"> </text>
<polyline fill="none" stroke="black" points="0.5,-116.5 87.5,-116.5 "/>
<text text-anchor="middle" x="44" y="-101.3" font-family="'/usr/share/fonts/truetype/wqy/wqy-microhei.ttc'" font-size="14.00">score</text>
<text text-anchor="middle" x="44" y="-86.3" font-family="'/usr/share/fonts/truetype/wqy/wqy-microhei.ttc'" font-size="14.00"> NULL</text>
<polyline fill="none" stroke="black" points="0.5,-78.5 87.5,-78.5 "/>
<text text-anchor="middle" x="44" y="-63.3" font-family="'/usr/share/fonts/truetype/wqy/wqy-microhei.ttc'" font-size="14.00">robj</text>
<text text-anchor="middle" x="44" y="-48.3" font-family="'/usr/share/fonts/truetype/wqy/wqy-microhei.ttc'" font-size="14.00"> NULL</text>
</g>
<!-- six -->
<g id="node2" class="node"><title>six</title>
<polygon fill="#95bbe3" stroke="black" points="124.5,-40 124.5,-208 211.5,-208 211.5,-40 124.5,-40"/>
<text text-anchor="middle" x="168" y="-192.8" font-family="'/usr/share/fonts/truetype/wqy/wqy-microhei.ttc'" font-size="14.00">zskipNode</text>
<polyline fill="none" stroke="black" points="124.5,-185 211.5,-185 "/>
<text text-anchor="middle" x="168" y="-169.8" font-family="'/usr/share/fonts/truetype/wqy/wqy-microhei.ttc'" font-size="14.00"> </text>
<polyline fill="none" stroke="black" points="124.5,-162 211.5,-162 "/>
<text text-anchor="middle" x="168" y="-146.8" font-family="'/usr/share/fonts/truetype/wqy/wqy-microhei.ttc'" font-size="14.00"> </text>
<polyline fill="none" stroke="black" points="124.5,-139 211.5,-139 "/>
<text text-anchor="middle" x="168" y="-123.8" font-family="'/usr/share/fonts/truetype/wqy/wqy-microhei.ttc'" font-size="14.00"> </text>
<polyline fill="none" stroke="black" points="124.5,-116 211.5,-116 "/>
<text text-anchor="middle" x="168" y="-100.8" font-family="'/usr/share/fonts/truetype/wqy/wqy-microhei.ttc'" font-size="14.00">score</text>
<text text-anchor="middle" x="168" y="-85.8" font-family="'/usr/share/fonts/truetype/wqy/wqy-microhei.ttc'" font-size="14.00"> 6</text>
<polyline fill="none" stroke="black" points="124.5,-78 211.5,-78 "/>
<text text-anchor="middle" x="168" y="-62.8" font-family="'/usr/share/fonts/truetype/wqy/wqy-microhei.ttc'" font-size="14.00">robj</text>
<text text-anchor="middle" x="168" y="-47.8" font-family="'/usr/share/fonts/truetype/wqy/wqy-microhei.ttc'" font-size="14.00"> x</text>
</g>
<!-- skiplist&#45;&gt;six -->
<g id="edge1" class="edge"><title>skiplist:3&#45;&gt;six:3</title>
<path fill="none" stroke="black" stroke-width="2" d="M88,-174C100,-174 105.25,-174 113.875,-174"/>
<polygon fill="black" stroke="black" stroke-width="2" points="114,-177.5 124,-174 114,-170.5 114,-177.5"/>
</g>
<!-- skiplist&#45;&gt;six -->
<g id="edge2" class="edge"><title>skiplist:2&#45;&gt;six:2</title>
<path fill="none" stroke="black" stroke-width="2" d="M88,-151C100,-151 105.25,-151 113.875,-151"/>
<polygon fill="black" stroke="black" stroke-width="2" points="114,-154.5 124,-151 114,-147.5 114,-154.5"/>
</g>
<!-- skiplist&#45;&gt;six -->
<g id="edge3" class="edge"><title>skiplist:1&#45;&gt;six:1</title>
<path fill="none" stroke="black" stroke-width="2" d="M88,-128C100,-128 105.25,-128 113.875,-128"/>
<polygon fill="black" stroke="black" stroke-width="2" points="114,-131.5 124,-128 114,-124.5 114,-131.5"/>
</g>
<!-- ten -->
<g id="node3" class="node"><title>ten</title>
<polygon fill="#95bbe3" stroke="black" points="248.5,-0 248.5,-122 335.5,-122 335.5,-0 248.5,-0"/>
<text text-anchor="middle" x="292" y="-106.8" font-family="'/usr/share/fonts/truetype/wqy/wqy-microhei.ttc'" font-size="14.00">zskipNode</text>
<polyline fill="none" stroke="black" points="248.5,-99 335.5,-99 "/>
<text text-anchor="middle" x="292" y="-83.8" font-family="'/usr/share/fonts/truetype/wqy/wqy-microhei.ttc'" font-size="14.00"> </text>
<polyline fill="none" stroke="black" points="248.5,-76 335.5,-76 "/>
<text text-anchor="middle" x="292" y="-60.8" font-family="'/usr/share/fonts/truetype/wqy/wqy-microhei.ttc'" font-size="14.00">score</text>
<text text-anchor="middle" x="292" y="-45.8" font-family="'/usr/share/fonts/truetype/wqy/wqy-microhei.ttc'" font-size="14.00"> 10</text>
<polyline fill="none" stroke="black" points="248.5,-38 335.5,-38 "/>
<text text-anchor="middle" x="292" y="-22.8" font-family="'/usr/share/fonts/truetype/wqy/wqy-microhei.ttc'" font-size="14.00">robj</text>
<text text-anchor="middle" x="292" y="-7.8" font-family="'/usr/share/fonts/truetype/wqy/wqy-microhei.ttc'" font-size="14.00"> y</text>
</g>
<!-- six&#45;&gt;ten -->
<g id="edge4" class="edge"><title>six:1&#45;&gt;ten:1</title>
<path fill="none" stroke="black" stroke-width="2" d="M212,-128C231.807,-128 227.095,-100.568 238.473,-91.1387"/>
<polygon fill="black" stroke="black" stroke-width="2" points="239.597,-94.4534 248,-88 237.407,-87.8049 239.597,-94.4534"/>
</g>
<!-- fiften -->
<g id="node4" class="node"><title>fiften</title>
<polygon fill="#95bbe3" stroke="black" points="372.5,-40 372.5,-208 459.5,-208 459.5,-40 372.5,-40"/>
<text text-anchor="middle" x="416" y="-192.8" font-family="'/usr/share/fonts/truetype/wqy/wqy-microhei.ttc'" font-size="14.00">zskipNode</text>
<polyline fill="none" stroke="black" points="372.5,-185 459.5,-185 "/>
<text text-anchor="middle" x="416" y="-169.8" font-family="'/usr/share/fonts/truetype/wqy/wqy-microhei.ttc'" font-size="14.00"> </text>
<polyline fill="none" stroke="black" points="372.5,-162 459.5,-162 "/>
<text text-anchor="middle" x="416" y="-146.8" font-family="'/usr/share/fonts/truetype/wqy/wqy-microhei.ttc'" font-size="14.00"> </text>
<polyline fill="none" stroke="black" points="372.5,-139 459.5,-139 "/>
<text text-anchor="middle" x="416" y="-123.8" font-family="'/usr/share/fonts/truetype/wqy/wqy-microhei.ttc'" font-size="14.00"> </text>
<polyline fill="none" stroke="black" points="372.5,-116 459.5,-116 "/>
<text text-anchor="middle" x="416" y="-100.8" font-family="'/usr/share/fonts/truetype/wqy/wqy-microhei.ttc'" font-size="14.00">score</text>
<text text-anchor="middle" x="416" y="-85.8" font-family="'/usr/share/fonts/truetype/wqy/wqy-microhei.ttc'" font-size="14.00"> 15</text>
<polyline fill="none" stroke="black" points="372.5,-78 459.5,-78 "/>
<text text-anchor="middle" x="416" y="-62.8" font-family="'/usr/share/fonts/truetype/wqy/wqy-microhei.ttc'" font-size="14.00">robj</text>
<text text-anchor="middle" x="416" y="-47.8" font-family="'/usr/share/fonts/truetype/wqy/wqy-microhei.ttc'" font-size="14.00"> z</text>
</g>
<!-- six&#45;&gt;fiften -->
<g id="edge5" class="edge"><title>six:2&#45;&gt;fiften:2</title>
<path fill="none" stroke="black" stroke-width="2" d="M212,-151C279.639,-151 299.026,-151 361.952,-151"/>
<polygon fill="black" stroke="black" stroke-width="2" points="362,-154.5 372,-151 362,-147.5 362,-154.5"/>
</g>
<!-- six&#45;&gt;fiften -->
<g id="edge6" class="edge"><title>six:3&#45;&gt;fiften:3</title>
<path fill="none" stroke="black" stroke-width="2" d="M212,-174C279.639,-174 299.026,-174 361.952,-174"/>
<polygon fill="black" stroke="black" stroke-width="2" points="362,-177.5 372,-174 362,-170.5 362,-177.5"/>
</g>
<!-- ten&#45;&gt;fiften -->
<g id="edge7" class="edge"><title>ten:1&#45;&gt;fiften:1</title>
<path fill="none" stroke="black" stroke-width="2" d="M336,-88C355.807,-88 351.095,-115.432 362.473,-124.861"/>
<polygon fill="black" stroke="black" stroke-width="2" points="361.407,-128.195 372,-128 363.597,-121.547 361.407,-128.195"/>
</g>
<!-- null_1 -->
<g id="node5" class="node"><title>null_1</title>
<polygon fill="lightgrey" stroke="none" points="550,-115 496,-115 496,-79 550,-79 550,-115"/>
<text text-anchor="middle" x="523" y="-93.3" font-family="'/usr/share/fonts/truetype/wqy/wqy-microhei.ttc'" font-size="14.00">NULL</text>
</g>
<!-- fiften&#45;&gt;null_1 -->
<g id="edge8" class="edge"><title>fiften:1&#45;&gt;null_1</title>
<path fill="none" stroke="black" stroke-width="2" d="M460,-128C470.289,-128 480.622,-124.542 489.82,-119.936"/>
<polygon fill="black" stroke="black" stroke-width="2" points="491.574,-122.965 498.598,-115.033 488.161,-116.854 491.574,-122.965"/>
</g>
<!-- null_2 -->
<g id="node6" class="node"><title>null_2</title>
<polygon fill="lightgrey" stroke="none" points="550,-169 496,-169 496,-133 550,-133 550,-169"/>
<text text-anchor="middle" x="523" y="-147.3" font-family="'/usr/share/fonts/truetype/wqy/wqy-microhei.ttc'" font-size="14.00">NULL</text>
</g>
<!-- fiften&#45;&gt;null_2 -->
<g id="edge9" class="edge"><title>fiften:2&#45;&gt;null_2</title>
<path fill="none" stroke="black" stroke-width="2" d="M460,-151C468.25,-151 477.116,-151 485.492,-151"/>
<polygon fill="black" stroke="black" stroke-width="2" points="485.754,-154.5 495.754,-151 485.754,-147.5 485.754,-154.5"/>
</g>
<!-- null_3 -->
<g id="node7" class="node"><title>null_3</title>
<polygon fill="lightgrey" stroke="none" points="550,-223 496,-223 496,-187 550,-187 550,-223"/>
<text text-anchor="middle" x="523" y="-201.3" font-family="'/usr/share/fonts/truetype/wqy/wqy-microhei.ttc'" font-size="14.00">NULL</text>
</g>
<!-- fiften&#45;&gt;null_3 -->
<g id="edge10" class="edge"><title>fiften:3&#45;&gt;null_3</title>
<path fill="none" stroke="black" stroke-width="2" d="M460,-174C470.289,-174 480.622,-177.458 489.82,-182.064"/>
<polygon fill="black" stroke="black" stroke-width="2" points="488.161,-185.146 498.598,-186.967 491.574,-179.035 488.161,-185.146"/>
</g>
</g>
</svg>
