<?xml version="1.0" encoding="UTF-8" standalone="no"?>
<!DOCTYPE svg PUBLIC "-//W3C//DTD SVG 1.1//EN"
 "http://www.w3.org/Graphics/SVG/1.1/DTD/svg11.dtd">
<!-- Generated by graphviz version 2.36.0 (20140111.2315)
 -->
<!-- Title: expire_check Pages: 1 -->
<svg width="236pt" height="240pt"
 viewBox="0.00 0.00 236.00 240.00" xmlns="http://www.w3.org/2000/svg" xmlns:xlink="http://www.w3.org/1999/xlink">
<g id="graph0" class="graph" transform="scale(1 1) rotate(0) translate(4 236)">
<title>expire_check</title>
<polygon fill="white" stroke="none" points="-4,4 -4,-236 232,-236 232,4 -4,4"/>
<!-- write_commands -->
<g id="node1" class="node"><title>write_commands</title>
<polygon fill="#fadcad" stroke="none" points="86.25,-232 -0.25,-232 -0.25,-164 86.25,-164 86.25,-232"/>
<text text-anchor="middle" x="43" y="-216.8" font-family="'/usr/share/fonts/truetype/wqy/wqy-microhei.ttc'" font-size="14.00">SET 、</text>
<text text-anchor="middle" x="43" y="-201.8" font-family="'/usr/share/fonts/truetype/wqy/wqy-microhei.ttc'" font-size="14.00"> LPUSH 、</text>
<text text-anchor="middle" x="43" y="-186.8" font-family="'/usr/share/fonts/truetype/wqy/wqy-microhei.ttc'" font-size="14.00"> SADD 、 </text>
<text text-anchor="middle" x="43" y="-171.8" font-family="'/usr/share/fonts/truetype/wqy/wqy-microhei.ttc'" font-size="14.00"> 等等</text>
</g>
<!-- expire_if_needed -->
<g id="node3" class="node"><title>expire_if_needed</title>
<polygon fill="#a8e270" stroke="black" points="195.25,-112 14.75,-112 14.75,-74 195.25,-74 195.25,-112"/>
<text text-anchor="middle" x="105" y="-96.8" font-family="'/usr/share/fonts/truetype/wqy/wqy-microhei.ttc'" font-size="14.00">调用 expire_if_needed() </text>
<text text-anchor="middle" x="105" y="-81.8" font-family="'/usr/share/fonts/truetype/wqy/wqy-microhei.ttc'" font-size="14.00"> 删除过期键</text>
</g>
<!-- write_commands&#45;&gt;expire_if_needed -->
<g id="edge1" class="edge"><title>write_commands&#45;&gt;expire_if_needed</title>
<path fill="none" stroke="black" stroke-width="2" d="M62.9585,-163.843C71.357,-149.891 80.9993,-133.872 88.9293,-120.698"/>
<polygon fill="black" stroke="black" stroke-width="2" points="91.9509,-122.465 94.1095,-112.092 85.9536,-118.855 91.9509,-122.465"/>
<text text-anchor="middle" x="105.5" y="-134.3" font-family="Times,serif" font-size="14.00">写请求</text>
</g>
<!-- read_commands -->
<g id="node2" class="node"><title>read_commands</title>
<polygon fill="#fadcad" stroke="none" points="228.5,-232 105.5,-232 105.5,-164 228.5,-164 228.5,-232"/>
<text text-anchor="middle" x="167" y="-216.8" font-family="'/usr/share/fonts/truetype/wqy/wqy-microhei.ttc'" font-size="14.00">GET 、</text>
<text text-anchor="middle" x="167" y="-201.8" font-family="'/usr/share/fonts/truetype/wqy/wqy-microhei.ttc'" font-size="14.00"> LRANGE 、</text>
<text text-anchor="middle" x="167" y="-186.8" font-family="'/usr/share/fonts/truetype/wqy/wqy-microhei.ttc'" font-size="14.00"> SMEMBERS 、 </text>
<text text-anchor="middle" x="167" y="-171.8" font-family="'/usr/share/fonts/truetype/wqy/wqy-microhei.ttc'" font-size="14.00"> 等等</text>
</g>
<!-- read_commands&#45;&gt;expire_if_needed -->
<g id="edge2" class="edge"><title>read_commands&#45;&gt;expire_if_needed</title>
<path fill="none" stroke="black" stroke-width="2" d="M150.272,-163.791C144.47,-152.853 137.726,-140.745 131,-130 129.102,-126.967 127.037,-123.851 124.929,-120.782"/>
<polygon fill="black" stroke="black" stroke-width="2" points="127.607,-118.505 118.975,-112.361 121.891,-122.547 127.607,-118.505"/>
<text text-anchor="middle" x="161.5" y="-134.3" font-family="Times,serif" font-size="14.00">读请求</text>
</g>
<!-- process -->
<g id="node4" class="node"><title>process</title>
<polygon fill="lightgrey" stroke="none" points="177.25,-36 32.75,-36 32.75,-0 177.25,-0 177.25,-36"/>
<text text-anchor="middle" x="105" y="-14.3" font-family="'/usr/share/fonts/truetype/wqy/wqy-microhei.ttc'" font-size="14.00">执行实际的命令流程</text>
</g>
<!-- expire_if_needed&#45;&gt;process -->
<g id="edge3" class="edge"><title>expire_if_needed&#45;&gt;process</title>
<path fill="none" stroke="black" stroke-width="2" d="M105,-73.9551C105,-65.7008 105,-55.7377 105,-46.5742"/>
<polygon fill="black" stroke="black" stroke-width="2" points="108.5,-46.3347 105,-36.3347 101.5,-46.3347 108.5,-46.3347"/>
</g>
</g>
</svg>
