<?xml version="1.0" encoding="UTF-8" standalone="no"?>
<!DOCTYPE svg PUBLIC "-//W3C//DTD SVG 1.1//EN"
 "http://www.w3.org/Graphics/SVG/1.1/DTD/svg11.dtd">
<!-- Generated by graphviz version 2.36.0 (20140111.2315)
 -->
<!-- Title: rehash_step_four Pages: 1 -->
<svg width="704pt" height="468pt"
 viewBox="0.00 0.00 704.00 468.00" xmlns="http://www.w3.org/2000/svg" xmlns:xlink="http://www.w3.org/1999/xlink">
<g id="graph0" class="graph" transform="scale(1 1) rotate(0) translate(4 464)">
<title>rehash_step_four</title>
<polygon fill="white" stroke="none" points="-4,4 -4,-464 700,-464 700,4 -4,4"/>
<!-- dict -->
<g id="node1" class="node"><title>dict</title>
<polygon fill="#a8e270" stroke="black" points="0.5,-213 0.5,-351 107.5,-351 107.5,-213 0.5,-213"/>
<text text-anchor="middle" x="54" y="-335.8" font-family="'/usr/share/fonts/truetype/wqy/wqy-microhei.ttc'" font-size="14.00">dict</text>
<polyline fill="none" stroke="black" points="0.5,-328 107.5,-328 "/>
<text text-anchor="middle" x="54" y="-312.8" font-family="'/usr/share/fonts/truetype/wqy/wqy-microhei.ttc'" font-size="14.00">type</text>
<polyline fill="none" stroke="black" points="0.5,-305 107.5,-305 "/>
<text text-anchor="middle" x="54" y="-289.8" font-family="'/usr/share/fonts/truetype/wqy/wqy-microhei.ttc'" font-size="14.00">privdata</text>
<polyline fill="none" stroke="black" points="0.5,-282 107.5,-282 "/>
<text text-anchor="middle" x="54" y="-266.8" font-family="'/usr/share/fonts/truetype/wqy/wqy-microhei.ttc'" font-size="14.00">ht[2]</text>
<polyline fill="none" stroke="black" points="0.5,-259 107.5,-259 "/>
<text text-anchor="middle" x="54" y="-243.8" font-family="'/usr/share/fonts/truetype/wqy/wqy-microhei.ttc'" font-size="14.00">rehashidx: &#45;1</text>
<polyline fill="none" stroke="black" points="0.5,-236 107.5,-236 "/>
<text text-anchor="middle" x="54" y="-220.8" font-family="'/usr/share/fonts/truetype/wqy/wqy-microhei.ttc'" font-size="14.00">iterators</text>
</g>
<!-- ht0 -->
<g id="node2" class="node"><title>ht0</title>
<polygon fill="#95bbe3" stroke="black" points="172,-231.5 172,-346.5 270,-346.5 270,-231.5 172,-231.5"/>
<text text-anchor="middle" x="221" y="-331.3" font-family="'/usr/share/fonts/truetype/wqy/wqy-microhei.ttc'" font-size="14.00">dictht</text>
<polyline fill="none" stroke="black" points="172,-323.5 270,-323.5 "/>
<text text-anchor="middle" x="221" y="-308.3" font-family="'/usr/share/fonts/truetype/wqy/wqy-microhei.ttc'" font-size="14.00">table</text>
<polyline fill="none" stroke="black" points="172,-300.5 270,-300.5 "/>
<text text-anchor="middle" x="221" y="-285.3" font-family="'/usr/share/fonts/truetype/wqy/wqy-microhei.ttc'" font-size="14.00">size: 8</text>
<polyline fill="none" stroke="black" points="172,-277.5 270,-277.5 "/>
<text text-anchor="middle" x="221" y="-262.3" font-family="'/usr/share/fonts/truetype/wqy/wqy-microhei.ttc'" font-size="14.00">sizemask: 7</text>
<polyline fill="none" stroke="black" points="172,-254.5 270,-254.5 "/>
<text text-anchor="middle" x="221" y="-239.3" font-family="'/usr/share/fonts/truetype/wqy/wqy-microhei.ttc'" font-size="14.00">used: 4</text>
</g>
<!-- dict&#45;&gt;ht0 -->
<g id="edge1" class="edge"><title>dict:ht&#45;&gt;ht0:dictht</title>
<path fill="none" stroke="black" stroke-width="2" d="M108,-270C144.741,-270 134.155,-323.384 162.022,-333.393"/>
<polygon fill="black" stroke="black" stroke-width="2" points="161.571,-336.866 172,-335 162.684,-329.955 161.571,-336.866"/>
<text text-anchor="middle" x="140" y="-331.8" font-family="Times,serif" font-size="14.00">ht[0]</text>
</g>
<!-- ht3 -->
<g id="node3" class="node"><title>ht3</title>
<polygon fill="#95bbe3" stroke="black" points="172,-71.5 172,-186.5 270,-186.5 270,-71.5 172,-71.5"/>
<text text-anchor="middle" x="221" y="-171.3" font-family="'/usr/share/fonts/truetype/wqy/wqy-microhei.ttc'" font-size="14.00">dictht</text>
<polyline fill="none" stroke="black" points="172,-163.5 270,-163.5 "/>
<text text-anchor="middle" x="221" y="-148.3" font-family="'/usr/share/fonts/truetype/wqy/wqy-microhei.ttc'" font-size="14.00">table</text>
<polyline fill="none" stroke="black" points="172,-140.5 270,-140.5 "/>
<text text-anchor="middle" x="221" y="-125.3" font-family="'/usr/share/fonts/truetype/wqy/wqy-microhei.ttc'" font-size="14.00">size: 0</text>
<polyline fill="none" stroke="black" points="172,-117.5 270,-117.5 "/>
<text text-anchor="middle" x="221" y="-102.3" font-family="'/usr/share/fonts/truetype/wqy/wqy-microhei.ttc'" font-size="14.00">sizemask: 0</text>
<polyline fill="none" stroke="black" points="172,-94.5 270,-94.5 "/>
<text text-anchor="middle" x="221" y="-79.3" font-family="'/usr/share/fonts/truetype/wqy/wqy-microhei.ttc'" font-size="14.00">used: 0</text>
</g>
<!-- dict&#45;&gt;ht3 -->
<g id="edge2" class="edge"><title>dict:ht&#45;&gt;ht3:dictht</title>
<path fill="none" stroke="black" stroke-width="2" d="M108,-270C130.174,-270 142.965,-197.914 162.72,-179.329"/>
<polygon fill="black" stroke="black" stroke-width="2" points="164.417,-182.399 172,-175 161.458,-176.055 164.417,-182.399"/>
<text text-anchor="middle" x="140" y="-255.8" font-family="Times,serif" font-size="14.00">ht[1]</text>
</g>
<!-- bucket1 -->
<g id="node4" class="node"><title>bucket1</title>
<polygon fill="#f2f2f2" stroke="black" points="308.5,-136 308.5,-358 403.5,-358 403.5,-136 308.5,-136"/>
<text text-anchor="middle" x="356" y="-342.8" font-family="'/usr/share/fonts/truetype/wqy/wqy-microhei.ttc'" font-size="14.00">dictEntry**</text>
<text text-anchor="middle" x="356" y="-327.8" font-family="'/usr/share/fonts/truetype/wqy/wqy-microhei.ttc'" font-size="14.00">(bucket)</text>
<polyline fill="none" stroke="black" points="308.5,-320 403.5,-320 "/>
<text text-anchor="middle" x="356" y="-304.8" font-family="'/usr/share/fonts/truetype/wqy/wqy-microhei.ttc'" font-size="14.00">0</text>
<polyline fill="none" stroke="black" points="308.5,-297 403.5,-297 "/>
<text text-anchor="middle" x="356" y="-281.8" font-family="'/usr/share/fonts/truetype/wqy/wqy-microhei.ttc'" font-size="14.00">1</text>
<polyline fill="none" stroke="black" points="308.5,-274 403.5,-274 "/>
<text text-anchor="middle" x="356" y="-258.8" font-family="'/usr/share/fonts/truetype/wqy/wqy-microhei.ttc'" font-size="14.00">2</text>
<polyline fill="none" stroke="black" points="308.5,-251 403.5,-251 "/>
<text text-anchor="middle" x="356" y="-235.8" font-family="'/usr/share/fonts/truetype/wqy/wqy-microhei.ttc'" font-size="14.00">3</text>
<polyline fill="none" stroke="black" points="308.5,-228 403.5,-228 "/>
<text text-anchor="middle" x="356" y="-212.8" font-family="'/usr/share/fonts/truetype/wqy/wqy-microhei.ttc'" font-size="14.00">4</text>
<polyline fill="none" stroke="black" points="308.5,-205 403.5,-205 "/>
<text text-anchor="middle" x="356" y="-189.8" font-family="'/usr/share/fonts/truetype/wqy/wqy-microhei.ttc'" font-size="14.00">5</text>
<polyline fill="none" stroke="black" points="308.5,-182 403.5,-182 "/>
<text text-anchor="middle" x="356" y="-166.8" font-family="'/usr/share/fonts/truetype/wqy/wqy-microhei.ttc'" font-size="14.00">6</text>
<polyline fill="none" stroke="black" points="308.5,-159 403.5,-159 "/>
<text text-anchor="middle" x="356" y="-143.8" font-family="'/usr/share/fonts/truetype/wqy/wqy-microhei.ttc'" font-size="14.00">7</text>
</g>
<!-- ht0&#45;&gt;bucket1 -->
<g id="edge4" class="edge"><title>ht0:table&#45;&gt;bucket1:head</title>
<path fill="none" stroke="black" stroke-width="2" d="M270,-312C286.671,-312 287.703,-329.483 298.265,-336.312"/>
<polygon fill="black" stroke="black" stroke-width="2" points="297.429,-339.713 308,-339 299.292,-332.965 297.429,-339.713"/>
</g>
<!-- null_bucket -->
<g id="node17" class="node"><title>null_bucket</title>
<polygon fill="lightgrey" stroke="none" points="383,-117 329,-117 329,-81 383,-81 383,-117"/>
<text text-anchor="middle" x="356" y="-95.3" font-family="'/usr/share/fonts/truetype/wqy/wqy-microhei.ttc'" font-size="14.00">NULL</text>
</g>
<!-- ht3&#45;&gt;null_bucket -->
<g id="edge3" class="edge"><title>ht3:table&#45;&gt;null_bucket</title>
<path fill="none" stroke="black" stroke-width="2" d="M270,-152C290.464,-152 290.67,-136.883 308,-126 311.87,-123.57 315.963,-121.09 320.055,-118.667"/>
<polygon fill="black" stroke="black" stroke-width="2" points="322.05,-121.555 328.926,-113.494 318.524,-115.508 322.05,-121.555"/>
</g>
<!-- pair_1 -->
<g id="node5" class="node"><title>pair_1</title>
<polygon fill="#ffc1c1" stroke="black" points="442.5,-55 442.5,-101 603.5,-101 603.5,-55 442.5,-55"/>
<text text-anchor="middle" x="523" y="-85.8" font-family="'/usr/share/fonts/truetype/wqy/wqy-microhei.ttc'" font-size="14.00">dictEntry</text>
<polyline fill="none" stroke="black" points="442.5,-78 603.5,-78 "/>
<text text-anchor="middle" x="467.5" y="-62.8" font-family="'/usr/share/fonts/truetype/wqy/wqy-microhei.ttc'" font-size="14.00">key1</text>
<polyline fill="none" stroke="black" points="492.5,-55 492.5,-78 "/>
<text text-anchor="middle" x="524" y="-62.8" font-family="'/usr/share/fonts/truetype/wqy/wqy-microhei.ttc'" font-size="14.00">value1</text>
<polyline fill="none" stroke="black" points="555.5,-55 555.5,-78 "/>
<text text-anchor="middle" x="579.5" y="-62.8" font-family="'/usr/share/fonts/truetype/wqy/wqy-microhei.ttc'" font-size="14.00">next</text>
</g>
<!-- bucket1&#45;&gt;pair_1 -->
<g id="edge14" class="edge"><title>bucket1:table6&#45;&gt;pair_1:head</title>
<path fill="none" stroke="black" stroke-width="2" d="M404,-170C439.211,-170 410.337,-105.985 432.03,-92.482"/>
<polygon fill="black" stroke="black" stroke-width="2" points="433.142,-95.8121 442,-90 431.451,-89.0195 433.142,-95.8121"/>
</g>
<!-- pair_2 -->
<g id="node6" class="node"><title>pair_2</title>
<polygon fill="#ffc1c1" stroke="black" points="442.5,-229 442.5,-275 603.5,-275 603.5,-229 442.5,-229"/>
<text text-anchor="middle" x="523" y="-259.8" font-family="'/usr/share/fonts/truetype/wqy/wqy-microhei.ttc'" font-size="14.00">dictEntry</text>
<polyline fill="none" stroke="black" points="442.5,-252 603.5,-252 "/>
<text text-anchor="middle" x="467.5" y="-236.8" font-family="'/usr/share/fonts/truetype/wqy/wqy-microhei.ttc'" font-size="14.00">key2</text>
<polyline fill="none" stroke="black" points="492.5,-229 492.5,-252 "/>
<text text-anchor="middle" x="524" y="-236.8" font-family="'/usr/share/fonts/truetype/wqy/wqy-microhei.ttc'" font-size="14.00">value2</text>
<polyline fill="none" stroke="black" points="555.5,-229 555.5,-252 "/>
<text text-anchor="middle" x="579.5" y="-236.8" font-family="'/usr/share/fonts/truetype/wqy/wqy-microhei.ttc'" font-size="14.00">next</text>
</g>
<!-- bucket1&#45;&gt;pair_2 -->
<g id="edge10" class="edge"><title>bucket1:table3&#45;&gt;pair_2:head</title>
<path fill="none" stroke="black" stroke-width="2" d="M404,-239C420.11,-239 421.838,-254.875 432.105,-261.325"/>
<polygon fill="black" stroke="black" stroke-width="2" points="431.433,-264.769 442,-264 433.26,-258.011 431.433,-264.769"/>
</g>
<!-- pair_3 -->
<g id="node7" class="node"><title>pair_3</title>
<polygon fill="#ffc1c1" stroke="black" points="442.5,-414 442.5,-460 603.5,-460 603.5,-414 442.5,-414"/>
<text text-anchor="middle" x="523" y="-444.8" font-family="'/usr/share/fonts/truetype/wqy/wqy-microhei.ttc'" font-size="14.00">dictEntry</text>
<polyline fill="none" stroke="black" points="442.5,-437 603.5,-437 "/>
<text text-anchor="middle" x="467.5" y="-421.8" font-family="'/usr/share/fonts/truetype/wqy/wqy-microhei.ttc'" font-size="14.00">key3</text>
<polyline fill="none" stroke="black" points="492.5,-414 492.5,-437 "/>
<text text-anchor="middle" x="524" y="-421.8" font-family="'/usr/share/fonts/truetype/wqy/wqy-microhei.ttc'" font-size="14.00">value3</text>
<polyline fill="none" stroke="black" points="555.5,-414 555.5,-437 "/>
<text text-anchor="middle" x="579.5" y="-421.8" font-family="'/usr/share/fonts/truetype/wqy/wqy-microhei.ttc'" font-size="14.00">next</text>
</g>
<!-- bucket1&#45;&gt;pair_3 -->
<g id="edge5" class="edge"><title>bucket1:table0&#45;&gt;pair_3:head</title>
<path fill="none" stroke="black" stroke-width="2" d="M404,-309C432.585,-309 415.008,-419.078 433.134,-444.017"/>
<polygon fill="black" stroke="black" stroke-width="2" points="431.568,-447.152 442,-449 434.997,-441.049 431.568,-447.152"/>
</g>
<!-- pair_4 -->
<g id="node8" class="node"><title>pair_4</title>
<polygon fill="#ffc1c1" stroke="black" points="442.5,-349 442.5,-395 603.5,-395 603.5,-349 442.5,-349"/>
<text text-anchor="middle" x="523" y="-379.8" font-family="'/usr/share/fonts/truetype/wqy/wqy-microhei.ttc'" font-size="14.00">dictEntry</text>
<polyline fill="none" stroke="black" points="442.5,-372 603.5,-372 "/>
<text text-anchor="middle" x="467.5" y="-356.8" font-family="'/usr/share/fonts/truetype/wqy/wqy-microhei.ttc'" font-size="14.00">key4</text>
<polyline fill="none" stroke="black" points="492.5,-349 492.5,-372 "/>
<text text-anchor="middle" x="524" y="-356.8" font-family="'/usr/share/fonts/truetype/wqy/wqy-microhei.ttc'" font-size="14.00">value4</text>
<polyline fill="none" stroke="black" points="555.5,-349 555.5,-372 "/>
<text text-anchor="middle" x="579.5" y="-356.8" font-family="'/usr/share/fonts/truetype/wqy/wqy-microhei.ttc'" font-size="14.00">next</text>
</g>
<!-- bucket1&#45;&gt;pair_4 -->
<g id="edge7" class="edge"><title>bucket1:table1&#45;&gt;pair_4:head</title>
<path fill="none" stroke="black" stroke-width="2" d="M404,-286C446.701,-286 404.057,-367.88 432.09,-381.953"/>
<polygon fill="black" stroke="black" stroke-width="2" points="431.499,-385.405 442,-384 432.915,-378.55 431.499,-385.405"/>
</g>
<!-- null12 -->
<g id="node11" class="node"><title>null12</title>
<polygon fill="lightgrey" stroke="none" points="550,-330 496,-330 496,-294 550,-294 550,-330"/>
<text text-anchor="middle" x="523" y="-308.3" font-family="'/usr/share/fonts/truetype/wqy/wqy-microhei.ttc'" font-size="14.00">NULL</text>
</g>
<!-- bucket1&#45;&gt;null12 -->
<g id="edge9" class="edge"><title>bucket1:table2&#45;&gt;null12</title>
<path fill="none" stroke="black" stroke-width="2" d="M404,-263C423.296,-263 424.387,-276.118 442,-284 456.159,-290.336 472.222,-296.202 486.22,-300.91"/>
<polygon fill="black" stroke="black" stroke-width="2" points="485.398,-304.324 495.991,-304.124 487.585,-297.674 485.398,-304.324"/>
</g>
<!-- null14 -->
<g id="node13" class="node"><title>null14</title>
<polygon fill="lightgrey" stroke="none" points="550,-210 496,-210 496,-174 550,-174 550,-210"/>
<text text-anchor="middle" x="523" y="-188.3" font-family="'/usr/share/fonts/truetype/wqy/wqy-microhei.ttc'" font-size="14.00">NULL</text>
</g>
<!-- bucket1&#45;&gt;null14 -->
<g id="edge12" class="edge"><title>bucket1:table4&#45;&gt;null14</title>
<path fill="none" stroke="black" stroke-width="2" d="M404,-216C431.862,-216 462.696,-209.495 485.856,-203.258"/>
<polygon fill="black" stroke="black" stroke-width="2" points="486.914,-206.597 495.599,-200.529 485.025,-199.856 486.914,-206.597"/>
</g>
<!-- null15 -->
<g id="node14" class="node"><title>null15</title>
<polygon fill="lightgrey" stroke="none" points="550,-156 496,-156 496,-120 550,-120 550,-156"/>
<text text-anchor="middle" x="523" y="-134.3" font-family="'/usr/share/fonts/truetype/wqy/wqy-microhei.ttc'" font-size="14.00">NULL</text>
</g>
<!-- bucket1&#45;&gt;null15 -->
<g id="edge13" class="edge"><title>bucket1:table5&#45;&gt;null15</title>
<path fill="none" stroke="black" stroke-width="2" d="M404,-193C424.979,-193 423.395,-174.692 442,-165 455.809,-157.806 471.931,-151.934 486.07,-147.525"/>
<polygon fill="black" stroke="black" stroke-width="2" points="487.372,-150.789 495.953,-144.575 485.37,-144.082 487.372,-150.789"/>
</g>
<!-- null17 -->
<g id="node16" class="node"><title>null17</title>
<polygon fill="lightgrey" stroke="none" points="550,-36 496,-36 496,-0 550,-0 550,-36"/>
<text text-anchor="middle" x="523" y="-14.3" font-family="'/usr/share/fonts/truetype/wqy/wqy-microhei.ttc'" font-size="14.00">NULL</text>
</g>
<!-- bucket1&#45;&gt;null17 -->
<g id="edge16" class="edge"><title>bucket1:table7&#45;&gt;null17</title>
<path fill="none" stroke="black" stroke-width="2" d="M404,-147C410.047,-147 437.658,-49.2089 442,-45 453.801,-33.5603 470.612,-26.962 485.779,-23.1587"/>
<polygon fill="black" stroke="black" stroke-width="2" points="486.91,-26.4947 495.936,-20.947 485.42,-19.6549 486.91,-26.4947"/>
</g>
<!-- null16 -->
<g id="node15" class="node"><title>null16</title>
<polygon fill="lightgrey" stroke="none" points="696,-84 642,-84 642,-48 696,-48 696,-84"/>
<text text-anchor="middle" x="669" y="-62.3" font-family="'/usr/share/fonts/truetype/wqy/wqy-microhei.ttc'" font-size="14.00">NULL</text>
</g>
<!-- pair_1&#45;&gt;null16 -->
<g id="edge15" class="edge"><title>pair_1:next&#45;&gt;null16</title>
<path fill="none" stroke="black" stroke-width="2" d="M604,-66C612.944,-66 622.592,-66 631.616,-66"/>
<polygon fill="black" stroke="black" stroke-width="2" points="631.844,-69.5001 641.844,-66 631.844,-62.5001 631.844,-69.5001"/>
</g>
<!-- null13 -->
<g id="node12" class="node"><title>null13</title>
<polygon fill="lightgrey" stroke="none" points="696,-258 642,-258 642,-222 696,-222 696,-258"/>
<text text-anchor="middle" x="669" y="-236.3" font-family="'/usr/share/fonts/truetype/wqy/wqy-microhei.ttc'" font-size="14.00">NULL</text>
</g>
<!-- pair_2&#45;&gt;null13 -->
<g id="edge11" class="edge"><title>pair_2:next&#45;&gt;null13</title>
<path fill="none" stroke="black" stroke-width="2" d="M604,-240C612.944,-240 622.592,-240 631.616,-240"/>
<polygon fill="black" stroke="black" stroke-width="2" points="631.844,-243.5 641.844,-240 631.844,-236.5 631.844,-243.5"/>
</g>
<!-- null10 -->
<g id="node9" class="node"><title>null10</title>
<polygon fill="lightgrey" stroke="none" points="696,-443 642,-443 642,-407 696,-407 696,-443"/>
<text text-anchor="middle" x="669" y="-421.3" font-family="'/usr/share/fonts/truetype/wqy/wqy-microhei.ttc'" font-size="14.00">NULL</text>
</g>
<!-- pair_3&#45;&gt;null10 -->
<g id="edge6" class="edge"><title>pair_3:next&#45;&gt;null10</title>
<path fill="none" stroke="black" stroke-width="2" d="M604,-425C612.944,-425 622.592,-425 631.616,-425"/>
<polygon fill="black" stroke="black" stroke-width="2" points="631.844,-428.5 641.844,-425 631.844,-421.5 631.844,-428.5"/>
</g>
<!-- null11 -->
<g id="node10" class="node"><title>null11</title>
<polygon fill="lightgrey" stroke="none" points="696,-378 642,-378 642,-342 696,-342 696,-378"/>
<text text-anchor="middle" x="669" y="-356.3" font-family="'/usr/share/fonts/truetype/wqy/wqy-microhei.ttc'" font-size="14.00">NULL</text>
</g>
<!-- pair_4&#45;&gt;null11 -->
<g id="edge8" class="edge"><title>pair_4:next&#45;&gt;null11</title>
<path fill="none" stroke="black" stroke-width="2" d="M604,-360C612.944,-360 622.592,-360 631.616,-360"/>
<polygon fill="black" stroke="black" stroke-width="2" points="631.844,-363.5 641.844,-360 631.844,-356.5 631.844,-363.5"/>
</g>
</g>
</svg>
