<?xml version="1.0" encoding="UTF-8" standalone="no"?>
<!DOCTYPE svg PUBLIC "-//W3C//DTD SVG 1.1//EN"
 "http://www.w3.org/Graphics/SVG/1.1/DTD/svg11.dtd">
<!-- Generated by graphviz version 2.36.0 (20140111.2315)
 -->
<!-- Title: pattern_relation Pages: 1 -->
<svg width="652pt" height="220pt"
 viewBox="0.00 0.00 652.00 220.00" xmlns="http://www.w3.org/2000/svg" xmlns:xlink="http://www.w3.org/1999/xlink">
<g id="graph0" class="graph" transform="scale(1 1) rotate(0) translate(4 216)">
<title>pattern_relation</title>
<polygon fill="white" stroke="none" points="-4,4 -4,-216 648,-216 648,4 -4,4"/>
<!-- kindle -->
<g id="node1" class="node"><title>kindle</title>
<ellipse fill="#a8e270" stroke="black" cx="525" cy="-194" rx="90.9839" ry="18"/>
<text text-anchor="middle" x="525" y="-190.3" font-family="'/usr/share/fonts/truetype/wqy/wqy-microhei.ttc'" font-size="14.00">tweet.shop.kindle</text>
</g>
<!-- ipad -->
<g id="node2" class="node"><title>ipad</title>
<ellipse fill="#a8e270" stroke="black" cx="207" cy="-194" rx="83.3857" ry="18"/>
<text text-anchor="middle" x="207" y="-190.3" font-family="'/usr/share/fonts/truetype/wqy/wqy-microhei.ttc'" font-size="14.00">tweet.shop.ipad</text>
</g>
<!-- pattern -->
<g id="node3" class="node"><title>pattern</title>
<polygon fill="lightgrey" stroke="black" points="474.048,-98.5442 474.048,-113.456 430.086,-124 367.914,-124 323.952,-113.456 323.952,-98.5442 367.914,-88 430.086,-88 474.048,-98.5442"/>
<text text-anchor="middle" x="399" y="-102.3" font-family="'/usr/share/fonts/truetype/wqy/wqy-microhei.ttc'" font-size="14.00">tweet.shop.*</text>
</g>
<!-- pattern&#45;&gt;kindle -->
<g id="edge1" class="edge"><title>pattern&#45;&gt;kindle</title>
<path fill="none" stroke="black" stroke-width="2" d="M424.195,-124.197C443.762,-137.552 471.05,-156.177 492.301,-170.682"/>
<polygon fill="black" stroke="black" stroke-width="2" points="490.472,-173.671 500.705,-176.418 494.418,-167.889 490.472,-173.671"/>
<text text-anchor="middle" x="491" y="-146.3" font-family="Times,serif" font-size="14.00">match</text>
</g>
<!-- pattern&#45;&gt;ipad -->
<g id="edge2" class="edge"><title>pattern&#45;&gt;ipad</title>
<path fill="none" stroke="black" stroke-width="2" d="M369.61,-124.221C351.12,-134.691 326.567,-147.936 304,-158 290.184,-164.162 274.92,-170.069 260.67,-175.218"/>
<polygon fill="black" stroke="black" stroke-width="2" points="259.247,-172.009 250.996,-178.656 261.591,-178.605 259.247,-172.009"/>
<text text-anchor="middle" x="353" y="-146.3" font-family="Times,serif" font-size="14.00">match</text>
</g>
<!-- client123 -->
<g id="node4" class="node"><title>client123</title>
<polygon fill="#95bbe3" stroke="black" points="389.5,-36 308.5,-36 308.5,-0 389.5,-0 389.5,-36"/>
<text text-anchor="middle" x="349" y="-14.3" font-family="'/usr/share/fonts/truetype/wqy/wqy-microhei.ttc'" font-size="14.00">client123</text>
</g>
<!-- client123&#45;&gt;pattern -->
<g id="edge3" class="edge"><title>client123&#45;&gt;pattern</title>
<path fill="none" stroke="black" stroke-width="2" d="M351.873,-36.4045C354.103,-46.6926 357.875,-59.683 364,-70 366.171,-73.6577 368.812,-77.2095 371.658,-80.5596"/>
<polygon fill="black" stroke="black" stroke-width="2" points="369.176,-83.03 378.551,-87.9653 374.3,-78.2608 369.176,-83.03"/>
<text text-anchor="middle" x="390" y="-58.3" font-family="Times,serif" font-size="14.00">subscribe</text>
</g>
<!-- client256 -->
<g id="node5" class="node"><title>client256</title>
<polygon fill="#95bbe3" stroke="black" points="488.5,-36 407.5,-36 407.5,-0 488.5,-0 488.5,-36"/>
<text text-anchor="middle" x="448" y="-14.3" font-family="'/usr/share/fonts/truetype/wqy/wqy-microhei.ttc'" font-size="14.00">client256</text>
</g>
<!-- client256&#45;&gt;pattern -->
<g id="edge4" class="edge"><title>client256&#45;&gt;pattern</title>
<path fill="none" stroke="black" stroke-width="2" d="M438.084,-36.4034C431.131,-48.6061 421.715,-65.133 413.867,-78.907"/>
<polygon fill="black" stroke="black" stroke-width="2" points="410.643,-77.4946 408.734,-87.916 416.725,-80.96 410.643,-77.4946"/>
<text text-anchor="middle" x="454" y="-58.3" font-family="Times,serif" font-size="14.00">subscribe</text>
</g>
<!-- clientX -->
<g id="node6" class="node"><title>clientX</title>
<polygon fill="#95bbe3" stroke="black" points="557.5,-124 492.5,-124 492.5,-88 557.5,-88 557.5,-124"/>
<text text-anchor="middle" x="525" y="-102.3" font-family="'/usr/share/fonts/truetype/wqy/wqy-microhei.ttc'" font-size="14.00">clientX</text>
</g>
<!-- clientX&#45;&gt;kindle -->
<g id="edge5" class="edge"><title>clientX&#45;&gt;kindle</title>
<path fill="none" stroke="black" stroke-width="2" d="M525,-124.403C525,-136.254 525,-152.183 525,-165.708"/>
<polygon fill="black" stroke="black" stroke-width="2" points="521.5,-165.916 525,-175.916 528.5,-165.916 521.5,-165.916"/>
<text text-anchor="middle" x="551" y="-146.3" font-family="Times,serif" font-size="14.00">subscribe</text>
</g>
<!-- clientY -->
<g id="node7" class="node"><title>clientY</title>
<polygon fill="#95bbe3" stroke="black" points="638.5,-124 575.5,-124 575.5,-88 638.5,-88 638.5,-124"/>
<text text-anchor="middle" x="607" y="-102.3" font-family="'/usr/share/fonts/truetype/wqy/wqy-microhei.ttc'" font-size="14.00">clientY</text>
</g>
<!-- clientY&#45;&gt;kindle -->
<g id="edge6" class="edge"><title>clientY&#45;&gt;kindle</title>
<path fill="none" stroke="black" stroke-width="2" d="M601.044,-124.019C596.7,-134.669 589.998,-148.182 581,-158 576.577,-162.826 571.342,-167.24 565.877,-171.186"/>
<polygon fill="black" stroke="black" stroke-width="2" points="563.554,-168.529 557.182,-176.993 567.442,-174.349 563.554,-168.529"/>
<text text-anchor="middle" x="618" y="-146.3" font-family="Times,serif" font-size="14.00">subscribe</text>
</g>
<!-- client3333 -->
<g id="node8" class="node"><title>client3333</title>
<polygon fill="#95bbe3" stroke="black" points="90,-124 0,-124 0,-88 90,-88 90,-124"/>
<text text-anchor="middle" x="45" y="-102.3" font-family="'/usr/share/fonts/truetype/wqy/wqy-microhei.ttc'" font-size="14.00">client3333</text>
</g>
<!-- client3333&#45;&gt;ipad -->
<g id="edge7" class="edge"><title>client3333&#45;&gt;ipad</title>
<path fill="none" stroke="black" stroke-width="2" d="M67.5057,-124.183C81.9987,-134.766 101.52,-148.147 120,-158 131.336,-164.044 143.949,-169.687 155.975,-174.603"/>
<polygon fill="black" stroke="black" stroke-width="2" points="154.873,-177.931 165.458,-178.382 157.465,-171.429 154.873,-177.931"/>
<text text-anchor="middle" x="146" y="-146.3" font-family="Times,serif" font-size="14.00">subscribe</text>
</g>
<!-- client4444 -->
<g id="node9" class="node"><title>client4444</title>
<polygon fill="#95bbe3" stroke="black" points="198,-124 108,-124 108,-88 198,-88 198,-124"/>
<text text-anchor="middle" x="153" y="-102.3" font-family="'/usr/share/fonts/truetype/wqy/wqy-microhei.ttc'" font-size="14.00">client4444</text>
</g>
<!-- client4444&#45;&gt;ipad -->
<g id="edge8" class="edge"><title>client4444&#45;&gt;ipad</title>
<path fill="none" stroke="black" stroke-width="2" d="M163.928,-124.403C171.664,-136.723 182.167,-153.451 190.865,-167.304"/>
<polygon fill="black" stroke="black" stroke-width="2" points="187.991,-169.308 196.273,-175.916 193.919,-165.586 187.991,-169.308"/>
<text text-anchor="middle" x="211" y="-146.3" font-family="Times,serif" font-size="14.00">subscribe</text>
</g>
<!-- client5555 -->
<g id="node10" class="node"><title>client5555</title>
<polygon fill="#95bbe3" stroke="black" points="306,-124 216,-124 216,-88 306,-88 306,-124"/>
<text text-anchor="middle" x="261" y="-102.3" font-family="'/usr/share/fonts/truetype/wqy/wqy-microhei.ttc'" font-size="14.00">client5555</text>
</g>
<!-- client5555&#45;&gt;ipad -->
<g id="edge9" class="edge"><title>client5555&#45;&gt;ipad</title>
<path fill="none" stroke="black" stroke-width="2" d="M255.204,-124.252C251.373,-134.486 245.806,-147.473 239,-158 236.687,-161.578 234.001,-165.14 231.188,-168.545"/>
<polygon fill="black" stroke="black" stroke-width="2" points="228.482,-166.322 224.508,-176.143 233.74,-170.944 228.482,-166.322"/>
<text text-anchor="middle" x="274" y="-146.3" font-family="Times,serif" font-size="14.00">subscribe</text>
</g>
</g>
</svg>
