<?xml version="1.0" encoding="UTF-8" standalone="no"?>
<!DOCTYPE svg PUBLIC "-//W3C//DTD SVG 1.1//EN"
 "http://www.w3.org/Graphics/SVG/1.1/DTD/svg11.dtd">
<!-- Generated by graphviz version 2.36.0 (20140111.2315)
 -->
<!-- Title: not_enque_command Pages: 1 -->
<svg width="503pt" height="440pt"
 viewBox="0.00 0.00 503.00 440.00" xmlns="http://www.w3.org/2000/svg" xmlns:xlink="http://www.w3.org/1999/xlink">
<g id="graph0" class="graph" transform="scale(1 1) rotate(0) translate(4 436)">
<title>not_enque_command</title>
<polygon fill="white" stroke="none" points="-4,4 -4,-436 499,-436 499,4 -4,4"/>
<!-- command_in -->
<g id="node1" class="node"><title>command_in</title>
<polygon fill="lightgrey" stroke="none" points="411,-432 209,-432 209,-396 411,-396 411,-432"/>
<text text-anchor="middle" x="310" y="-410.3" font-family="'/usr/share/fonts/truetype/wqy/wqy-microhei.ttc'" font-size="14.00">服务器接到来自客户端的命令</text>
</g>
<!-- in_transaction_or_not -->
<g id="node2" class="node"><title>in_transaction_or_not</title>
<polygon fill="#95bbe3" stroke="black" points="310,-358 124.496,-340 310,-322 495.504,-340 310,-358"/>
<text text-anchor="middle" x="310" y="-336.3" font-family="'/usr/share/fonts/truetype/wqy/wqy-microhei.ttc'" font-size="14.00">客户端是否正处于事务状态？</text>
</g>
<!-- command_in&#45;&gt;in_transaction_or_not -->
<g id="edge1" class="edge"><title>command_in&#45;&gt;in_transaction_or_not</title>
<path fill="none" stroke="black" stroke-width="2" d="M310,-395.937C310,-387.807 310,-377.876 310,-368.705"/>
<polygon fill="black" stroke="black" stroke-width="2" points="313.5,-368.441 310,-358.441 306.5,-368.441 313.5,-368.441"/>
</g>
<!-- not_exec_and_discard -->
<g id="node3" class="node"><title>not_exec_and_discard</title>
<polygon fill="#ffc1c1" stroke="black" points="162,-270 2.84217e-14,-217 162,-164 324,-217 162,-270"/>
<text text-anchor="middle" x="162" y="-228.3" font-family="'/usr/share/fonts/truetype/wqy/wqy-microhei.ttc'" font-size="14.00">命令是否</text>
<text text-anchor="middle" x="162" y="-213.3" font-family="'/usr/share/fonts/truetype/wqy/wqy-microhei.ttc'" font-size="14.00">EXEC 、 DISCARD 、</text>
<text text-anchor="middle" x="162" y="-198.3" font-family="'/usr/share/fonts/truetype/wqy/wqy-microhei.ttc'" font-size="14.00">MULTI 或 WATCH ？</text>
</g>
<!-- in_transaction_or_not&#45;&gt;not_exec_and_discard -->
<g id="edge2" class="edge"><title>in_transaction_or_not&#45;&gt;not_exec_and_discard</title>
<path fill="none" stroke="black" stroke-width="2" d="M291.256,-323.675C272.294,-308.173 242.086,-283.476 215.64,-261.854"/>
<polygon fill="black" stroke="black" stroke-width="2" points="217.527,-258.876 207.57,-255.256 213.096,-264.296 217.527,-258.876"/>
<text text-anchor="middle" x="274.5" y="-292.3" font-family="Times,serif" font-size="14.00">是</text>
</g>
<!-- exec_command -->
<g id="node6" class="node"><title>exec_command</title>
<polygon fill="#fadcad" stroke="none" points="397,-112 323,-112 323,-76 397,-76 397,-112"/>
<text text-anchor="middle" x="360" y="-90.3" font-family="'/usr/share/fonts/truetype/wqy/wqy-microhei.ttc'" font-size="14.00">执行命令</text>
</g>
<!-- in_transaction_or_not&#45;&gt;exec_command -->
<g id="edge5" class="edge"><title>in_transaction_or_not&#45;&gt;exec_command</title>
<path fill="none" stroke="black" stroke-width="2" d="M316.376,-322.498C321.51,-308.661 328.575,-288.287 333,-270 345.461,-218.504 353.381,-157.028 357.227,-122.35"/>
<polygon fill="black" stroke="black" stroke-width="2" points="360.742,-122.397 358.333,-112.079 353.782,-121.647 360.742,-122.397"/>
<text text-anchor="middle" x="359.5" y="-213.3" font-family="Times,serif" font-size="14.00">否</text>
</g>
<!-- enqueu_command -->
<g id="node4" class="node"><title>enqueu_command</title>
<polygon fill="#a8e270" stroke="none" points="223.25,-112 64.75,-112 64.75,-76 223.25,-76 223.25,-112"/>
<text text-anchor="middle" x="144" y="-90.3" font-family="'/usr/share/fonts/truetype/wqy/wqy-microhei.ttc'" font-size="14.00">将命令放进事务队列里</text>
</g>
<!-- not_exec_and_discard&#45;&gt;enqueu_command -->
<g id="edge3" class="edge"><title>not_exec_and_discard&#45;&gt;enqueu_command</title>
<path fill="none" stroke="black" stroke-width="2" d="M154.575,-166.086C152.35,-151.134 149.994,-135.291 148.071,-122.365"/>
<polygon fill="black" stroke="black" stroke-width="2" points="151.504,-121.654 146.57,-112.278 144.58,-122.684 151.504,-121.654"/>
<text text-anchor="middle" x="159.5" y="-134.3" font-family="Times,serif" font-size="14.00">否</text>
</g>
<!-- not_exec_and_discard&#45;&gt;exec_command -->
<g id="edge4" class="edge"><title>not_exec_and_discard&#45;&gt;exec_command</title>
<path fill="none" stroke="black" stroke-width="2" d="M217.681,-181.973C251.474,-161.322 293.654,-135.545 323.291,-117.433"/>
<polygon fill="black" stroke="black" stroke-width="2" points="325.355,-120.274 332.063,-112.073 321.705,-114.301 325.355,-120.274"/>
<text text-anchor="middle" x="309.5" y="-134.3" font-family="Times,serif" font-size="14.00">是</text>
</g>
<!-- return_enqueued -->
<g id="node5" class="node"><title>return_enqueued</title>
<polygon fill="#a8e270" stroke="none" points="244.25,-38 29.75,-38 29.75,-0 244.25,-0 244.25,-38"/>
<text text-anchor="middle" x="137" y="-22.8" font-family="'/usr/share/fonts/truetype/wqy/wqy-microhei.ttc'" font-size="14.00">向客户端返回 QUEUED 字符串</text>
<text text-anchor="middle" x="137" y="-7.8" font-family="'/usr/share/fonts/truetype/wqy/wqy-microhei.ttc'" font-size="14.00">表示命令已入队</text>
</g>
<!-- enqueu_command&#45;&gt;return_enqueued -->
<g id="edge7" class="edge"><title>enqueu_command&#45;&gt;return_enqueued</title>
<path fill="none" stroke="black" stroke-width="2" d="M142.341,-75.7C141.554,-67.4902 140.593,-57.4688 139.704,-48.201"/>
<polygon fill="black" stroke="black" stroke-width="2" points="143.183,-47.8147 138.745,-38.1945 136.215,-48.483 143.183,-47.8147"/>
</g>
<!-- return_command_result -->
<g id="node7" class="node"><title>return_command_result</title>
<polygon fill="#fadcad" stroke="none" points="465,-37 263,-37 263,-1 465,-1 465,-37"/>
<text text-anchor="middle" x="364" y="-15.3" font-family="'/usr/share/fonts/truetype/wqy/wqy-microhei.ttc'" font-size="14.00">向客户端返回命令的执行结果</text>
</g>
<!-- exec_command&#45;&gt;return_command_result -->
<g id="edge6" class="edge"><title>exec_command&#45;&gt;return_command_result</title>
<path fill="none" stroke="black" stroke-width="2" d="M360.948,-75.7C361.411,-67.2452 361.98,-56.8688 362.5,-47.3732"/>
<polygon fill="black" stroke="black" stroke-width="2" points="366.006,-47.3523 363.059,-37.1758 359.017,-46.9693 366.006,-47.3523"/>
</g>
</g>
</svg>
