<?xml version="1.0" encoding="UTF-8" standalone="no"?>
<!DOCTYPE svg PUBLIC "-//W3C//DTD SVG 1.1//EN"
 "http://www.w3.org/Graphics/SVG/1.1/DTD/svg11.dtd">
<!-- Generated by graphviz version 2.36.0 (20140111.2315)
 -->
<!-- Title: db_after_insert_new_key Pages: 1 -->
<svg width="634pt" height="379pt"
 viewBox="0.00 0.00 634.00 379.00" xmlns="http://www.w3.org/2000/svg" xmlns:xlink="http://www.w3.org/1999/xlink">
<g id="graph0" class="graph" transform="scale(1 1) rotate(0) translate(4 375)">
<title>db_after_insert_new_key</title>
<polygon fill="white" stroke="none" points="-4,4 -4,-375 630,-375 630,4 -4,4"/>
<!-- redisDb -->
<g id="node1" class="node"><title>redisDb</title>
<polygon fill="#a8e270" stroke="black" points="0.5,-279 0.5,-371 69.5,-371 69.5,-279 0.5,-279"/>
<text text-anchor="middle" x="35" y="-355.8" font-family="'/usr/share/fonts/truetype/wqy/wqy-microhei.ttc'" font-size="14.00">redisDb</text>
<polyline fill="none" stroke="black" points="0.5,-348 69.5,-348 "/>
<text text-anchor="middle" x="35" y="-332.8" font-family="'/usr/share/fonts/truetype/wqy/wqy-microhei.ttc'" font-size="14.00">id</text>
<polyline fill="none" stroke="black" points="0.5,-325 69.5,-325 "/>
<text text-anchor="middle" x="35" y="-309.8" font-family="'/usr/share/fonts/truetype/wqy/wqy-microhei.ttc'" font-size="14.00">dict</text>
<polyline fill="none" stroke="black" points="0.5,-302 69.5,-302 "/>
<text text-anchor="middle" x="35" y="-286.8" font-family="'/usr/share/fonts/truetype/wqy/wqy-microhei.ttc'" font-size="14.00">...</text>
</g>
<!-- dict -->
<g id="node2" class="node"><title>dict</title>
<polygon fill="#95bbe3" stroke="black" points="106.5,-142 106.5,-332 209.5,-332 209.5,-142 106.5,-142"/>
<text text-anchor="middle" x="158" y="-316.8" font-family="'/usr/share/fonts/truetype/wqy/wqy-microhei.ttc'" font-size="14.00">dict</text>
<text text-anchor="middle" x="158" y="-301.8" font-family="'/usr/share/fonts/truetype/wqy/wqy-microhei.ttc'" font-size="14.00">(key space)</text>
<polyline fill="none" stroke="black" points="106.5,-294 209.5,-294 "/>
<text text-anchor="middle" x="158" y="-278.8" font-family="'/usr/share/fonts/truetype/wqy/wqy-microhei.ttc'" font-size="14.00">StringObject</text>
<text text-anchor="middle" x="158" y="-263.8" font-family="'/usr/share/fonts/truetype/wqy/wqy-microhei.ttc'" font-size="14.00"> &quot;number&quot;</text>
<polyline fill="none" stroke="black" points="106.5,-256 209.5,-256 "/>
<text text-anchor="middle" x="158" y="-240.8" font-family="'/usr/share/fonts/truetype/wqy/wqy-microhei.ttc'" font-size="14.00">StringObject</text>
<text text-anchor="middle" x="158" y="-225.8" font-family="'/usr/share/fonts/truetype/wqy/wqy-microhei.ttc'" font-size="14.00"> &quot;date&quot;</text>
<polyline fill="none" stroke="black" points="106.5,-218 209.5,-218 "/>
<text text-anchor="middle" x="158" y="-202.8" font-family="'/usr/share/fonts/truetype/wqy/wqy-microhei.ttc'" font-size="14.00">StringObject</text>
<text text-anchor="middle" x="158" y="-187.8" font-family="'/usr/share/fonts/truetype/wqy/wqy-microhei.ttc'" font-size="14.00"> &quot;book&quot;</text>
<polyline fill="none" stroke="black" points="106.5,-180 209.5,-180 "/>
<text text-anchor="middle" x="158" y="-164.8" font-family="'/usr/share/fonts/truetype/wqy/wqy-microhei.ttc'" font-size="14.00">StringObject</text>
<text text-anchor="middle" x="158" y="-149.8" font-family="'/usr/share/fonts/truetype/wqy/wqy-microhei.ttc'" font-size="14.00"> &quot;message&quot;</text>
</g>
<!-- redisDb&#45;&gt;dict -->
<g id="edge1" class="edge"><title>redisDb:dict&#45;&gt;dict:head</title>
<path fill="none" stroke="black" stroke-width="2" d="M70,-313C82,-313 87.25,-313 95.875,-313"/>
<polygon fill="black" stroke="black" stroke-width="2" points="96,-316.5 106,-313 96,-309.5 96,-316.5"/>
</g>
<!-- number -->
<g id="node3" class="node"><title>number</title>
<polygon fill="#fadcad" stroke="black" points="246,-287 246,-333 378,-333 378,-287 246,-287"/>
<text text-anchor="middle" x="312" y="-317.8" font-family="'/usr/share/fonts/truetype/wqy/wqy-microhei.ttc'" font-size="14.00">ListObject</text>
<polyline fill="none" stroke="black" points="246,-310 378,-310 "/>
<text text-anchor="middle" x="268" y="-294.8" font-family="'/usr/share/fonts/truetype/wqy/wqy-microhei.ttc'" font-size="14.00">123</text>
<polyline fill="none" stroke="black" points="290,-287 290,-310 "/>
<text text-anchor="middle" x="312" y="-294.8" font-family="'/usr/share/fonts/truetype/wqy/wqy-microhei.ttc'" font-size="14.00">456</text>
<polyline fill="none" stroke="black" points="334,-287 334,-310 "/>
<text text-anchor="middle" x="356" y="-294.8" font-family="'/usr/share/fonts/truetype/wqy/wqy-microhei.ttc'" font-size="14.00">789</text>
</g>
<!-- dict&#45;&gt;number -->
<g id="edge2" class="edge"><title>dict:number&#45;&gt;number:head</title>
<path fill="none" stroke="black" stroke-width="2" d="M210,-275C232.201,-275 223.835,-308.46 236.483,-318.916"/>
<polygon fill="black" stroke="black" stroke-width="2" points="235.408,-322.247 246,-322 237.566,-315.588 235.408,-322.247"/>
</g>
<!-- book -->
<g id="node4" class="node"><title>book</title>
<polygon fill="#f2f2f2" stroke="black" points="260.5,-65.5 260.5,-202.5 363.5,-202.5 363.5,-65.5 260.5,-65.5"/>
<text text-anchor="middle" x="312" y="-187.3" font-family="'/usr/share/fonts/truetype/wqy/wqy-microhei.ttc'" font-size="14.00">HashObject</text>
<polyline fill="none" stroke="black" points="260.5,-179.5 363.5,-179.5 "/>
<text text-anchor="middle" x="312" y="-164.3" font-family="'/usr/share/fonts/truetype/wqy/wqy-microhei.ttc'" font-size="14.00">StringObject</text>
<text text-anchor="middle" x="312" y="-149.3" font-family="'/usr/share/fonts/truetype/wqy/wqy-microhei.ttc'" font-size="14.00"> &quot;name&quot;</text>
<polyline fill="none" stroke="black" points="260.5,-141.5 363.5,-141.5 "/>
<text text-anchor="middle" x="312" y="-126.3" font-family="'/usr/share/fonts/truetype/wqy/wqy-microhei.ttc'" font-size="14.00">StringObject</text>
<text text-anchor="middle" x="312" y="-111.3" font-family="'/usr/share/fonts/truetype/wqy/wqy-microhei.ttc'" font-size="14.00"> &quot;author&quot;</text>
<polyline fill="none" stroke="black" points="260.5,-103.5 363.5,-103.5 "/>
<text text-anchor="middle" x="312" y="-88.3" font-family="'/usr/share/fonts/truetype/wqy/wqy-microhei.ttc'" font-size="14.00">StringObject</text>
<text text-anchor="middle" x="312" y="-73.3" font-family="'/usr/share/fonts/truetype/wqy/wqy-microhei.ttc'" font-size="14.00"> &quot;publisher&quot;</text>
</g>
<!-- dict&#45;&gt;book -->
<g id="edge4" class="edge"><title>dict:book&#45;&gt;book:head</title>
<path fill="none" stroke="black" stroke-width="2" d="M210,-199C228.274,-199 234.753,-193.514 248.972,-191.628"/>
<polygon fill="black" stroke="black" stroke-width="2" points="249.238,-195.118 259,-191 248.801,-188.132 249.238,-195.118"/>
</g>
<!-- message -->
<g id="node8" class="node"><title>message</title>
<polygon fill="lightgrey" stroke="black" points="260.5,-0 260.5,-46 363.5,-46 363.5,-0 260.5,-0"/>
<text text-anchor="middle" x="312" y="-30.8" font-family="'/usr/share/fonts/truetype/wqy/wqy-microhei.ttc'" font-size="14.00">StringObject</text>
<polyline fill="none" stroke="black" points="260.5,-23 363.5,-23 "/>
<text text-anchor="middle" x="312" y="-7.8" font-family="'/usr/share/fonts/truetype/wqy/wqy-microhei.ttc'" font-size="14.00">&quot;hello moto&quot;</text>
</g>
<!-- dict&#45;&gt;message -->
<g id="edge5" class="edge"><title>dict:message&#45;&gt;message:head</title>
<path fill="none" stroke="black" stroke-width="2" d="M210,-161C266.213,-161 207.544,-50.7188 248.947,-36.5028"/>
<polygon fill="black" stroke="black" stroke-width="2" points="249.627,-39.9401 259,-35 248.592,-33.0171 249.627,-39.9401"/>
</g>
<!-- date -->
<g id="node9" class="node"><title>date</title>
<polygon fill="#ffc1c1" stroke="black" points="260.5,-222 260.5,-268 363.5,-268 363.5,-222 260.5,-222"/>
<text text-anchor="middle" x="312" y="-252.8" font-family="'/usr/share/fonts/truetype/wqy/wqy-microhei.ttc'" font-size="14.00">StringObject</text>
<polyline fill="none" stroke="black" points="260.5,-245 363.5,-245 "/>
<text text-anchor="middle" x="312" y="-229.8" font-family="'/usr/share/fonts/truetype/wqy/wqy-microhei.ttc'" font-size="14.00">&quot;2013.2.1&quot;</text>
</g>
<!-- dict&#45;&gt;date -->
<g id="edge3" class="edge"><title>dict:date&#45;&gt;date</title>
<path fill="none" stroke="black" stroke-width="2" d="M210,-237C223.106,-237 237.138,-237.678 250.448,-238.639"/>
<polygon fill="black" stroke="black" stroke-width="2" points="250.215,-242.131 260.457,-239.422 250.761,-235.152 250.215,-242.131"/>
</g>
<!-- book_name -->
<g id="node5" class="node"><title>book_name</title>
<polygon fill="lightgrey" stroke="black" points="414.5,-152 414.5,-198 625.5,-198 625.5,-152 414.5,-152"/>
<text text-anchor="middle" x="520" y="-182.8" font-family="'/usr/share/fonts/truetype/wqy/wqy-microhei.ttc'" font-size="14.00">StringObject</text>
<polyline fill="none" stroke="black" points="414.5,-175 625.5,-175 "/>
<text text-anchor="middle" x="520" y="-159.8" font-family="'/usr/share/fonts/truetype/wqy/wqy-microhei.ttc'" font-size="14.00">&quot;Mastering C++ in 21 days&quot;</text>
</g>
<!-- book&#45;&gt;book_name -->
<g id="edge6" class="edge"><title>book:name&#45;&gt;book_name:head</title>
<path fill="none" stroke="black" stroke-width="2" d="M365,-161C385.802,-161 388.833,-179.51 404.081,-185.294"/>
<polygon fill="black" stroke="black" stroke-width="2" points="403.551,-188.754 414,-187 404.738,-181.856 403.551,-188.754"/>
</g>
<!-- book_author -->
<g id="node6" class="node"><title>book_author</title>
<polygon fill="lightgrey" stroke="black" points="468.5,-87 468.5,-133 571.5,-133 571.5,-87 468.5,-87"/>
<text text-anchor="middle" x="520" y="-117.8" font-family="'/usr/share/fonts/truetype/wqy/wqy-microhei.ttc'" font-size="14.00">StringObject</text>
<polyline fill="none" stroke="black" points="468.5,-110 571.5,-110 "/>
<text text-anchor="middle" x="520" y="-94.8" font-family="'/usr/share/fonts/truetype/wqy/wqy-microhei.ttc'" font-size="14.00">&quot;Someone&quot;</text>
</g>
<!-- book&#45;&gt;book_author -->
<g id="edge7" class="edge"><title>book:author&#45;&gt;book_author:head</title>
<path fill="none" stroke="black" stroke-width="2" d="M365,-122C406.792,-122 419.688,-122 456.965,-122"/>
<polygon fill="black" stroke="black" stroke-width="2" points="457,-125.5 467,-122 457,-118.5 457,-125.5"/>
</g>
<!-- book_publisher -->
<g id="node7" class="node"><title>book_publisher</title>
<polygon fill="lightgrey" stroke="black" points="434.5,-22 434.5,-68 605.5,-68 605.5,-22 434.5,-22"/>
<text text-anchor="middle" x="520" y="-52.8" font-family="'/usr/share/fonts/truetype/wqy/wqy-microhei.ttc'" font-size="14.00">StringObject</text>
<polyline fill="none" stroke="black" points="434.5,-45 605.5,-45 "/>
<text text-anchor="middle" x="520" y="-29.8" font-family="'/usr/share/fonts/truetype/wqy/wqy-microhei.ttc'" font-size="14.00">&quot;Oh&#45;Really? Publisher&quot;</text>
</g>
<!-- book&#45;&gt;book_publisher -->
<g id="edge8" class="edge"><title>book:publisher&#45;&gt;book_publisher:head</title>
<path fill="none" stroke="black" stroke-width="2" d="M365,-84C393.834,-84 399.432,-62.7707 423.001,-57.9609"/>
<polygon fill="black" stroke="black" stroke-width="2" points="423.381,-61.4407 433,-57 422.711,-54.4728 423.381,-61.4407"/>
</g>
</g>
</svg>
