<?xml version="1.0" encoding="UTF-8" standalone="no"?>
<!DOCTYPE svg PUBLIC "-//W3C//DTD SVG 1.1//EN"
 "http://www.w3.org/Graphics/SVG/1.1/DTD/svg11.dtd">
<!-- Generated by graphviz version 2.36.0 (20140111.2315)
 -->
<!-- Title: get_with_expire Pages: 1 -->
<svg width="326pt" height="308pt"
 viewBox="0.00 0.00 326.00 308.00" xmlns="http://www.w3.org/2000/svg" xmlns:xlink="http://www.w3.org/1999/xlink">
<g id="graph0" class="graph" transform="scale(1 1) rotate(0) translate(4 304)">
<title>get_with_expire</title>
<polygon fill="white" stroke="none" points="-4,4 -4,-304 322,-304 322,4 -4,4"/>
<!-- get -->
<g id="node1" class="node"><title>get</title>
<polygon fill="#fadcad" stroke="none" points="189,-300 115,-300 115,-264 189,-264 189,-300"/>
<text text-anchor="middle" x="152" y="-278.3" font-family="'/usr/share/fonts/truetype/wqy/wqy-microhei.ttc'" font-size="14.00">GET key</text>
</g>
<!-- expire_if_needed -->
<g id="node2" class="node"><title>expire_if_needed</title>
<polygon fill="#a8e270" stroke="black" points="152,-226 2.84217e-14,-158 152,-90 304,-158 152,-226"/>
<text text-anchor="middle" x="152" y="-176.8" font-family="'/usr/share/fonts/truetype/wqy/wqy-microhei.ttc'" font-size="14.00">调用</text>
<text text-anchor="middle" x="152" y="-161.8" font-family="'/usr/share/fonts/truetype/wqy/wqy-microhei.ttc'" font-size="14.00"> expire_if_needed() </text>
<text text-anchor="middle" x="152" y="-146.8" font-family="'/usr/share/fonts/truetype/wqy/wqy-microhei.ttc'" font-size="14.00"> 如果键已经过期 </text>
<text text-anchor="middle" x="152" y="-131.8" font-family="'/usr/share/fonts/truetype/wqy/wqy-microhei.ttc'" font-size="14.00"> 那么将它删除</text>
</g>
<!-- get&#45;&gt;expire_if_needed -->
<g id="edge1" class="edge"><title>get&#45;&gt;expire_if_needed</title>
<path fill="none" stroke="black" stroke-width="2" d="M152,-263.779C152,-256.114 152,-246.499 152,-236.222"/>
<polygon fill="black" stroke="black" stroke-width="2" points="155.5,-236.208 152,-226.208 148.5,-236.208 155.5,-236.208"/>
</g>
<!-- expired_and_deleted -->
<g id="node3" class="node"><title>expired_and_deleted</title>
<polygon fill="lightgrey" stroke="none" points="136,-38 2,-38 2,-0 136,-0 136,-38"/>
<text text-anchor="middle" x="69" y="-22.8" font-family="'/usr/share/fonts/truetype/wqy/wqy-microhei.ttc'" font-size="14.00">key 不存在</text>
<text text-anchor="middle" x="69" y="-7.8" font-family="'/usr/share/fonts/truetype/wqy/wqy-microhei.ttc'" font-size="14.00"> 向客户端返回 NIL</text>
</g>
<!-- expire_if_needed&#45;&gt;expired_and_deleted -->
<g id="edge2" class="edge"><title>expire_if_needed&#45;&gt;expired_and_deleted</title>
<path fill="none" stroke="black" stroke-width="2" d="M119.91,-104.032C108.089,-84.5199 95.192,-63.2326 85.3368,-46.9656"/>
<polygon fill="black" stroke="black" stroke-width="2" points="88.092,-44.7585 79.9168,-38.0193 82.105,-48.3857 88.092,-44.7585"/>
<text text-anchor="middle" x="120.5" y="-60.3" font-family="Times,serif" font-size="14.00">已过期</text>
</g>
<!-- not_expired -->
<g id="node4" class="node"><title>not_expired</title>
<polygon fill="lightgrey" stroke="none" points="318,-37 154,-37 154,-1 318,-1 318,-37"/>
<text text-anchor="middle" x="236" y="-15.3" font-family="'/usr/share/fonts/truetype/wqy/wqy-microhei.ttc'" font-size="14.00">向客户端返回 key 的值</text>
</g>
<!-- expire_if_needed&#45;&gt;not_expired -->
<g id="edge3" class="edge"><title>expire_if_needed&#45;&gt;not_expired</title>
<path fill="none" stroke="black" stroke-width="2" d="M184.477,-104.032C196.672,-84.1422 209.998,-62.4079 220.042,-46.0267"/>
<polygon fill="black" stroke="black" stroke-width="2" points="223.3,-47.4094 225.543,-37.0547 217.332,-43.7504 223.3,-47.4094"/>
<text text-anchor="middle" x="234.5" y="-60.3" font-family="Times,serif" font-size="14.00">未过期</text>
</g>
</g>
</svg>
